<?xml version="1.0" encoding="UTF-8"?>
<svg width="313pt" xmlns:xlink="http://www.w3.org/1999/xlink" xmlns="http://www.w3.org/2000/svg" height="239pt" viewBox="0 0 313 239" >
 <g transform="translate(86.7842, 11.6191)" style="fill:none; stroke:#010101; stroke-width:0.1; stroke-linecap:butt; stroke-linejoin:round; stroke-dasharray:none;" >
  <path d="M0.3965 0 C0.3965 0 0 184.385 0 184.385 " />
 </g>
 <g transform="translate(0.0283203, 167.227)" style="fill:none; stroke:#010101; stroke-width:0.1; stroke-linecap:butt; stroke-linejoin:round; stroke-dasharray:none;" >
  <path d="M303.134 0 C303.134 0 0 0 0 0 " />
 </g>
 <g transform="translate(86.2168, 131.78)" style="fill:none; stroke:#0101ff; stroke-width:0.709375; stroke-linecap:butt; stroke-linejoin:round; stroke-dasharray:none;" >
  <path d="M0 35.163 C0 35.163 35.1792 0 35.1792 0 " />
 </g>
 <g transform="translate(121.111, 131.354)" style="fill:none; stroke:#0101ff; stroke-width:0.709375; stroke-linecap:butt; stroke-linejoin:round; stroke-dasharray:none;" >
  <path d="M35.179 35.164 C35.179 35.164 0 0 0 0 " />
 </g>
 <g transform="translate(155.865, 131.78)" style="fill:none; stroke:#0101ff; stroke-width:0.709375; stroke-linecap:butt; stroke-linejoin:round; stroke-dasharray:none;" >
  <path d="M0 35.163 C0 35.163 35.179 0 35.179 0 " />
 </g>
 <g transform="translate(190.788, 131.354)" style="fill:none; stroke:#0101ff; stroke-width:0.709375; stroke-linecap:butt; stroke-linejoin:round; stroke-dasharray:none;" >
  <path d="M35.179 35.164 C35.179 35.164 0 0 0 0 " />
 </g>
 <g transform="translate(225.542, 131.78)" style="fill:none; stroke:#0101ff; stroke-width:0.709375; stroke-linecap:butt; stroke-linejoin:round; stroke-dasharray:none;" >
  <path d="M0 35.163 C0 35.163 35.179 0 35.179 0 " />
 </g>
 <g transform="translate(260.437, 131.354)" style="fill:none; stroke:#0101ff; stroke-width:0.709375; stroke-linecap:butt; stroke-linejoin:round; stroke-dasharray:none;" >
  <path d="M35.178 35.164 C35.178 35.164 0 0 0 0 " />
 </g>
 <g transform="translate(51.4629, 131.354)" style="fill:none; stroke:#0101ff; stroke-width:0.709375; stroke-linecap:butt; stroke-linejoin:round; stroke-dasharray:none;" >
  <path d="M35.1787 35.164 C35.1787 35.164 0 0 0 0 " />
 </g>
 <g transform="translate(16.5684, 131.78)" style="fill:none; stroke:#0101ff; stroke-width:0.709375; stroke-linecap:butt; stroke-linejoin:round; stroke-dasharray:none;" >
  <path d="M0 35.163 C0 35.163 35.1787 0 35.1787 0 " />
 </g>
 <g transform="translate(209.2, 151.845)" style="fill:none; stroke:#ff0101; stroke-width:0.1; stroke-linecap:butt; stroke-linejoin:miter; stroke-dasharray:none;" >
  <path d="M0 12.487 C0 12.487 0 0 0 0 " />
 </g>
 <g transform="translate(208.491, 163.566)" style="fill:#ff0101; fill-rule:evenodd; stroke:none; stroke-width:0.028375; stroke-linecap:butt; stroke-linejoin:miter; stroke-dasharray:none;" >
  <path d="M0 0 C0 0 1.447 0 1.447 0 C1.447 0 0.653 3.831 0.653 3.831 C0.653 3.831 0 0 0 0 Z" />
 </g>
 <g transform="translate(208.491, 148.78)" style="fill:#ff0101; fill-rule:evenodd; stroke:none; stroke-width:0.028375; stroke-linecap:butt; stroke-linejoin:miter; stroke-dasharray:none;" >
  <path d="M1.447 3.831 C1.447 3.831 0 3.831 0 3.831 C0 3.831 0.766 0 0.766 0 C0.766 0 1.447 3.831 1.447 3.831 Z" />
 </g>
 <g transform="translate(162.305, 139.613)" style="fill:#018001; fill-rule:evenodd; stroke:none; stroke-width:0.028375; stroke-linecap:butt; stroke-linejoin:miter; stroke-dasharray:none;" >
  <path d="M4.567 5.165 C4.936 5.421 5.249 5.591 5.56 5.733 C5.56 5.733 5.305 6.243 5.305 6.243 C4.908 6.102 4.51 5.875 4.085 5.534 C3.66 5.789 3.206 5.904 2.695 5.904 C2.184 5.904 1.73 5.789 1.304 5.534 C0.88 5.279 0.567 4.939 0.341 4.485 C0.113 4.031 0 3.52 0 2.951 C0 2.384 0.113 1.873 0.341 1.419 C0.567 0.965 0.88 0.596 1.304 0.369 C1.73 0.114 2.184 0 2.723 0 C3.234 0 3.716 0.114 4.142 0.369 C4.539 0.624 4.88 0.965 5.078 1.419 C5.305 1.873 5.419 2.356 5.419 2.923 C5.419 3.406 5.362 3.803 5.219 4.2 C5.078 4.57 4.851 4.881 4.567 5.165 Z M2.922 4.2 C3.347 4.314 3.716 4.513 4 4.74 C4.425 4.342 4.652 3.746 4.652 2.951 C4.652 2.497 4.567 2.1 4.425 1.76 C4.256 1.419 4.028 1.163 3.745 0.965 C3.432 0.767 3.092 0.681 2.723 0.681 C2.156 0.681 1.702 0.88 1.333 1.249 C0.965 1.617 0.765 2.186 0.765 2.951 C0.765 3.69 0.936 4.257 1.304 4.626 C1.674 5.024 2.156 5.222 2.723 5.222 C2.978 5.222 3.234 5.165 3.489 5.08 C3.234 4.91 3.007 4.825 2.723 4.74 C2.723 4.74 2.922 4.2 2.922 4.2 Z" />
 </g>
 <g transform="translate(168.489, 146.282)" style="fill:#018001; fill-rule:evenodd; stroke:none; stroke-width:0.028375; stroke-linecap:butt; stroke-linejoin:miter; stroke-dasharray:none;" >
  <path d="M0 3.435 C0 3.435 0 0.057 0 0.057 C0 0.057 0.426 0.057 0.426 0.057 C0.426 0.057 0.426 0.369 0.426 0.369 C0.511 0.228 0.596 0.143 0.709 0.086 C0.824 0.029 0.965 0 1.107 0 C1.306 0 1.476 0.057 1.646 0.171 C1.787 0.256 1.902 0.426 1.987 0.625 C2.072 0.823 2.1 1.023 2.1 1.249 C2.1 1.505 2.043 1.732 1.958 1.93 C1.873 2.129 1.759 2.299 1.589 2.384 C1.419 2.498 1.248 2.555 1.05 2.555 C0.908 2.555 0.795 2.527 0.681 2.47 C0.596 2.413 0.483 2.327 0.426 2.242 C0.426 2.242 0.426 3.435 0.426 3.435 C0.426 3.435 0 3.435 0 3.435 Z M0.426 1.278 C0.426 1.59 0.483 1.845 0.596 1.988 C0.739 2.129 0.88 2.214 1.05 2.214 C1.22 2.214 1.363 2.129 1.476 1.988 C1.617 1.817 1.674 1.59 1.674 1.249 C1.674 0.937 1.617 0.71 1.504 0.54 C1.363 0.398 1.22 0.313 1.05 0.313 C0.88 0.313 0.739 0.398 0.624 0.569 C0.483 0.739 0.426 0.965 0.426 1.278 Z" />
 </g>
 <g transform="translate(157.936, 131.865)" style="fill:none; stroke:#018001; stroke-width:0.1; stroke-linecap:butt; stroke-linejoin:miter; stroke-dasharray:none;" >
  <path d="M30.384 0 C30.384 0 0 30.396 0 30.396 " />
 </g>
 <g transform="translate(187.271, 129.737)" style="fill:#018001; fill-rule:evenodd; stroke:none; stroke-width:0.028375; stroke-linecap:butt; stroke-linejoin:miter; stroke-dasharray:none;" >
  <path d="M1.021 3.179 C1.021 3.179 0 2.157 0 2.157 C0 2.157 3.234 0 3.234 0 C3.234 0 1.021 3.179 1.021 3.179 Z" />
 </g>
 <g transform="translate(155.751, 161.21)" style="fill:#018001; fill-rule:evenodd; stroke:none; stroke-width:0.028375; stroke-linecap:butt; stroke-linejoin:miter; stroke-dasharray:none;" >
  <path d="M2.213 0 C2.213 0 3.234 1.022 3.234 1.022 C3.234 1.022 0 3.179 0 3.179 C0 3.179 2.213 0 2.213 0 Z" />
 </g>
 <g transform="translate(194.448, 132.462)" style="fill:none; stroke:#018001; stroke-width:0.1; stroke-linecap:butt; stroke-linejoin:miter; stroke-dasharray:none;" >
  <path d="M30.384 30.394 C30.384 30.394 0 0 0 0 " />
 </g>
 <g transform="translate(223.782, 161.807)" style="fill:#018001; fill-rule:evenodd; stroke:none; stroke-width:0.028375; stroke-linecap:butt; stroke-linejoin:miter; stroke-dasharray:none;" >
  <path d="M0 1.021 C0 1.021 1.022 0 1.022 0 C1.022 0 3.178 3.235 3.178 3.235 C3.178 3.235 0 1.021 0 1.021 Z" />
 </g>
 <g transform="translate(192.32, 130.276)" style="fill:#018001; fill-rule:evenodd; stroke:none; stroke-width:0.028375; stroke-linecap:butt; stroke-linejoin:miter; stroke-dasharray:none;" >
  <path d="M3.178 2.214 C3.178 2.214 2.157 3.236 2.157 3.236 C2.157 3.236 0 0 0 0 C0 0 3.178 2.214 3.178 2.214 Z" />
 </g>
 <g transform="translate(202.222, 154.314)" style="fill:#ff0101; fill-rule:evenodd; stroke:none; stroke-width:0.028375; stroke-linecap:butt; stroke-linejoin:miter; stroke-dasharray:none;" >
  <path d="M0.396 5.761 C0.396 5.761 0.311 5.109 0.311 5.109 C0.482 5.137 0.595 5.165 0.709 5.165 C0.879 5.165 0.992 5.137 1.106 5.081 C1.191 5.023 1.276 4.966 1.333 4.881 C1.389 4.796 1.446 4.626 1.559 4.342 C1.559 4.314 1.589 4.257 1.617 4.172 C1.617 4.172 0 0 0 0 C0 0 0.765 0 0.765 0 C0.765 0 1.645 2.384 1.645 2.384 C1.758 2.667 1.872 3.008 1.957 3.321 C2.042 3.037 2.127 2.753 2.241 2.441 C2.241 2.441 3.12 0 3.12 0 C3.12 0 3.83 0 3.83 0 C3.83 0 2.298 4.257 2.298 4.257 C2.127 4.711 1.985 5.023 1.9 5.194 C1.758 5.42 1.617 5.591 1.446 5.676 C1.276 5.79 1.078 5.846 0.85 5.846 C0.709 5.846 0.567 5.818 0.396 5.761 Z" />
 </g>
 <g transform="translate(206.591, 158.486)" style="fill:#ff0101; fill-rule:evenodd; stroke:none; stroke-width:0.028375; stroke-linecap:butt; stroke-linejoin:miter; stroke-dasharray:none;" >
  <path d="M1.22 3.349 C1.22 3.349 0.794 3.349 0.794 3.349 C0.794 3.349 0.794 0.738 0.794 0.738 C0.709 0.823 0.567 0.937 0.425 1.022 C0.255 1.107 0.113 1.192 0 1.22 C0 1.22 0 0.823 0 0.823 C0.226 0.738 0.425 0.596 0.596 0.454 C0.765 0.284 0.879 0.142 0.935 0 C0.935 0 1.22 0 1.22 0 C1.22 0 1.22 3.349 1.22 3.349 Z" />
 </g>
 <g transform="translate(89.791, 168.306)" style="fill:none; stroke:#ff0101; stroke-width:0.1; stroke-linecap:butt; stroke-linejoin:miter; stroke-dasharray:none;" >
  <path d="M116.431 0 C116.431 0 0 0 0 0 " />
 </g>
 <g transform="translate(205.455, 167.596)" style="fill:#ff0101; fill-rule:evenodd; stroke:none; stroke-width:0.028375; stroke-linecap:butt; stroke-linejoin:miter; stroke-dasharray:none;" >
  <path d="M0 1.447 C0 1.447 0 0 0 0 C0 0 3.83 0.766 3.83 0.766 C3.83 0.766 0 1.447 0 1.447 Z" />
 </g>
 <g transform="translate(86.7275, 167.596)" style="fill:#ff0101; fill-rule:evenodd; stroke:none; stroke-width:0.028375; stroke-linecap:butt; stroke-linejoin:miter; stroke-dasharray:none;" >
  <path d="M3.8291 0 C3.8291 0 3.8291 1.447 3.8291 1.447 C3.8291 1.447 0 0.653 0 0.653 C0 0.653 3.8291 0 3.8291 0 Z" />
 </g>
 <g transform="translate(136.856, 170.122)" style="fill:#ff0101; fill-rule:evenodd; stroke:none; stroke-width:0.028375; stroke-linecap:butt; stroke-linejoin:miter; stroke-dasharray:none;" >
  <path d="M2.128 5.732 C2.128 5.732 1.419 5.732 1.419 5.732 C1.419 5.732 1.419 1.276 1.419 1.276 C1.249 1.419 1.022 1.589 0.739 1.759 C0.483 1.901 0.228 2.043 0 2.1 C0 2.1 0 1.419 0 1.419 C0.398 1.248 0.739 1.022 1.05 0.766 C1.334 0.511 1.561 0.255 1.674 0 C1.674 0 2.128 0 2.128 0 C2.128 0 2.128 5.732 2.128 5.732 Z" />
 </g>
 <g transform="translate(141.169, 175.06)" style="fill:#ff0101; fill-rule:evenodd; stroke:none; stroke-width:0.028375; stroke-linecap:butt; stroke-linejoin:miter; stroke-dasharray:none;" >
  <path d="M0 0.794 C0 0.794 0 0 0 0 C0 0 0.795 0 0.795 0 C0.795 0 0.795 0.794 0.795 0.794 C0.795 0.794 0 0.794 0 0.794 Z" />
 </g>
 <g transform="translate(142.814, 170.122)" style="fill:#ff0101; fill-rule:evenodd; stroke:none; stroke-width:0.028375; stroke-linecap:butt; stroke-linejoin:miter; stroke-dasharray:none;" >
  <path d="M2.526 5.732 C2.526 5.732 2.526 4.37 2.526 4.37 C2.526 4.37 0 4.37 0 4.37 C0 4.37 0 3.718 0 3.718 C0 3.718 2.667 0 2.667 0 C2.667 0 3.235 0 3.235 0 C3.235 0 3.235 3.718 3.235 3.718 C3.235 3.718 4 3.718 4 3.718 C4 3.718 4 4.37 4 4.37 C4 4.37 3.235 4.37 3.235 4.37 C3.235 4.37 3.235 5.732 3.235 5.732 C3.235 5.732 2.526 5.732 2.526 5.732 Z M2.526 3.718 C2.526 3.718 2.526 1.163 2.526 1.163 C2.526 1.163 0.709 3.718 0.709 3.718 C0.709 3.718 2.526 3.718 2.526 3.718 Z" />
 </g>
 <g transform="translate(148.034, 170.122)" style="fill:#ff0101; fill-rule:evenodd; stroke:none; stroke-width:0.028375; stroke-linecap:butt; stroke-linejoin:miter; stroke-dasharray:none;" >
  <path d="M2.128 5.732 C2.128 5.732 1.419 5.732 1.419 5.732 C1.419 5.732 1.419 1.276 1.419 1.276 C1.249 1.419 1.022 1.589 0.738 1.759 C0.483 1.901 0.228 2.043 0 2.1 C0 2.1 0 1.419 0 1.419 C0.398 1.248 0.738 1.022 1.05 0.766 C1.334 0.511 1.561 0.255 1.674 0 C1.674 0 2.128 0 2.128 0 C2.128 0 2.128 5.732 2.128 5.732 Z" />
 </g>
 <g transform="translate(151.694, 170.122)" style="fill:#ff0101; fill-rule:evenodd; stroke:none; stroke-width:0.028375; stroke-linecap:butt; stroke-linejoin:miter; stroke-dasharray:none;" >
  <path d="M2.526 5.732 C2.526 5.732 2.526 4.37 2.526 4.37 C2.526 4.37 0 4.37 0 4.37 C0 4.37 0 3.718 0 3.718 C0 3.718 2.667 0 2.667 0 C2.667 0 3.235 0 3.235 0 C3.235 0 3.235 3.718 3.235 3.718 C3.235 3.718 4 3.718 4 3.718 C4 3.718 4 4.37 4 4.37 C4 4.37 3.235 4.37 3.235 4.37 C3.235 4.37 3.235 5.732 3.235 5.732 C3.235 5.732 2.526 5.732 2.526 5.732 Z M2.526 3.718 C2.526 3.718 2.526 1.163 2.526 1.163 C2.526 1.163 0.709 3.718 0.709 3.718 C0.709 3.718 2.526 3.718 2.526 3.718 Z" />
 </g>
 <g transform="translate(156.12, 171.683)" style="fill:#ff0101; fill-rule:evenodd; stroke:none; stroke-width:0.028375; stroke-linecap:butt; stroke-linejoin:miter; stroke-dasharray:none;" >
  <path d="M0 4.171 C0 4.171 1.476 2.014 1.476 2.014 C1.476 2.014 0.085 0 0.085 0 C0.085 0 0.937 0 0.937 0 C0.937 0 1.617 0.993 1.617 0.993 C1.731 1.192 1.816 1.334 1.901 1.447 C2.015 1.277 2.128 1.106 2.213 0.993 C2.213 0.993 2.894 0 2.894 0 C2.894 0 3.745 0 3.745 0 C3.745 0 2.355 2.014 2.355 2.014 C2.355 2.014 3.83 4.171 3.83 4.171 C3.83 4.171 2.979 4.171 2.979 4.171 C2.979 4.171 2.128 2.894 2.128 2.894 C2.128 2.894 1.929 2.611 1.929 2.611 C1.929 2.611 0.852 4.171 0.852 4.171 C0.852 4.171 0 4.171 0 4.171 Z" />
 </g>
 <g transform="translate(160.404, 175.854)" style="fill:#ff0101; fill-rule:evenodd; stroke:none; stroke-width:0.028375; stroke-linecap:butt; stroke-linejoin:miter; stroke-dasharray:none;" >
  <path d="M1.22 3.349 C1.22 3.349 0.794 3.349 0.794 3.349 C0.794 3.349 0.794 0.739 0.794 0.739 C0.709 0.824 0.568 0.937 0.425 1.022 C0.255 1.107 0.114 1.193 0 1.221 C0 1.221 0 0.824 0 0.824 C0.227 0.739 0.425 0.596 0.596 0.455 C0.766 0.285 0.879 0.142 0.936 0 C0.936 0 1.22 0 1.22 0 C1.22 0 1.22 3.349 1.22 3.349 Z" />
 </g>
 <g transform="translate(207.129, 169.469)" style="fill:#010101; fill-rule:evenodd; stroke:none; stroke-width:0.028375; stroke-linecap:butt; stroke-linejoin:miter; stroke-dasharray:none;" >
  <path d="M0 5.733 C0 5.733 0 0 0 0 C0 0 4.114 0 4.114 0 C4.114 0 4.114 0.681 4.114 0.681 C4.114 0.681 0.767 0.681 0.767 0.681 C0.767 0.681 0.767 2.412 0.767 2.412 C0.767 2.412 3.887 2.412 3.887 2.412 C3.887 2.412 3.887 3.094 3.887 3.094 C3.887 3.094 0.767 3.094 0.767 3.094 C0.767 3.094 0.767 5.052 0.767 5.052 C0.767 5.052 4.256 5.052 4.256 5.052 C4.256 5.052 4.256 5.733 4.256 5.733 C4.256 5.733 0 5.733 0 5.733 Z" />
 </g>
 <g transform="translate(305.8, 164.928)" style="fill:#010101; fill-rule:evenodd; stroke:none; stroke-width:0.028375; stroke-linecap:butt; stroke-linejoin:miter; stroke-dasharray:none;" >
  <path d="M0 4.172 C0 4.172 1.475 2.015 1.475 2.015 C1.475 2.015 0.086 0 0.086 0 C0.086 0 0.936 0 0.936 0 C0.936 0 1.617 0.994 1.617 0.994 C1.731 1.192 1.816 1.334 1.901 1.448 C2.014 1.277 2.128 1.107 2.213 0.994 C2.213 0.994 2.894 0 2.894 0 C2.894 0 3.745 0 3.745 0 C3.745 0 2.355 2.015 2.355 2.015 C2.355 2.015 3.83 4.172 3.83 4.172 C3.83 4.172 2.979 4.172 2.979 4.172 C2.979 4.172 2.128 2.895 2.128 2.895 C2.128 2.895 1.929 2.611 1.929 2.611 C1.929 2.611 0.851 4.172 0.851 4.172 C0.851 4.172 0 4.172 0 4.172 Z" />
 </g>
 <g transform="translate(305.828, 164.957)" style="fill:#010101; fill-rule:evenodd; stroke:none; stroke-width:0.028375; stroke-linecap:butt; stroke-linejoin:miter; stroke-dasharray:none;" >
  <path d="M0 4.172 C0 4.172 1.476 2.015 1.476 2.015 C1.476 2.015 0.086 0 0.086 0 C0.086 0 0.937 0 0.937 0 C0.937 0 1.617 0.993 1.617 0.993 C1.732 1.191 1.817 1.333 1.901 1.447 C2.015 1.276 2.128 1.106 2.213 0.993 C2.213 0.993 2.895 0 2.895 0 C2.895 0 3.745 0 3.745 0 C3.745 0 2.356 2.015 2.356 2.015 C2.356 2.015 3.83 4.172 3.83 4.172 C3.83 4.172 2.98 4.172 2.98 4.172 C2.98 4.172 2.128 2.895 2.128 2.895 C2.128 2.895 1.93 2.61 1.93 2.61 C1.93 2.61 0.852 4.172 0.852 4.172 C0.852 4.172 0 4.172 0 4.172 Z" />
 </g>
 <g transform="translate(84.0605, 3.13379)" style="fill:#010101; fill-rule:evenodd; stroke:none; stroke-width:0.028375; stroke-linecap:butt; stroke-linejoin:miter; stroke-dasharray:none;" >
  <path d="M0.3965 5.76074 C0.3965 5.76074 0.3116 5.1084 0.3116 5.1084 C0.4825 5.13672 0.5958 5.16504 0.709 5.16504 C0.879 5.16504 0.9932 5.13672 1.1065 5.08008 C1.1915 5.02344 1.2764 4.9668 1.3331 4.88184 C1.3897 4.7959 1.4463 4.62598 1.5606 4.3418 C1.5606 4.31348 1.5889 4.25684 1.6172 4.17187 C1.6172 4.17187 0 0 0 0 C0 0 0.7657 0 0.7657 0 C0.7657 0 1.6456 2.38379 1.6456 2.38379 C1.7588 2.66797 1.8721 3.00879 1.9571 3.32031 C2.042 3.03711 2.128 2.75293 2.2413 2.44043 C2.2413 2.44043 3.1202 0 3.1202 0 C3.1202 0 3.8301 0 3.8301 0 C3.8301 0 2.2979 4.25684 2.2979 4.25684 C2.128 4.71094 1.9854 5.02344 1.9004 5.19336 C1.7588 5.4209 1.6172 5.59082 1.4463 5.67578 C1.2764 5.79004 1.0782 5.84668 0.8506 5.84668 C0.709 5.84668 0.5674 5.81836 0.3965 5.76074 Z" />
 </g>
 <g transform="translate(202.761, 182.893)" style="fill:#010101; fill-rule:evenodd; stroke:none; stroke-width:0.028375; stroke-linecap:butt; stroke-linejoin:miter; stroke-dasharray:none;" >
  <path d="M0 5.733 C0 5.733 0 0 0 0 C0 0 0.765 0 0.765 0 C0.765 0 0.765 5.733 0.765 5.733 C0.765 5.733 0 5.733 0 5.733 Z" />
 </g>
 <g transform="translate(204.859, 184.368)" style="fill:#010101; fill-rule:evenodd; stroke:none; stroke-width:0.028375; stroke-linecap:butt; stroke-linejoin:miter; stroke-dasharray:none;" >
  <path d="M0 4.258 C0 4.258 0 0.086 0 0.086 C0 0.086 0.654 0.086 0.654 0.086 C0.654 0.086 0.654 0.682 0.654 0.682 C0.965 0.228 1.391 0 1.958 0 C2.213 0 2.441 0.057 2.639 0.143 C2.867 0.228 3.008 0.341 3.121 0.483 C3.235 0.625 3.291 0.823 3.348 1.023 C3.376 1.136 3.376 1.362 3.376 1.703 C3.376 1.703 3.376 4.258 3.376 4.258 C3.376 4.258 2.667 4.258 2.667 4.258 C2.667 4.258 2.667 1.703 2.667 1.703 C2.667 1.419 2.639 1.221 2.582 1.079 C2.526 0.937 2.441 0.823 2.299 0.738 C2.157 0.653 1.987 0.597 1.817 0.597 C1.504 0.597 1.249 0.682 1.022 0.88 C0.824 1.079 0.71 1.447 0.71 1.987 C0.71 1.987 0.71 4.258 0.71 4.258 C0.71 4.258 0 4.258 0 4.258 Z" />
 </g>
 <g transform="translate(209.285, 184.368)" style="fill:#010101; fill-rule:evenodd; stroke:none; stroke-width:0.028375; stroke-linecap:butt; stroke-linejoin:miter; stroke-dasharray:none;" >
  <path d="M0 5.847 C0 5.847 0 0.086 0 0.086 C0 0.086 0.653 0.086 0.653 0.086 C0.653 0.086 0.653 0.625 0.653 0.625 C0.795 0.426 0.965 0.256 1.163 0.143 C1.362 0.057 1.589 0 1.845 0 C2.213 0 2.526 0.086 2.78 0.284 C3.065 0.454 3.263 0.71 3.404 1.051 C3.547 1.391 3.604 1.732 3.604 2.129 C3.604 2.555 3.519 2.952 3.376 3.292 C3.235 3.633 3.008 3.889 2.724 4.059 C2.412 4.258 2.128 4.343 1.788 4.343 C1.561 4.343 1.362 4.286 1.163 4.2 C0.993 4.087 0.823 3.974 0.71 3.832 C0.71 3.832 0.71 5.847 0.71 5.847 C0.71 5.847 0 5.847 0 5.847 Z M0.624 2.186 C0.624 2.725 0.738 3.122 0.965 3.378 C1.163 3.633 1.447 3.775 1.76 3.775 C2.071 3.775 2.327 3.633 2.554 3.378 C2.78 3.122 2.895 2.696 2.895 2.129 C2.895 1.59 2.78 1.193 2.554 0.937 C2.356 0.682 2.071 0.54 1.788 0.54 C1.476 0.54 1.221 0.682 0.965 0.965 C0.738 1.249 0.624 1.647 0.624 2.186 Z" />
 </g>
 <g transform="translate(213.739, 184.454)" style="fill:#010101; fill-rule:evenodd; stroke:none; stroke-width:0.028375; stroke-linecap:butt; stroke-linejoin:miter; stroke-dasharray:none;" >
  <path d="M2.781 4.172 C2.781 4.172 2.781 3.575 2.781 3.575 C2.441 4.029 2.015 4.257 1.448 4.257 C1.192 4.257 0.965 4.2 0.739 4.114 C0.539 4.029 0.369 3.916 0.256 3.775 C0.171 3.632 0.085 3.434 0.057 3.235 C0.029 3.093 0 2.866 0 2.582 C0 2.582 0 0 0 0 C0 0 0.71 0 0.71 0 C0.71 0 0.71 2.327 0.71 2.327 C0.71 2.695 0.739 2.923 0.767 3.065 C0.795 3.235 0.88 3.405 1.05 3.49 C1.192 3.604 1.363 3.66 1.589 3.66 C1.788 3.66 1.987 3.604 2.185 3.49 C2.356 3.377 2.497 3.235 2.582 3.065 C2.667 2.866 2.696 2.582 2.696 2.241 C2.696 2.241 2.696 0 2.696 0 C2.696 0 3.405 0 3.405 0 C3.405 0 3.405 4.172 3.405 4.172 C3.405 4.172 2.781 4.172 2.781 4.172 Z" />
 </g>
 <g transform="translate(217.797, 183.006)" style="fill:#010101; fill-rule:evenodd; stroke:none; stroke-width:0.028375; stroke-linecap:butt; stroke-linejoin:miter; stroke-dasharray:none;" >
  <path d="M1.929 5.023 C1.929 5.023 2.014 5.648 2.014 5.648 C1.815 5.677 1.645 5.705 1.474 5.705 C1.22 5.705 1.02 5.677 0.879 5.591 C0.766 5.506 0.652 5.392 0.596 5.251 C0.539 5.137 0.511 4.853 0.511 4.428 C0.511 4.428 0.511 1.987 0.511 1.987 C0.511 1.987 0 1.987 0 1.987 C0 1.987 0 1.448 0 1.448 C0 1.448 0.511 1.448 0.511 1.448 C0.511 1.448 0.511 0.426 0.511 0.426 C0.511 0.426 1.22 0 1.22 0 C1.22 0 1.22 1.448 1.22 1.448 C1.22 1.448 1.929 1.448 1.929 1.448 C1.929 1.448 1.929 1.987 1.929 1.987 C1.929 1.987 1.22 1.987 1.22 1.987 C1.22 1.987 1.22 4.456 1.22 4.456 C1.22 4.654 1.22 4.768 1.248 4.825 C1.276 4.882 1.333 4.938 1.39 4.967 C1.446 4.995 1.503 5.023 1.617 5.023 C1.702 5.023 1.787 5.023 1.929 5.023 Z" />
 </g>
 <g transform="translate(73.6484, 96.0781)" style="fill:#010101; fill-rule:evenodd; stroke:none; stroke-width:0.028375; stroke-linecap:butt; stroke-linejoin:miter; stroke-dasharray:none;" >
  <path d="M3.0362 5.4779 C2.0713 5.4779 1.333 5.2219 0.795 4.7109 C0.2559 4.1999 0 3.5479 0 2.7246 C0 2.2139 0.1133 1.7315 0.3692 1.3057 C0.6241 0.8799 0.9932 0.5674 1.419 0.3408 C1.8721 0.1133 2.3829 0 2.9502 0 C3.5459 0 4.0567 0.1133 4.5108 0.3408 C4.9649 0.5967 5.3057 0.9082 5.5606 1.334 C5.7871 1.7881 5.9014 2.2422 5.9014 2.7246 C5.9014 3.2637 5.7588 3.7461 5.5039 4.1719 C5.2491 4.5979 4.9082 4.9389 4.4541 5.1369 C4 5.3639 3.5176 5.4779 3.0362 5.4779 Z M3.0362 4.7109 C3.7168 4.7109 4.2559 4.5129 4.6241 4.1439 C5.0215 3.7744 5.2198 3.3203 5.2198 2.753 C5.2198 2.1573 5.0215 1.7032 4.6241 1.334 C4.2276 0.9649 3.6885 0.7666 2.9502 0.7666 C2.4971 0.7666 2.0996 0.8516 1.7588 0.9932 C1.419 1.1641 1.1631 1.3907 0.9649 1.7032 C0.7657 2.0157 0.6807 2.3555 0.6807 2.7246 C0.6807 3.2637 0.8516 3.7461 1.2198 4.1149 C1.5889 4.5129 2.1846 4.7109 3.0362 4.7109 Z" />
 </g>
 <g transform="translate(75.2939, 91.7646)" style="fill:#010101; fill-rule:evenodd; stroke:none; stroke-width:0.028375; stroke-linecap:butt; stroke-linejoin:miter; stroke-dasharray:none;" >
  <path d="M4.1709 0.6241 C4.1709 0.6241 3.5743 0.6241 3.5743 0.6241 C4.0284 0.9649 4.2559 1.3907 4.2559 1.9581 C4.2559 2.2139 4.1993 2.4405 4.1133 2.668 C4.0284 2.8663 3.9151 3.0362 3.7735 3.1504 C3.6319 3.2354 3.4327 3.3204 3.2344 3.3487 C3.0928 3.377 2.8653 3.4053 2.5821 3.4053 C2.5821 3.4053 0 3.4053 0 3.4053 C0 3.4053 0 2.6963 0 2.6963 C0 2.6963 2.3262 2.6963 2.3262 2.6963 C2.6954 2.6963 2.9219 2.668 3.0645 2.6397 C3.2344 2.6114 3.4043 2.5254 3.4893 2.3555 C3.6036 2.2139 3.6602 2.043 3.6602 1.8165 C3.6602 1.6172 3.6036 1.419 3.4893 1.2208 C3.376 1.0499 3.2344 0.9083 3.0645 0.8233 C2.8653 0.7383 2.5821 0.709 2.2413 0.709 C2.2413 0.709 0 0.709 0 0.709 C0 0.709 0 0 0 0 C0 0 4.1709 0 4.1709 0 C4.1709 0 4.1709 0.6241 4.1709 0.6241 Z" />
 </g>
 <g transform="translate(73.8467, 89.0684)" style="fill:#010101; fill-rule:evenodd; stroke:none; stroke-width:0.028375; stroke-linecap:butt; stroke-linejoin:miter; stroke-dasharray:none;" >
  <path d="M5.0215 0.0849 C5.0215 0.0849 5.6465 0 5.6465 0 C5.6748 0.1992 5.7031 0.3691 5.7031 0.539 C5.7031 0.7949 5.6748 0.9931 5.5888 1.1357 C5.5039 1.249 5.3906 1.3623 5.249 1.4189 C5.1357 1.4755 4.8515 1.5039 4.4258 1.5039 C4.4258 1.5039 1.9863 1.5039 1.9863 1.5039 C1.9863 1.5039 1.9863 2.0146 1.9863 2.0146 C1.9863 2.0146 1.4472 2.0146 1.4472 2.0146 C1.4472 2.0146 1.4472 1.5039 1.4472 1.5039 C1.4472 1.5039 0.4258 1.5039 0.4258 1.5039 C0.4258 1.5039 0 0.7949 0 0.7949 C0 0.7949 1.4472 0.7949 1.4472 0.7949 C1.4472 0.7949 1.4472 0.0849 1.4472 0.0849 C1.4472 0.0849 1.9863 0.0849 1.9863 0.0849 C1.9863 0.0849 1.9863 0.7949 1.9863 0.7949 C1.9863 0.7949 4.4541 0.7949 4.4541 0.7949 C4.6533 0.7949 4.7666 0.7949 4.8232 0.7666 C4.8799 0.7382 4.9365 0.6816 4.9648 0.624 C4.9931 0.5673 5.0215 0.5107 5.0215 0.3974 C5.0215 0.3125 5.0215 0.2275 5.0215 0.0849 Z" />
 </g>
 <g transform="translate(75.209, 84.8398)" style="fill:#010101; fill-rule:evenodd; stroke:none; stroke-width:0.028375; stroke-linecap:butt; stroke-linejoin:miter; stroke-dasharray:none;" >
  <path d="M5.8437 3.6045 C5.8437 3.6045 0.0849 3.6045 0.0849 3.6045 C0.0849 3.6045 0.0849 2.9512 0.0849 2.9512 C0.0849 2.9512 0.624 2.9512 0.624 2.9512 C0.4258 2.8096 0.2549 2.6397 0.1416 2.4405 C0.0566 2.2422 0 2.0147 0 1.7598 C0 1.3907 0.0849 1.0782 0.2832 0.8233 C0.4541 0.5391 0.709 0.3409 1.0498 0.1983 C1.3896 0.0567 1.7305 0 2.1279 0 C2.5527 0 2.9502 0.085 3.291 0.2276 C3.6308 0.3692 3.8867 0.5957 4.0566 0.8799 C4.2558 1.1924 4.3408 1.4756 4.3408 1.8165 C4.3408 2.043 4.2842 2.2422 4.1982 2.4405 C4.0849 2.6114 3.9717 2.7813 3.8301 2.8946 C3.8301 2.8946 5.8437 2.8946 5.8437 2.8946 C5.8437 2.8946 5.8437 3.6045 5.8437 3.6045 Z M2.1846 2.9795 C2.7236 2.9795 3.1201 2.8663 3.376 2.6397 C3.6308 2.4405 3.7734 2.1573 3.7734 1.8448 C3.7734 1.5323 3.6308 1.2774 3.376 1.0498 C3.1201 0.8233 2.6953 0.71 2.1279 0.71 C1.5889 0.71 1.1914 0.8233 0.9365 1.0498 C0.6806 1.2491 0.539 1.5323 0.539 1.8165 C0.539 2.129 0.6806 2.3838 0.9648 2.6397 C1.248 2.8663 1.6455 2.9795 2.1846 2.9795 Z" />
 </g>
 <g transform="translate(75.2939, 80.583)" style="fill:#010101; fill-rule:evenodd; stroke:none; stroke-width:0.028375; stroke-linecap:butt; stroke-linejoin:miter; stroke-dasharray:none;" >
  <path d="M4.1709 0.624 C4.1709 0.624 3.5743 0.624 3.5743 0.624 C4.0284 0.9649 4.2559 1.3906 4.2559 1.958 C4.2559 2.2139 4.1993 2.4404 4.1133 2.668 C4.0284 2.8662 3.9151 3.0361 3.7735 3.1504 C3.6319 3.2354 3.4327 3.3203 3.2344 3.3486 C3.0928 3.377 2.8653 3.4053 2.5821 3.4053 C2.5821 3.4053 0 3.4053 0 3.4053 C0 3.4053 0 2.6963 0 2.6963 C0 2.6963 2.3262 2.6963 2.3262 2.6963 C2.6954 2.6963 2.9219 2.668 3.0645 2.6397 C3.2344 2.6104 3.4043 2.5254 3.4893 2.3555 C3.6036 2.2139 3.6602 2.043 3.6602 1.8164 C3.6602 1.6172 3.6036 1.419 3.4893 1.2197 C3.376 1.0498 3.2344 0.9082 3.0645 0.8233 C2.8653 0.7373 2.5821 0.709 2.2413 0.709 C2.2413 0.709 0 0.709 0 0.709 C0 0.709 0 0 0 0 C0 0 4.1709 0 4.1709 0 C4.1709 0 4.1709 0.624 4.1709 0.624 Z" />
 </g>
 <g transform="translate(73.8467, 77.915)" style="fill:#010101; fill-rule:evenodd; stroke:none; stroke-width:0.028375; stroke-linecap:butt; stroke-linejoin:miter; stroke-dasharray:none;" >
  <path d="M5.0215 0.085 C5.0215 0.085 5.6465 0 5.6465 0 C5.6748 0.1993 5.7031 0.3692 5.7031 0.5391 C5.7031 0.795 5.6748 0.9932 5.5888 1.1358 C5.5039 1.2491 5.3906 1.3623 5.249 1.419 C5.1357 1.4756 4.8515 1.5039 4.4258 1.5039 C4.4258 1.5039 1.9863 1.5039 1.9863 1.5039 C1.9863 1.5039 1.9863 2.0147 1.9863 2.0147 C1.9863 2.0147 1.4472 2.0147 1.4472 2.0147 C1.4472 2.0147 1.4472 1.5039 1.4472 1.5039 C1.4472 1.5039 0.4258 1.5039 0.4258 1.5039 C0.4258 1.5039 0 0.795 0 0.795 C0 0.795 1.4472 0.795 1.4472 0.795 C1.4472 0.795 1.4472 0.085 1.4472 0.085 C1.4472 0.085 1.9863 0.085 1.9863 0.085 C1.9863 0.085 1.9863 0.795 1.9863 0.795 C1.9863 0.795 4.4541 0.795 4.4541 0.795 C4.6533 0.795 4.7666 0.795 4.8232 0.7666 C4.8799 0.7383 4.9365 0.6817 4.9648 0.6241 C4.9931 0.5674 5.0215 0.5108 5.0215 0.3975 C5.0215 0.3125 5.0215 0.2276 5.0215 0.085 Z" />
 </g>
 <g transform="translate(34.5264, 113.93)" style="fill:none; stroke:#010101; stroke-width:0.1; stroke-linecap:butt; stroke-linejoin:round; stroke-dasharray:1 1 1 1 ; stroke-dashoffset:0;" >
  <path d="M124.97 125.013 C124.97 125.013 0 0 0 0 " />
 </g>
 <g transform="translate(150.503, 169.157)" style="fill:none; stroke:#ff0101; stroke-width:0.1; stroke-linecap:butt; stroke-linejoin:miter; stroke-dasharray:none;" >
  <path d="M0 56.845 C0 56.845 56.853 0 56.853 0 " />
 </g>
 <g transform="translate(148.318, 224.952)" style="fill:#ff0101; fill-rule:evenodd; stroke:none; stroke-width:0.028375; stroke-linecap:butt; stroke-linejoin:miter; stroke-dasharray:none;" >
  <path d="M2.213 0 C2.213 0 3.235 1.022 3.235 1.022 C3.235 1.022 0 3.179 0 3.179 C0 3.179 2.213 0 2.213 0 Z" />
 </g>
 <g transform="translate(206.307, 167.028)" style="fill:#ff0101; fill-rule:evenodd; stroke:none; stroke-width:0.028375; stroke-linecap:butt; stroke-linejoin:miter; stroke-dasharray:none;" >
  <path d="M1.021 3.179 C1.021 3.179 0 2.158 0 2.158 C0 2.158 3.234 0 3.234 0 C3.234 0 1.021 3.179 1.021 3.179 Z" />
 </g>
 <g transform="translate(88.9111, 169.412)" style="fill:none; stroke:#ff0101; stroke-width:0.1; stroke-linecap:butt; stroke-linejoin:miter; stroke-dasharray:none;" >
  <path d="M56.7969 56.817 C56.7969 56.817 0 0 0 0 " />
 </g>
 <g transform="translate(144.658, 225.179)" style="fill:#ff0101; fill-rule:evenodd; stroke:none; stroke-width:0.028375; stroke-linecap:butt; stroke-linejoin:miter; stroke-dasharray:none;" >
  <path d="M0 1.021 C0 1.021 1.022 0 1.022 0 C1.022 0 3.178 3.235 3.178 3.235 C3.178 3.235 0 1.021 0 1.021 Z" />
 </g>
 <g transform="translate(86.7842, 167.227)" style="fill:#ff0101; fill-rule:evenodd; stroke:none; stroke-width:0.028375; stroke-linecap:butt; stroke-linejoin:miter; stroke-dasharray:none;" >
  <path d="M3.1767 2.213 C3.1767 2.213 2.1562 3.235 2.1562 3.235 C2.1562 3.235 0 0 0 0 C0 0 3.1767 2.213 3.1767 2.213 Z" />
 </g>
 <g transform="translate(114.501, 203.128)" style="fill:#ff0101; fill-rule:evenodd; stroke:none; stroke-width:0.028375; stroke-linecap:butt; stroke-linejoin:miter; stroke-dasharray:none;" >
  <path d="M0 4.172 C0 4.172 1.476 2.015 1.476 2.015 C1.476 2.015 0.086 0 0.086 0 C0.086 0 0.937 0 0.937 0 C0.937 0 1.617 0.993 1.617 0.993 C1.73 1.191 1.816 1.334 1.901 1.447 C2.015 1.277 2.128 1.106 2.213 0.993 C2.213 0.993 2.895 0 2.895 0 C2.895 0 3.745 0 3.745 0 C3.745 0 2.355 2.015 2.355 2.015 C2.355 2.015 3.83 4.172 3.83 4.172 C3.83 4.172 2.979 4.172 2.979 4.172 C2.979 4.172 2.128 2.894 2.128 2.894 C2.128 2.894 1.93 2.61 1.93 2.61 C1.93 2.61 0.852 4.172 0.852 4.172 C0.852 4.172 0 4.172 0 4.172 Z" />
 </g>
 <g transform="translate(118.785, 207.3)" style="fill:#ff0101; fill-rule:evenodd; stroke:none; stroke-width:0.028375; stroke-linecap:butt; stroke-linejoin:miter; stroke-dasharray:none;" >
  <path d="M1.22 3.348 C1.22 3.348 0.794 3.348 0.794 3.348 C0.794 3.348 0.794 0.737 0.794 0.737 C0.709 0.822 0.568 0.936 0.426 1.021 C0.255 1.106 0.113 1.191 0 1.22 C0 1.22 0 0.822 0 0.822 C0.227 0.737 0.426 0.596 0.596 0.454 C0.766 0.283 0.88 0.141 0.937 0 C0.937 0 1.22 0 1.22 0 C1.22 0 1.22 3.348 1.22 3.348 Z" />
 </g>
 <g transform="translate(183.753, 195.153)" style="fill:#ff0101; fill-rule:evenodd; stroke:none; stroke-width:0.028375; stroke-linecap:butt; stroke-linejoin:miter; stroke-dasharray:none;" >
  <path d="M0 4.172 C0 4.172 1.475 2.015 1.475 2.015 C1.475 2.015 0.085 0 0.085 0 C0.085 0 0.935 0 0.935 0 C0.935 0 1.616 0.993 1.616 0.993 C1.73 1.192 1.815 1.333 1.9 1.448 C2.014 1.277 2.127 1.107 2.213 0.993 C2.213 0.993 2.893 0 2.893 0 C2.893 0 3.744 0 3.744 0 C3.744 0 2.354 2.015 2.354 2.015 C2.354 2.015 3.829 4.172 3.829 4.172 C3.829 4.172 2.978 4.172 2.978 4.172 C2.978 4.172 2.127 2.895 2.127 2.895 C2.127 2.895 1.929 2.611 1.929 2.611 C1.929 2.611 0.851 4.172 0.851 4.172 C0.851 4.172 0 4.172 0 4.172 Z" />
 </g>
 <g transform="translate(188.036, 199.325)" style="fill:#ff0101; fill-rule:evenodd; stroke:none; stroke-width:0.028375; stroke-linecap:butt; stroke-linejoin:miter; stroke-dasharray:none;" >
  <path d="M1.22 3.349 C1.22 3.349 0.795 3.349 0.795 3.349 C0.795 3.349 0.795 0.738 0.795 0.738 C0.71 0.822 0.568 0.937 0.426 1.022 C0.256 1.107 0.113 1.192 0 1.22 C0 1.22 0 0.822 0 0.822 C0.228 0.738 0.426 0.596 0.596 0.454 C0.767 0.283 0.88 0.142 0.937 0 C0.937 0 1.22 0 1.22 0 C1.22 0 1.22 3.349 1.22 3.349 Z" />
 </g>
 <g transform="translate(211.526, 161.097)" style="fill:none; stroke:#ff0101; stroke-width:0.1; stroke-linecap:butt; stroke-linejoin:miter; stroke-dasharray:none;" >
  <path d="M0 4.115 C0 4.115 4.143 0 4.143 0 " />
 </g>
 <g transform="translate(209.342, 164.162)" style="fill:#ff0101; fill-rule:evenodd; stroke:none; stroke-width:0.028375; stroke-linecap:butt; stroke-linejoin:miter; stroke-dasharray:none;" >
  <path d="M2.241 0 C2.241 0 3.262 1.022 3.262 1.022 C3.262 1.022 0 3.179 0 3.179 C0 3.179 2.241 0 2.241 0 Z" />
 </g>
 <g transform="translate(214.591, 158.969)" style="fill:#ff0101; fill-rule:evenodd; stroke:none; stroke-width:0.028375; stroke-linecap:butt; stroke-linejoin:miter; stroke-dasharray:none;" >
  <path d="M1.021 3.178 C1.021 3.178 0 2.156 0 2.156 C0 2.156 3.263 0 3.263 0 C3.263 0 1.021 3.178 1.021 3.178 Z" />
 </g>
 <g transform="translate(214.108, 163.623)" style="fill:#ff0101; fill-rule:evenodd; stroke:none; stroke-width:0.028375; stroke-linecap:butt; stroke-linejoin:miter; stroke-dasharray:none;" >
  <path d="M0 4.172 C0 4.172 0 3.604 0 3.604 C0 3.604 2.639 0.511 2.639 0.511 C2.327 0.539 2.072 0.567 1.844 0.567 C1.844 0.567 0.17 0.567 0.17 0.567 C0.17 0.567 0.17 0 0.17 0 C0.17 0 3.575 0 3.575 0 C3.575 0 3.575 0.426 3.575 0.426 C3.575 0.426 1.277 3.121 1.277 3.121 C1.277 3.121 0.823 3.632 0.823 3.632 C1.135 3.604 1.448 3.575 1.731 3.575 C1.731 3.575 3.661 3.575 3.661 3.575 C3.661 3.575 3.661 4.172 3.661 4.172 C3.661 4.172 0 4.172 0 4.172 Z" />
 </g>
 <g transform="translate(218.421, 167.795)" style="fill:#ff0101; fill-rule:evenodd; stroke:none; stroke-width:0.028375; stroke-linecap:butt; stroke-linejoin:miter; stroke-dasharray:none;" >
  <path d="M1.22 3.349 C1.22 3.349 0.794 3.349 0.794 3.349 C0.794 3.349 0.794 0.737 0.794 0.737 C0.709 0.822 0.567 0.936 0.425 1.021 C0.255 1.106 0.113 1.191 0 1.22 C0 1.22 0 0.822 0 0.822 C0.226 0.737 0.425 0.596 0.596 0.454 C0.766 0.283 0.879 0.142 0.935 0 C0.935 0 1.22 0 1.22 0 C1.22 0 1.22 3.349 1.22 3.349 Z" />
 </g>
 <g transform="translate(207.726, 139.613)" style="fill:#018001; fill-rule:evenodd; stroke:none; stroke-width:0.028375; stroke-linecap:butt; stroke-linejoin:miter; stroke-dasharray:none;" >
  <path d="M4.567 5.165 C4.935 5.421 5.248 5.591 5.56 5.733 C5.56 5.733 5.304 6.243 5.304 6.243 C4.907 6.102 4.51 5.875 4.085 5.534 C3.659 5.789 3.205 5.904 2.694 5.904 C2.183 5.904 1.73 5.789 1.304 5.534 C0.878 5.279 0.567 4.939 0.339 4.485 C0.113 4.031 0 3.52 0 2.951 C0 2.384 0.113 1.873 0.339 1.419 C0.567 0.965 0.878 0.596 1.304 0.369 C1.73 0.114 2.183 0 2.722 0 C3.233 0 3.715 0.114 4.141 0.369 C4.539 0.624 4.878 0.965 5.078 1.419 C5.304 1.873 5.418 2.356 5.418 2.923 C5.418 3.406 5.361 3.803 5.219 4.2 C5.078 4.57 4.85 4.881 4.567 5.165 Z M2.921 4.2 C3.347 4.314 3.715 4.513 4 4.74 C4.424 4.342 4.652 3.746 4.652 2.951 C4.652 2.497 4.567 2.1 4.424 1.76 C4.254 1.419 4.028 1.163 3.744 0.965 C3.432 0.767 3.091 0.681 2.722 0.681 C2.155 0.681 1.702 0.88 1.333 1.249 C0.963 1.617 0.765 2.186 0.765 2.951 C0.765 3.69 0.935 4.257 1.304 4.626 C1.673 5.024 2.155 5.222 2.722 5.222 C2.978 5.222 3.233 5.165 3.489 5.08 C3.233 4.91 3.006 4.825 2.722 4.74 C2.722 4.74 2.921 4.2 2.921 4.2 Z" />
 </g>
 <g transform="translate(213.91, 146.282)" style="fill:#018001; fill-rule:evenodd; stroke:none; stroke-width:0.028375; stroke-linecap:butt; stroke-linejoin:miter; stroke-dasharray:none;" >
  <path d="M0 3.435 C0 3.435 0 0.057 0 0.057 C0 0.057 0.425 0.057 0.425 0.057 C0.425 0.057 0.425 0.369 0.425 0.369 C0.511 0.228 0.596 0.143 0.709 0.086 C0.822 0.029 0.964 0 1.107 0 C1.305 0 1.475 0.057 1.646 0.171 C1.787 0.256 1.901 0.426 1.986 0.625 C2.07 0.823 2.099 1.023 2.099 1.249 C2.099 1.505 2.042 1.732 1.957 1.93 C1.872 2.129 1.759 2.299 1.589 2.384 C1.418 2.498 1.248 2.555 1.05 2.555 C0.907 2.555 0.794 2.527 0.681 2.47 C0.596 2.413 0.483 2.327 0.425 2.242 C0.425 2.242 0.425 3.435 0.425 3.435 C0.425 3.435 0 3.435 0 3.435 Z M0.425 1.278 C0.425 1.59 0.483 1.845 0.596 1.988 C0.737 2.129 0.879 2.214 1.05 2.214 C1.22 2.214 1.361 2.129 1.475 1.988 C1.617 1.817 1.674 1.59 1.674 1.249 C1.674 0.937 1.617 0.71 1.503 0.54 C1.361 0.398 1.22 0.313 1.05 0.313 C0.879 0.313 0.737 0.398 0.624 0.569 C0.483 0.739 0.425 0.965 0.425 1.278 Z" />
 </g>
 <g transform="translate(95.0967, 168.986)" style="fill:#010101; fill-rule:evenodd; stroke:none; stroke-width:0.028375; stroke-linecap:butt; stroke-linejoin:miter; stroke-dasharray:none;" >
  <path d="M2.5244 5.734 C2.5244 5.734 2.5244 4.371 2.5244 4.371 C2.5244 4.371 0 4.371 0 4.371 C0 4.371 0 3.718 0 3.718 C0 3.718 2.666 0 2.666 0 C2.666 0 3.2334 0 3.2334 0 C3.2334 0 3.2334 3.718 3.2334 3.718 C3.2334 3.718 4 3.718 4 3.718 C4 3.718 4 4.371 4 4.371 C4 4.371 3.2334 4.371 3.2334 4.371 C3.2334 4.371 3.2334 5.734 3.2334 5.734 C3.2334 5.734 2.5244 5.734 2.5244 5.734 Z M2.5244 3.718 C2.5244 3.718 2.5244 1.164 2.5244 1.164 C2.5244 1.164 0.709 3.718 0.709 3.718 C0.709 3.718 2.5244 3.718 2.5244 3.718 Z" />
 </g>
 <g transform="translate(99.834, 169.071)" style="fill:#010101; fill-rule:evenodd; stroke:none; stroke-width:0.028375; stroke-linecap:butt; stroke-linejoin:miter; stroke-dasharray:none;" >
  <path d="M0 4.144 C0 4.144 0.709 4.087 0.709 4.087 C0.766 4.456 0.88 4.712 1.078 4.882 C1.276 5.08 1.532 5.166 1.815 5.166 C2.185 5.166 2.468 5.052 2.695 4.797 C2.922 4.541 3.036 4.2 3.036 3.776 C3.036 3.378 2.922 3.037 2.695 2.81 C2.468 2.583 2.185 2.47 1.787 2.47 C1.561 2.47 1.333 2.527 1.163 2.612 C0.993 2.725 0.852 2.839 0.737 3.009 C0.737 3.009 0.0849 2.924 0.0849 2.924 C0.0849 2.924 0.681 0 0.681 0 C0.681 0 3.461 0 3.461 0 C3.461 0 3.461 0.71 3.461 0.71 C3.461 0.71 1.22 0.71 1.22 0.71 C1.22 0.71 0.908 2.214 0.908 2.214 C1.248 1.959 1.617 1.845 1.986 1.845 C2.497 1.845 2.922 2.016 3.263 2.356 C3.604 2.697 3.773 3.151 3.773 3.69 C3.773 4.2 3.632 4.655 3.319 5.052 C2.95 5.506 2.468 5.734 1.815 5.734 C1.305 5.734 0.88 5.591 0.567 5.308 C0.227 4.995 0.0566 4.626 0 4.144 Z" />
 </g>
 <g transform="translate(104.09, 168.873)" style="fill:#010101; fill-rule:evenodd; stroke:none; stroke-width:0.028375; stroke-linecap:butt; stroke-linejoin:miter; stroke-dasharray:none;" >
  <path d="M0 1.277 C0 0.823 0.113 0.482 0.368 0.284 C0.567 0.085 0.794 0 1.106 0 C1.418 0 1.674 0.113 1.872 0.341 C2.07 0.539 2.184 0.852 2.184 1.249 C2.184 1.561 2.127 1.816 2.042 1.986 C1.957 2.157 1.815 2.299 1.645 2.412 C1.474 2.497 1.305 2.554 1.106 2.554 C0.765 2.554 0.511 2.44 0.311 2.214 C0.113 2.015 0 1.703 0 1.277 Z M0.425 1.277 C0.425 1.589 0.482 1.816 0.624 1.986 C0.737 2.129 0.907 2.214 1.106 2.214 C1.276 2.214 1.446 2.129 1.559 1.986 C1.702 1.816 1.759 1.589 1.759 1.249 C1.759 0.965 1.702 0.738 1.559 0.567 C1.446 0.426 1.276 0.341 1.106 0.341 C0.907 0.341 0.737 0.426 0.624 0.567 C0.482 0.738 0.425 0.965 0.425 1.277 Z" />
 </g>
</svg>
