<?xml version="1.0" encoding="UTF-8"?>
<svg width="315pt" xmlns:xlink="http://www.w3.org/1999/xlink" xmlns="http://www.w3.org/2000/svg" height="229pt" viewBox="0 0 315 229" >
 <g transform="translate(87.2686, 12.1777)" style="fill:none; stroke:#010101; stroke-width:0.1; stroke-linecap:butt; stroke-linejoin:round; stroke-dasharray:none;" >
  <path d="M0 214.022 C0 214.022 0 0 0 0 " />
 </g>
 <g transform="translate(0.0283203, 166.105)" style="fill:none; stroke:#010101; stroke-width:0.1; stroke-linecap:butt; stroke-linejoin:round; stroke-dasharray:none;" >
  <path d="M0 0 C0 0 303.468 0 303.468 0 " />
 </g>
 <g transform="translate(87.2686, 117.266)" style="fill:none; stroke:#0101ff; stroke-width:0.70825; stroke-linecap:butt; stroke-linejoin:round; stroke-dasharray:none;" >
  <path d="M0 49.575 C0 49.575 0 0 0 0 " />
 </g>
 <g transform="translate(87.3252, 117.096)" style="fill:none; stroke:#0101ff; stroke-width:0.70825; stroke-linecap:butt; stroke-linejoin:round; stroke-dasharray:none;" >
  <path d="M48.3028 0 C48.3028 0 0 0 0 0 " />
 </g>
 <g transform="translate(135.997, 68.0303)" style="fill:none; stroke:#0101ff; stroke-width:0.70825; stroke-linecap:butt; stroke-linejoin:round; stroke-dasharray:none;" >
  <path d="M0 49.5747 C0 49.5747 0 0 0 0 " />
 </g>
 <g transform="translate(135.515, 67.917)" style="fill:none; stroke:#0101ff; stroke-width:0.70825; stroke-linecap:butt; stroke-linejoin:round; stroke-dasharray:none;" >
  <path d="M49.778 0 C49.778 0 0 0 0 0 " />
 </g>
 <g transform="translate(185.293, 41.1924)" style="fill:none; stroke:#0101ff; stroke-width:0.70825; stroke-linecap:butt; stroke-linejoin:round; stroke-dasharray:none;" >
  <path d="M0 27.3467 C0 27.3467 0.057 0 0.057 0 " />
 </g>
 <g transform="translate(25.0596, 227.331)" style="fill:#ff0101; fill-rule:evenodd; stroke:none; stroke-width:0.70825; stroke-linecap:butt; stroke-linejoin:miter; stroke-dasharray:none;" >
  <path d="M0 1.019 C0 1.019 1.0215 0 1.0215 0 C1.0215 0 1.2773 0.255 1.2773 0.255 C1.2773 0.255 1.5322 0.51 1.5322 0.51 C1.5322 0.51 0.5107 1.527 0.5107 1.527 C0.5107 1.527 0.2558 1.273 0.2558 1.273 C0.2558 1.273 0 1.019 0 1.019 Z" />
 </g>
 <g transform="translate(27.1025, 225.295)" style="fill:#ff0101; fill-rule:evenodd; stroke:none; stroke-width:0.70825; stroke-linecap:butt; stroke-linejoin:miter; stroke-dasharray:none;" >
  <path d="M0 1.018 C0 1.018 1.0225 0 1.0225 0 C1.0225 0 1.2774 0.255 1.2774 0.255 C1.2774 0.255 1.5332 0.481 1.5332 0.481 C1.5332 0.481 0.5108 1.527 0.5108 1.527 C0.5108 1.527 0.2559 1.273 0.2559 1.273 C0.2559 1.273 0 1.018 0 1.018 Z" />
 </g>
 <g transform="translate(29.1465, 223.259)" style="fill:#ff0101; fill-rule:evenodd; stroke:none; stroke-width:0.70825; stroke-linecap:butt; stroke-linejoin:miter; stroke-dasharray:none;" >
  <path d="M0 1.018 C0 1.018 1.0215 0 1.0215 0 C1.0215 0 1.2773 0.226 1.2773 0.226 C1.2773 0.226 1.5322 0.481 1.5322 0.481 C1.5322 0.481 0.5107 1.499 0.5107 1.499 C0.5107 1.499 0.2549 1.245 0.2549 1.245 C0.2549 1.245 0 1.018 0 1.018 Z" />
 </g>
 <g transform="translate(31.1895, 221.194)" style="fill:#ff0101; fill-rule:evenodd; stroke:none; stroke-width:0.70825; stroke-linecap:butt; stroke-linejoin:miter; stroke-dasharray:none;" >
  <path d="M0 1.019 C0 1.019 1.0214 0 1.0214 0 C1.0214 0 1.2773 0.255 1.2773 0.255 C1.2773 0.255 1.5322 0.51 1.5322 0.51 C1.5322 0.51 0.5107 1.528 0.5107 1.528 C0.5107 1.528 0.2558 1.274 0.2558 1.274 C0.2558 1.274 0 1.019 0 1.019 Z" />
 </g>
 <g transform="translate(33.2334, 219.158)" style="fill:#ff0101; fill-rule:evenodd; stroke:none; stroke-width:0.70825; stroke-linecap:butt; stroke-linejoin:miter; stroke-dasharray:none;" >
  <path d="M0 1.019 C0 1.019 1.0215 0 1.0215 0 C1.0215 0 1.2764 0.255 1.2764 0.255 C1.2764 0.255 1.5322 0.51 1.5322 0.51 C1.5322 0.51 0.5107 1.528 0.5107 1.528 C0.5107 1.528 0.2549 1.274 0.2549 1.274 C0.2549 1.274 0 1.019 0 1.019 Z" />
 </g>
 <g transform="translate(35.2764, 217.122)" style="fill:#ff0101; fill-rule:evenodd; stroke:none; stroke-width:0.70825; stroke-linecap:butt; stroke-linejoin:miter; stroke-dasharray:none;" >
  <path d="M0 1.019 C0 1.019 1.0215 0 1.0215 0 C1.0215 0 1.2773 0.255 1.2773 0.255 C1.2773 0.255 1.5322 0.482 1.5322 0.482 C1.5322 0.482 0.5107 1.527 0.5107 1.527 C0.5107 1.527 0.2558 1.274 0.2558 1.274 C0.2558 1.274 0 1.019 0 1.019 Z" />
 </g>
 <g transform="translate(37.3193, 215.086)" style="fill:#ff0101; fill-rule:evenodd; stroke:none; stroke-width:0.70825; stroke-linecap:butt; stroke-linejoin:miter; stroke-dasharray:none;" >
  <path d="M0 1.018 C0 1.018 1.0225 0 1.0225 0 C1.0225 0 1.2774 0.227 1.2774 0.227 C1.2774 0.227 1.5332 0.481 1.5332 0.481 C1.5332 0.481 0.5108 1.499 0.5108 1.499 C0.5108 1.499 0.2559 1.245 0.2559 1.245 C0.2559 1.245 0 1.018 0 1.018 Z" />
 </g>
 <g transform="translate(39.3633, 213.021)" style="fill:#ff0101; fill-rule:evenodd; stroke:none; stroke-width:0.70825; stroke-linecap:butt; stroke-linejoin:miter; stroke-dasharray:none;" >
  <path d="M0 1.019 C0 1.019 1.0215 0 1.0215 0 C1.0215 0 1.2773 0.255 1.2773 0.255 C1.2773 0.255 1.5322 0.51 1.5322 0.51 C1.5322 0.51 0.5107 1.528 0.5107 1.528 C0.5107 1.528 0.2549 1.273 0.2549 1.273 C0.2549 1.273 0 1.019 0 1.019 Z" />
 </g>
 <g transform="translate(41.4063, 210.985)" style="fill:#ff0101; fill-rule:evenodd; stroke:none; stroke-width:0.70825; stroke-linecap:butt; stroke-linejoin:miter; stroke-dasharray:none;" >
  <path d="M0 1.019 C0 1.019 1.0214 0 1.0214 0 C1.0214 0 1.2773 0.255 1.2773 0.255 C1.2773 0.255 1.5322 0.51 1.5322 0.51 C1.5322 0.51 0.5107 1.528 0.5107 1.528 C0.5107 1.528 0.2558 1.273 0.2558 1.273 C0.2558 1.273 0 1.019 0 1.019 Z" />
 </g>
 <g transform="translate(43.4502, 208.949)" style="fill:#ff0101; fill-rule:evenodd; stroke:none; stroke-width:0.70825; stroke-linecap:butt; stroke-linejoin:miter; stroke-dasharray:none;" >
  <path d="M0 1.019 C0 1.019 1.0215 0 1.0215 0 C1.0215 0 1.2764 0.255 1.2764 0.255 C1.2764 0.255 1.5322 0.482 1.5322 0.482 C1.5322 0.482 0.5107 1.528 0.5107 1.528 C0.5107 1.528 0.2549 1.273 0.2549 1.273 C0.2549 1.273 0 1.019 0 1.019 Z" />
 </g>
 <g transform="translate(45.4932, 206.885)" style="fill:#ff0101; fill-rule:evenodd; stroke:none; stroke-width:0.70825; stroke-linecap:butt; stroke-linejoin:miter; stroke-dasharray:none;" >
  <path d="M0 1.047 C0 1.047 1.0214 0 1.0214 0 C1.0214 0 1.2773 0.255 1.2773 0.255 C1.2773 0.255 1.5322 0.51 1.5322 0.51 C1.5322 0.51 0.5107 1.527 0.5107 1.527 C0.5107 1.527 0.2558 1.272 0.2558 1.272 C0.2558 1.272 0 1.047 0 1.047 Z" />
 </g>
 <g transform="translate(47.5361, 204.849)" style="fill:#ff0101; fill-rule:evenodd; stroke:none; stroke-width:0.70825; stroke-linecap:butt; stroke-linejoin:miter; stroke-dasharray:none;" >
  <path d="M0 1.018 C0 1.018 1.0225 0 1.0225 0 C1.0225 0 1.2774 0.255 1.2774 0.255 C1.2774 0.255 1.5332 0.509 1.5332 0.509 C1.5332 0.509 0.5108 1.527 0.5108 1.527 C0.5108 1.527 0.2559 1.272 0.2559 1.272 C0.2559 1.272 0 1.018 0 1.018 Z" />
 </g>
 <g transform="translate(49.5801, 202.813)" style="fill:#ff0101; fill-rule:evenodd; stroke:none; stroke-width:0.70825; stroke-linecap:butt; stroke-linejoin:miter; stroke-dasharray:none;" >
  <path d="M0 1.018 C0 1.018 1.0215 0 1.0215 0 C1.0215 0 1.2773 0.254 1.2773 0.254 C1.2773 0.254 1.5322 0.509 1.5322 0.509 C1.5322 0.509 0.5107 1.527 0.5107 1.527 C0.5107 1.527 0.2549 1.272 0.2549 1.272 C0.2549 1.272 0 1.018 0 1.018 Z" />
 </g>
 <g transform="translate(51.623, 200.776)" style="fill:#ff0101; fill-rule:evenodd; stroke:none; stroke-width:0.70825; stroke-linecap:butt; stroke-linejoin:miter; stroke-dasharray:none;" >
  <path d="M0 1.019 C0 1.019 1.0215 0 1.0215 0 C1.0215 0 1.2774 0.255 1.2774 0.255 C1.2774 0.255 1.5323 0.482 1.5323 0.482 C1.5323 0.482 0.5108 1.528 0.5108 1.528 C0.5108 1.528 0.2559 1.273 0.2559 1.273 C0.2559 1.273 0 1.019 0 1.019 Z" />
 </g>
 <g transform="translate(53.667, 198.712)" style="fill:#ff0101; fill-rule:evenodd; stroke:none; stroke-width:0.70825; stroke-linecap:butt; stroke-linejoin:miter; stroke-dasharray:none;" >
  <path d="M0 1.047 C0 1.047 1.0215 0 1.0215 0 C1.0215 0 1.2764 0.255 1.2764 0.255 C1.2764 0.255 1.5322 0.509 1.5322 0.509 C1.5322 0.509 0.5107 1.527 0.5107 1.527 C0.5107 1.527 0.2549 1.272 0.2549 1.272 C0.2549 1.272 0 1.047 0 1.047 Z" />
 </g>
 <g transform="translate(55.71, 196.676)" style="fill:#ff0101; fill-rule:evenodd; stroke:none; stroke-width:0.70825; stroke-linecap:butt; stroke-linejoin:miter; stroke-dasharray:none;" >
  <path d="M0 1.018 C0 1.018 1.0214 0 1.0214 0 C1.0214 0 1.2773 0.255 1.2773 0.255 C1.2773 0.255 1.5322 0.509 1.5322 0.509 C1.5322 0.509 0.5107 1.527 0.5107 1.527 C0.5107 1.527 0.2558 1.272 0.2558 1.272 C0.2558 1.272 0 1.018 0 1.018 Z" />
 </g>
 <g transform="translate(57.7529, 194.64)" style="fill:#ff0101; fill-rule:evenodd; stroke:none; stroke-width:0.70825; stroke-linecap:butt; stroke-linejoin:miter; stroke-dasharray:none;" >
  <path d="M0 1.018 C0 1.018 1.0225 0 1.0225 0 C1.0225 0 1.2774 0.255 1.2774 0.255 C1.2774 0.255 1.5332 0.508 1.5332 0.508 C1.5332 0.508 0.5108 1.527 0.5108 1.527 C0.5108 1.527 0.2559 1.272 0.2559 1.272 C0.2559 1.272 0 1.018 0 1.018 Z" />
 </g>
 <g transform="translate(59.7969, 192.604)" style="fill:#ff0101; fill-rule:evenodd; stroke:none; stroke-width:0.70825; stroke-linecap:butt; stroke-linejoin:miter; stroke-dasharray:none;" >
  <path d="M0 1.018 C0 1.018 1.0215 0 1.0215 0 C1.0215 0 1.2773 0.254 1.2773 0.254 C1.2773 0.254 1.5322 0.48 1.5322 0.48 C1.5322 0.48 0.5107 1.499 0.5107 1.499 C0.5107 1.499 0.2549 1.272 0.2549 1.272 C0.2549 1.272 0 1.018 0 1.018 Z" />
 </g>
 <g transform="translate(61.8398, 190.539)" style="fill:#ff0101; fill-rule:evenodd; stroke:none; stroke-width:0.70825; stroke-linecap:butt; stroke-linejoin:miter; stroke-dasharray:none;" >
  <path d="M0 1.047 C0 1.047 1.0215 0 1.0215 0 C1.0215 0 1.2774 0.255 1.2774 0.255 C1.2774 0.255 1.5323 0.509 1.5323 0.509 C1.5323 0.509 0.5108 1.527 0.5108 1.527 C0.5108 1.527 0.2559 1.273 0.2559 1.273 C0.2559 1.273 0 1.047 0 1.047 Z" />
 </g>
 <g transform="translate(63.8838, 188.503)" style="fill:#ff0101; fill-rule:evenodd; stroke:none; stroke-width:0.70825; stroke-linecap:butt; stroke-linejoin:miter; stroke-dasharray:none;" >
  <path d="M0 1.018 C0 1.018 1.0215 0 1.0215 0 C1.0215 0 1.2764 0.255 1.2764 0.255 C1.2764 0.255 1.5322 0.509 1.5322 0.509 C1.5322 0.509 0.5107 1.527 0.5107 1.527 C0.5107 1.527 0.2549 1.272 0.2549 1.272 C0.2549 1.272 0 1.018 0 1.018 Z" />
 </g>
 <g transform="translate(65.9268, 186.467)" style="fill:#ff0101; fill-rule:evenodd; stroke:none; stroke-width:0.70825; stroke-linecap:butt; stroke-linejoin:miter; stroke-dasharray:none;" >
  <path d="M0 1.018 C0 1.018 1.0214 0 1.0214 0 C1.0214 0 1.2773 0.255 1.2773 0.255 C1.2773 0.255 1.5322 0.509 1.5322 0.509 C1.5322 0.509 0.5107 1.527 0.5107 1.527 C0.5107 1.527 0.2558 1.272 0.2558 1.272 C0.2558 1.272 0 1.018 0 1.018 Z" />
 </g>
 <g transform="translate(67.9697, 184.431)" style="fill:#ff0101; fill-rule:evenodd; stroke:none; stroke-width:0.70825; stroke-linecap:butt; stroke-linejoin:miter; stroke-dasharray:none;" >
  <path d="M0 1.018 C0 1.018 1.0225 0 1.0225 0 C1.0225 0 1.2774 0.255 1.2774 0.255 C1.2774 0.255 1.5332 0.48 1.5332 0.48 C1.5332 0.48 0.5108 1.499 0.5108 1.499 C0.5108 1.499 0.2559 1.272 0.2559 1.272 C0.2559 1.272 0 1.018 0 1.018 Z" />
 </g>
 <g transform="translate(70.0137, 182.366)" style="fill:#ff0101; fill-rule:evenodd; stroke:none; stroke-width:0.70825; stroke-linecap:butt; stroke-linejoin:miter; stroke-dasharray:none;" >
  <path d="M0 1.047 C0 1.047 1.0215 0 1.0215 0 C1.0215 0 1.2773 0.255 1.2773 0.255 C1.2773 0.255 1.5322 0.509 1.5322 0.509 C1.5322 0.509 0.5107 1.528 0.5107 1.528 C0.5107 1.528 0.2549 1.273 0.2549 1.273 C0.2549 1.273 0 1.047 0 1.047 Z" />
 </g>
 <g transform="translate(72.0566, 180.33)" style="fill:#ff0101; fill-rule:evenodd; stroke:none; stroke-width:0.70825; stroke-linecap:butt; stroke-linejoin:miter; stroke-dasharray:none;" >
  <path d="M0 1.019 C0 1.019 1.0215 0 1.0215 0 C1.0215 0 1.2774 0.255 1.2774 0.255 C1.2774 0.255 1.5323 0.509 1.5323 0.509 C1.5323 0.509 0.5108 1.527 0.5108 1.527 C0.5108 1.527 0.2559 1.273 0.2559 1.273 C0.2559 1.273 0 1.019 0 1.019 Z" />
 </g>
 <g transform="translate(74.1006, 178.294)" style="fill:#ff0101; fill-rule:evenodd; stroke:none; stroke-width:0.70825; stroke-linecap:butt; stroke-linejoin:miter; stroke-dasharray:none;" >
  <path d="M0 1.019 C0 1.019 1.0215 0 1.0215 0 C1.0215 0 1.2764 0.255 1.2764 0.255 C1.2764 0.255 1.5322 0.509 1.5322 0.509 C1.5322 0.509 0.5107 1.527 0.5107 1.527 C0.5107 1.527 0.2549 1.272 0.2549 1.272 C0.2549 1.272 0 1.019 0 1.019 Z" />
 </g>
 <g transform="translate(76.1436, 176.258)" style="fill:#ff0101; fill-rule:evenodd; stroke:none; stroke-width:0.70825; stroke-linecap:butt; stroke-linejoin:miter; stroke-dasharray:none;" >
  <path d="M0 1.018 C0 1.018 1.0214 0 1.0214 0 C1.0214 0 1.2773 0.226 1.2773 0.226 C1.2773 0.226 1.5322 0.48 1.5322 0.48 C1.5322 0.48 0.5107 1.499 0.5107 1.499 C0.5107 1.499 0.2558 1.272 0.2558 1.272 C0.2558 1.272 0 1.018 0 1.018 Z" />
 </g>
 <g transform="translate(78.1865, 174.193)" style="fill:#ff0101; fill-rule:evenodd; stroke:none; stroke-width:0.70825; stroke-linecap:butt; stroke-linejoin:miter; stroke-dasharray:none;" >
  <path d="M0 1.046 C0 1.046 1.0225 0 1.0225 0 C1.0225 0 1.2774 0.255 1.2774 0.255 C1.2774 0.255 1.5332 0.509 1.5332 0.509 C1.5332 0.509 0.5108 1.528 0.5108 1.528 C0.5108 1.528 0.2559 1.273 0.2559 1.273 C0.2559 1.273 0 1.046 0 1.046 Z" />
 </g>
 <g transform="translate(80.2305, 172.157)" style="fill:#ff0101; fill-rule:evenodd; stroke:none; stroke-width:0.70825; stroke-linecap:butt; stroke-linejoin:miter; stroke-dasharray:none;" >
  <path d="M0 1.019 C0 1.019 1.0215 0 1.0215 0 C1.0215 0 1.2773 0.255 1.2773 0.255 C1.2773 0.255 1.5322 0.509 1.5322 0.509 C1.5322 0.509 0.5107 1.528 0.5107 1.528 C0.5107 1.528 0.2549 1.273 0.2549 1.273 C0.2549 1.273 0 1.019 0 1.019 Z" />
 </g>
 <g transform="translate(82.2734, 170.121)" style="fill:#ff0101; fill-rule:evenodd; stroke:none; stroke-width:0.70825; stroke-linecap:butt; stroke-linejoin:miter; stroke-dasharray:none;" >
  <path d="M0 1.018 C0 1.018 1.0215 0 1.0215 0 C1.0215 0 1.2774 0.255 1.2774 0.255 C1.2774 0.255 1.5323 0.509 1.5323 0.509 C1.5323 0.509 0.5108 1.527 0.5108 1.527 C0.5108 1.527 0.2559 1.273 0.2559 1.273 C0.2559 1.273 0 1.018 0 1.018 Z" />
 </g>
 <g transform="translate(84.3174, 168.085)" style="fill:#ff0101; fill-rule:evenodd; stroke:none; stroke-width:0.70825; stroke-linecap:butt; stroke-linejoin:miter; stroke-dasharray:none;" >
  <path d="M0 1.018 C0 1.018 1.0215 0 1.0215 0 C1.0215 0 1.2764 0.227 1.2764 0.227 C1.2764 0.227 1.5322 0.48 1.5322 0.48 C1.5322 0.48 0.5107 1.499 0.5107 1.499 C0.5107 1.499 0.2549 1.272 0.2549 1.272 C0.2549 1.272 0 1.018 0 1.018 Z" />
 </g>
 <g transform="translate(86.3604, 166.021)" style="fill:#ff0101; fill-rule:evenodd; stroke:none; stroke-width:0.70825; stroke-linecap:butt; stroke-linejoin:miter; stroke-dasharray:none;" >
  <path d="M0 1.045 C0 1.045 1.0214 0 1.0214 0 C1.0214 0 1.2773 0.254 1.2773 0.254 C1.2773 0.254 1.5322 0.508 1.5322 0.508 C1.5322 0.508 0.5107 1.527 0.5107 1.527 C0.5107 1.527 0.2558 1.272 0.2558 1.272 C0.2558 1.272 0 1.045 0 1.045 Z" />
 </g>
 <g transform="translate(88.4033, 163.984)" style="fill:#ff0101; fill-rule:evenodd; stroke:none; stroke-width:0.70825; stroke-linecap:butt; stroke-linejoin:miter; stroke-dasharray:none;" >
  <path d="M0 1.018 C0 1.018 1.0225 0 1.0225 0 C1.0225 0 1.2774 0.255 1.2774 0.255 C1.2774 0.255 1.5332 0.509 1.5332 0.509 C1.5332 0.509 0.5108 1.528 0.5108 1.528 C0.5108 1.528 0.2559 1.273 0.2559 1.273 C0.2559 1.273 0 1.018 0 1.018 Z" />
 </g>
 <g transform="translate(90.4473, 161.948)" style="fill:#ff0101; fill-rule:evenodd; stroke:none; stroke-width:0.70825; stroke-linecap:butt; stroke-linejoin:miter; stroke-dasharray:none;" >
  <path d="M0 1.018 C0 1.018 1.0215 0 1.0215 0 C1.0215 0 1.2773 0.255 1.2773 0.255 C1.2773 0.255 1.5322 0.509 1.5322 0.509 C1.5322 0.509 0.5107 1.528 0.5107 1.528 C0.5107 1.528 0.2548 1.273 0.2548 1.273 C0.2548 1.273 0 1.018 0 1.018 Z" />
 </g>
 <g transform="translate(92.4902, 159.912)" style="fill:#ff0101; fill-rule:evenodd; stroke:none; stroke-width:0.70825; stroke-linecap:butt; stroke-linejoin:miter; stroke-dasharray:none;" >
  <path d="M0 1.018 C0 1.018 1.0215 0 1.0215 0 C1.0215 0 1.2774 0.227 1.2774 0.227 C1.2774 0.227 1.5323 0.481 1.5323 0.481 C1.5323 0.481 0.5108 1.499 0.5108 1.499 C0.5108 1.499 0.2559 1.273 0.2559 1.273 C0.2559 1.273 0 1.018 0 1.018 Z" />
 </g>
 <g transform="translate(94.5342, 157.848)" style="fill:#ff0101; fill-rule:evenodd; stroke:none; stroke-width:0.70825; stroke-linecap:butt; stroke-linejoin:miter; stroke-dasharray:none;" >
  <path d="M0 1.046 C0 1.046 1.0215 0 1.0215 0 C1.0215 0 1.2763 0.255 1.2763 0.255 C1.2763 0.255 1.5322 0.508 1.5322 0.508 C1.5322 0.508 0.5107 1.527 0.5107 1.527 C0.5107 1.527 0.2549 1.272 0.2549 1.272 C0.2549 1.272 0 1.046 0 1.046 Z" />
 </g>
 <g transform="translate(96.5771, 155.812)" style="fill:#ff0101; fill-rule:evenodd; stroke:none; stroke-width:0.70825; stroke-linecap:butt; stroke-linejoin:miter; stroke-dasharray:none;" >
  <path d="M0 1.017 C0 1.017 1.0215 0 1.0215 0 C1.0215 0 1.2774 0.253 1.2774 0.253 C1.2774 0.253 1.5323 0.508 1.5323 0.508 C1.5323 0.508 0.5108 1.527 0.5108 1.527 C0.5108 1.527 0.2559 1.272 0.2559 1.272 C0.2559 1.272 0 1.017 0 1.017 Z" />
 </g>
 <g transform="translate(98.6201, 153.775)" style="fill:#ff0101; fill-rule:evenodd; stroke:none; stroke-width:0.70825; stroke-linecap:butt; stroke-linejoin:miter; stroke-dasharray:none;" >
  <path d="M0 1.018 C0 1.018 1.0225 0 1.0225 0 C1.0225 0 1.2774 0.254 1.2774 0.254 C1.2774 0.254 1.5329 0.509 1.5329 0.509 C1.5329 0.509 0.5108 1.528 0.5108 1.528 C0.5108 1.528 0.2559 1.273 0.2559 1.273 C0.2559 1.273 0 1.018 0 1.018 Z" />
 </g>
 <g transform="translate(100.664, 151.739)" style="fill:#ff0101; fill-rule:evenodd; stroke:none; stroke-width:0.70825; stroke-linecap:butt; stroke-linejoin:miter; stroke-dasharray:none;" >
  <path d="M0 1.018 C0 1.018 1.022 0 1.022 0 C1.022 0 1.277 0.226 1.277 0.226 C1.277 0.226 1.532 0.481 1.532 0.481 C1.532 0.481 0.511 1.499 0.511 1.499 C0.511 1.499 0.255 1.273 0.255 1.273 C0.255 1.273 0 1.018 0 1.018 Z" />
 </g>
 <g transform="translate(102.707, 149.675)" style="fill:#ff0101; fill-rule:evenodd; stroke:none; stroke-width:0.70825; stroke-linecap:butt; stroke-linejoin:miter; stroke-dasharray:none;" >
  <path d="M0 1.017 C0 1.017 1.022 0 1.022 0 C1.022 0 1.277 0.254 1.277 0.254 C1.277 0.254 1.532 0.509 1.532 0.509 C1.532 0.509 0.511 1.527 0.511 1.527 C0.511 1.527 0.256 1.272 0.256 1.272 C0.256 1.272 0 1.017 0 1.017 Z" />
 </g>
 <g transform="translate(104.751, 147.639)" style="fill:#ff0101; fill-rule:evenodd; stroke:none; stroke-width:0.70825; stroke-linecap:butt; stroke-linejoin:miter; stroke-dasharray:none;" >
  <path d="M0 1.017 C0 1.017 1.021 0 1.021 0 C1.021 0 1.276 0.254 1.276 0.254 C1.276 0.254 1.532 0.508 1.532 0.508 C1.532 0.508 0.511 1.527 0.511 1.527 C0.511 1.527 0.255 1.272 0.255 1.272 C0.255 1.272 0 1.017 0 1.017 Z" />
 </g>
 <g transform="translate(106.794, 145.603)" style="fill:#ff0101; fill-rule:evenodd; stroke:none; stroke-width:0.70825; stroke-linecap:butt; stroke-linejoin:miter; stroke-dasharray:none;" >
  <path d="M0 1.017 C0 1.017 1.021 0 1.021 0 C1.021 0 1.277 0.253 1.277 0.253 C1.277 0.253 1.532 0.48 1.532 0.48 C1.532 0.48 0.511 1.527 0.511 1.527 C0.511 1.527 0.256 1.272 0.256 1.272 C0.256 1.272 0 1.017 0 1.017 Z" />
 </g>
 <g transform="translate(108.837, 143.566)" style="fill:#ff0101; fill-rule:evenodd; stroke:none; stroke-width:0.70825; stroke-linecap:butt; stroke-linejoin:miter; stroke-dasharray:none;" >
  <path d="M0 1.018 C0 1.018 1.022 0 1.022 0 C1.022 0 1.277 0.226 1.277 0.226 C1.277 0.226 1.533 0.481 1.533 0.481 C1.533 0.481 0.511 1.499 0.511 1.499 C0.511 1.499 0.256 1.273 0.256 1.273 C0.256 1.273 0 1.018 0 1.018 Z" />
 </g>
 <g transform="translate(110.881, 141.502)" style="fill:#ff0101; fill-rule:evenodd; stroke:none; stroke-width:0.70825; stroke-linecap:butt; stroke-linejoin:miter; stroke-dasharray:none;" >
  <path d="M0 1.018 C0 1.018 1.021 0 1.021 0 C1.021 0 1.277 0.254 1.277 0.254 C1.277 0.254 1.532 0.509 1.532 0.509 C1.532 0.509 0.511 1.527 0.511 1.527 C0.511 1.527 0.255 1.272 0.255 1.272 C0.255 1.272 0 1.018 0 1.018 Z" />
 </g>
 <g transform="translate(112.924, 139.466)" style="fill:#ff0101; fill-rule:evenodd; stroke:none; stroke-width:0.70825; stroke-linecap:butt; stroke-linejoin:miter; stroke-dasharray:none;" >
  <path d="M0 1.017 C0 1.017 1.021 0 1.021 0 C1.021 0 1.277 0.254 1.277 0.254 C1.277 0.254 1.533 0.509 1.533 0.509 C1.533 0.509 0.511 1.526 0.511 1.526 C0.511 1.526 0.256 1.272 0.256 1.272 C0.256 1.272 0 1.017 0 1.017 Z" />
 </g>
 <g transform="translate(114.968, 137.43)" style="fill:#ff0101; fill-rule:evenodd; stroke:none; stroke-width:0.70825; stroke-linecap:butt; stroke-linejoin:miter; stroke-dasharray:none;" >
  <path d="M0 1.017 C0 1.017 1.021 0 1.021 0 C1.021 0 1.276 0.254 1.276 0.254 C1.276 0.254 1.532 0.48 1.532 0.48 C1.532 0.48 0.511 1.526 0.511 1.526 C0.511 1.526 0.255 1.272 0.255 1.272 C0.255 1.272 0 1.017 0 1.017 Z" />
 </g>
 <g transform="translate(117.011, 135.394)" style="fill:#ff0101; fill-rule:evenodd; stroke:none; stroke-width:0.70825; stroke-linecap:butt; stroke-linejoin:miter; stroke-dasharray:none;" >
  <path d="M0 1.017 C0 1.017 1.021 0 1.021 0 C1.021 0 1.277 0.225 1.277 0.225 C1.277 0.225 1.532 0.48 1.532 0.48 C1.532 0.48 0.51 1.498 0.51 1.498 C0.51 1.498 0.256 1.272 0.256 1.272 C0.256 1.272 0 1.017 0 1.017 Z" />
 </g>
 <g transform="translate(119.054, 133.329)" style="fill:#ff0101; fill-rule:evenodd; stroke:none; stroke-width:0.70825; stroke-linecap:butt; stroke-linejoin:miter; stroke-dasharray:none;" >
  <path d="M0 1.018 C0 1.018 1.022 0 1.022 0 C1.022 0 1.277 0.254 1.277 0.254 C1.277 0.254 1.533 0.509 1.533 0.509 C1.533 0.509 0.511 1.526 0.511 1.526 C0.511 1.526 0.256 1.273 0.256 1.273 C0.256 1.273 0 1.018 0 1.018 Z" />
 </g>
 <g transform="translate(121.098, 131.293)" style="fill:#ff0101; fill-rule:evenodd; stroke:none; stroke-width:0.70825; stroke-linecap:butt; stroke-linejoin:miter; stroke-dasharray:none;" >
  <path d="M0 1.018 C0 1.018 1.021 0 1.021 0 C1.021 0 1.277 0.254 1.277 0.254 C1.277 0.254 1.532 0.509 1.532 0.509 C1.532 0.509 0.51 1.526 0.51 1.526 C0.51 1.526 0.255 1.272 0.255 1.272 C0.255 1.272 0 1.018 0 1.018 Z" />
 </g>
 <g transform="translate(123.141, 129.257)" style="fill:#ff0101; fill-rule:evenodd; stroke:none; stroke-width:0.70825; stroke-linecap:butt; stroke-linejoin:miter; stroke-dasharray:none;" >
  <path d="M0 1.017 C0 1.017 1.021 0 1.021 0 C1.021 0 1.277 0.254 1.277 0.254 C1.277 0.254 1.533 0.48 1.533 0.48 C1.533 0.48 0.51 1.526 0.51 1.526 C0.51 1.526 0.255 1.272 0.255 1.272 C0.255 1.272 0 1.017 0 1.017 Z" />
 </g>
 <g transform="translate(125.185, 127.221)" style="fill:#ff0101; fill-rule:evenodd; stroke:none; stroke-width:0.70825; stroke-linecap:butt; stroke-linejoin:miter; stroke-dasharray:none;" >
  <path d="M0 1.017 C0 1.017 1.021 0 1.021 0 C1.021 0 1.276 0.225 1.276 0.225 C1.276 0.225 1.532 0.48 1.532 0.48 C1.532 0.48 0.51 1.498 0.51 1.498 C0.51 1.498 0.254 1.272 0.254 1.272 C0.254 1.272 0 1.017 0 1.017 Z" />
 </g>
 <g transform="translate(127.228, 125.156)" style="fill:#ff0101; fill-rule:evenodd; stroke:none; stroke-width:0.70825; stroke-linecap:butt; stroke-linejoin:miter; stroke-dasharray:none;" >
  <path d="M0 1.018 C0 1.018 1.021 0 1.021 0 C1.021 0 1.277 0.254 1.277 0.254 C1.277 0.254 1.532 0.509 1.532 0.509 C1.532 0.509 0.51 1.527 0.51 1.527 C0.51 1.527 0.255 1.273 0.255 1.273 C0.255 1.273 0 1.018 0 1.018 Z" />
 </g>
 <g transform="translate(129.271, 123.12)" style="fill:#ff0101; fill-rule:evenodd; stroke:none; stroke-width:0.70825; stroke-linecap:butt; stroke-linejoin:miter; stroke-dasharray:none;" >
  <path d="M0 1.018 C0 1.018 1.022 0 1.022 0 C1.022 0 1.277 0.254 1.277 0.254 C1.277 0.254 1.533 0.509 1.533 0.509 C1.533 0.509 0.511 1.526 0.511 1.526 C0.511 1.526 0.255 1.273 0.255 1.273 C0.255 1.273 0 1.018 0 1.018 Z" />
 </g>
 <g transform="translate(131.314, 121.084)" style="fill:#ff0101; fill-rule:evenodd; stroke:none; stroke-width:0.70825; stroke-linecap:butt; stroke-linejoin:miter; stroke-dasharray:none;" >
  <path d="M0 1.018 C0 1.018 1.022 0 1.022 0 C1.022 0 1.278 0.254 1.278 0.254 C1.278 0.254 1.533 0.48 1.533 0.48 C1.533 0.48 0.511 1.526 0.511 1.526 C0.511 1.526 0.255 1.272 0.255 1.272 C0.255 1.272 0 1.018 0 1.018 Z" />
 </g>
 <g transform="translate(133.357, 119.048)" style="fill:#ff0101; fill-rule:evenodd; stroke:none; stroke-width:0.70825; stroke-linecap:butt; stroke-linejoin:miter; stroke-dasharray:none;" >
  <path d="M0 1.017 C0 1.017 1.022 0 1.022 0 C1.022 0 1.278 0.225 1.278 0.225 C1.278 0.225 1.534 0.48 1.534 0.48 C1.534 0.48 0.511 1.498 0.511 1.498 C0.511 1.498 0.256 1.244 0.256 1.244 C0.256 1.244 0 1.017 0 1.017 Z" />
 </g>
 <g transform="translate(135.401, 116.983)" style="fill:#ff0101; fill-rule:evenodd; stroke:none; stroke-width:0.70825; stroke-linecap:butt; stroke-linejoin:miter; stroke-dasharray:none;" >
  <path d="M0 1.018 C0 1.018 1.022 0 1.022 0 C1.022 0 1.277 0.254 1.277 0.254 C1.277 0.254 1.533 0.509 1.533 0.509 C1.533 0.509 0.511 1.527 0.511 1.527 C0.511 1.527 0.255 1.273 0.255 1.273 C0.255 1.273 0 1.018 0 1.018 Z" />
 </g>
 <g transform="translate(137.444, 114.947)" style="fill:#ff0101; fill-rule:evenodd; stroke:none; stroke-width:0.70825; stroke-linecap:butt; stroke-linejoin:miter; stroke-dasharray:none;" >
  <path d="M0 1.018 C0 1.018 1.022 0 1.022 0 C1.022 0 1.278 0.254 1.278 0.254 C1.278 0.254 1.533 0.509 1.533 0.509 C1.533 0.509 0.511 1.527 0.511 1.527 C0.511 1.527 0.256 1.273 0.256 1.273 C0.256 1.273 0 1.018 0 1.018 Z" />
 </g>
 <g transform="translate(139.487, 112.91)" style="fill:#ff0101; fill-rule:evenodd; stroke:none; stroke-width:0.70825; stroke-linecap:butt; stroke-linejoin:miter; stroke-dasharray:none;" >
  <path d="M0 1.019 C0 1.019 1.023 0 1.023 0 C1.023 0 1.278 0.255 1.278 0.255 C1.278 0.255 1.534 0.482 1.534 0.482 C1.534 0.482 0.512 1.528 0.512 1.528 C0.512 1.528 0.256 1.274 0.256 1.274 C0.256 1.274 0 1.019 0 1.019 Z" />
 </g>
 <g transform="translate(141.531, 110.874)" style="fill:#ff0101; fill-rule:evenodd; stroke:none; stroke-width:0.70825; stroke-linecap:butt; stroke-linejoin:miter; stroke-dasharray:none;" >
  <path d="M0 1.019 C0 1.019 1.022 0 1.022 0 C1.022 0 1.278 0.227 1.278 0.227 C1.278 0.227 1.532 0.481 1.532 0.481 C1.532 0.481 0.511 1.499 0.511 1.499 C0.511 1.499 0.255 1.245 0.255 1.245 C0.255 1.245 0 1.019 0 1.019 Z" />
 </g>
 <g transform="translate(143.574, 108.81)" style="fill:#ff0101; fill-rule:evenodd; stroke:none; stroke-width:0.70825; stroke-linecap:butt; stroke-linejoin:miter; stroke-dasharray:none;" >
  <path d="M0 1.018 C0 1.018 1.022 0 1.022 0 C1.022 0 1.278 0.254 1.278 0.254 C1.278 0.254 1.533 0.509 1.533 0.509 C1.533 0.509 0.511 1.527 0.511 1.527 C0.511 1.527 0.256 1.273 0.256 1.273 C0.256 1.273 0 1.018 0 1.018 Z" />
 </g>
 <g transform="translate(145.618, 106.773)" style="fill:#ff0101; fill-rule:evenodd; stroke:none; stroke-width:0.70825; stroke-linecap:butt; stroke-linejoin:miter; stroke-dasharray:none;" >
  <path d="M0 1.019 C0 1.019 1.022 0 1.022 0 C1.022 0 1.277 0.255 1.277 0.255 C1.277 0.255 1.532 0.51 1.532 0.51 C1.532 0.51 0.511 1.528 0.511 1.528 C0.511 1.528 0.255 1.274 0.255 1.274 C0.255 1.274 0 1.019 0 1.019 Z" />
 </g>
 <g transform="translate(147.661, 104.737)" style="fill:#ff0101; fill-rule:evenodd; stroke:none; stroke-width:0.70825; stroke-linecap:butt; stroke-linejoin:miter; stroke-dasharray:none;" >
  <path d="M0 1.019 C0 1.019 1.022 0 1.022 0 C1.022 0 1.277 0.255 1.277 0.255 C1.277 0.255 1.532 0.482 1.532 0.482 C1.532 0.482 0.511 1.528 0.511 1.528 C0.511 1.528 0.256 1.274 0.256 1.274 C0.256 1.274 0 1.019 0 1.019 Z" />
 </g>
 <g transform="translate(149.704, 102.673)" style="fill:#ff0101; fill-rule:evenodd; stroke:none; stroke-width:0.70825; stroke-linecap:butt; stroke-linejoin:miter; stroke-dasharray:none;" >
  <path d="M0 1.047 C0 1.047 1.023 0 1.023 0 C1.023 0 1.277 0.255 1.277 0.255 C1.277 0.255 1.533 0.51 1.533 0.51 C1.533 0.51 0.512 1.527 0.512 1.527 C0.512 1.527 0.256 1.273 0.256 1.273 C0.256 1.273 0 1.047 0 1.047 Z" />
 </g>
 <g transform="translate(151.748, 100.637)" style="fill:#ff0101; fill-rule:evenodd; stroke:none; stroke-width:0.70825; stroke-linecap:butt; stroke-linejoin:miter; stroke-dasharray:none;" >
  <path d="M0 1.018 C0 1.018 1.022 0 1.022 0 C1.022 0 1.277 0.255 1.277 0.255 C1.277 0.255 1.532 0.509 1.532 0.509 C1.532 0.509 0.511 1.527 0.511 1.527 C0.511 1.527 0.255 1.273 0.255 1.273 C0.255 1.273 0 1.018 0 1.018 Z" />
 </g>
 <g transform="translate(153.791, 98.6006)" style="fill:#ff0101; fill-rule:evenodd; stroke:none; stroke-width:0.70825; stroke-linecap:butt; stroke-linejoin:miter; stroke-dasharray:none;" >
  <path d="M0 1.0185 C0 1.0185 1.022 0 1.022 0 C1.022 0 1.277 0.2549 1.277 0.2549 C1.277 0.2549 1.533 0.5098 1.533 0.5098 C1.533 0.5098 0.511 1.5274 0.511 1.5274 C0.511 1.5274 0.256 1.2734 0.256 1.2734 C0.256 1.2734 0 1.0185 0 1.0185 Z" />
 </g>
 <g transform="translate(155.835, 96.5645)" style="fill:#ff0101; fill-rule:evenodd; stroke:none; stroke-width:0.70825; stroke-linecap:butt; stroke-linejoin:miter; stroke-dasharray:none;" >
  <path d="M0 1.0185 C0 1.0185 1.021 0 1.021 0 C1.021 0 1.276 0.2548 1.276 0.2548 C1.276 0.2548 1.532 0.4814 1.532 0.4814 C1.532 0.4814 0.511 1.5273 0.511 1.5273 C0.511 1.5273 0.255 1.2724 0.255 1.2724 C0.255 1.2724 0 1.0185 0 1.0185 Z" />
 </g>
 <g transform="translate(157.878, 94.5)" style="fill:#ff0101; fill-rule:evenodd; stroke:none; stroke-width:0.70825; stroke-linecap:butt; stroke-linejoin:miter; stroke-dasharray:none;" >
  <path d="M0 1.0469 C0 1.0469 1.021 0 1.021 0 C1.021 0 1.277 0.2549 1.277 0.2549 C1.277 0.2549 1.504 0.5098 1.504 0.5098 C1.504 0.5098 0.511 1.5273 0.511 1.5273 C0.511 1.5273 0.256 1.2725 0.256 1.2725 C0.256 1.2725 0 1.0469 0 1.0469 Z" />
 </g>
 <g transform="translate(159.921, 92.4639)" style="fill:#ff0101; fill-rule:evenodd; stroke:none; stroke-width:0.70825; stroke-linecap:butt; stroke-linejoin:miter; stroke-dasharray:none;" >
  <path d="M0 1.0185 C0 1.0185 1.022 0 1.022 0 C1.022 0 1.277 0.2549 1.277 0.2549 C1.277 0.2549 1.505 0.5097 1.505 0.5097 C1.505 0.5097 0.482 1.5273 0.482 1.5273 C0.482 1.5273 0.256 1.2724 0.256 1.2724 C0.256 1.2724 0 1.0185 0 1.0185 Z" />
 </g>
 <g transform="translate(161.965, 90.4277)" style="fill:#ff0101; fill-rule:evenodd; stroke:none; stroke-width:0.70825; stroke-linecap:butt; stroke-linejoin:miter; stroke-dasharray:none;" >
  <path d="M0 1.0186 C0 1.0186 1.021 0 1.021 0 C1.021 0 1.277 0.2549 1.277 0.2549 C1.277 0.2549 1.504 0.5098 1.504 0.5098 C1.504 0.5098 0.482 1.5274 0.482 1.5274 C0.482 1.5274 0.255 1.2725 0.255 1.2725 C0.255 1.2725 0 1.0186 0 1.0186 Z" />
 </g>
 <g transform="translate(164.008, 88.3916)" style="fill:#ff0101; fill-rule:evenodd; stroke:none; stroke-width:0.70825; stroke-linecap:butt; stroke-linejoin:miter; stroke-dasharray:none;" >
  <path d="M0 1.0186 C0 1.0186 1.021 0 1.021 0 C1.021 0 1.277 0.2549 1.277 0.2549 C1.277 0.2549 1.504 0.4814 1.504 0.4814 C1.504 0.4814 0.482 1.499 0.482 1.499 C0.482 1.499 0.256 1.2725 0.256 1.2725 C0.256 1.2725 0 1.0186 0 1.0186 Z" />
 </g>
 <g transform="translate(166.052, 86.3271)" style="fill:#ff0101; fill-rule:evenodd; stroke:none; stroke-width:0.70825; stroke-linecap:butt; stroke-linejoin:miter; stroke-dasharray:none;" >
  <path d="M0 1.0469 C0 1.0469 1.021 0 1.021 0 C1.021 0 1.276 0.2549 1.276 0.2549 C1.276 0.2549 1.504 0.5098 1.504 0.5098 C1.504 0.5098 0.482 1.5274 0.482 1.5274 C0.482 1.5274 0.255 1.2725 0.255 1.2725 C0.255 1.2725 0 1.0469 0 1.0469 Z" />
 </g>
 <g transform="translate(168.095, 84.291)" style="fill:#ff0101; fill-rule:evenodd; stroke:none; stroke-width:0.70825; stroke-linecap:butt; stroke-linejoin:miter; stroke-dasharray:none;" >
  <path d="M0 1.0186 C0 1.0186 1.021 0 1.021 0 C1.021 0 1.277 0.2549 1.277 0.2549 C1.277 0.2549 1.504 0.5098 1.504 0.5098 C1.504 0.5098 0.482 1.5274 0.482 1.5274 C0.482 1.5274 0.256 1.2725 0.256 1.2725 C0.256 1.2725 0 1.0186 0 1.0186 Z" />
 </g>
 <g transform="translate(170.138, 82.2549)" style="fill:#ff0101; fill-rule:evenodd; stroke:none; stroke-width:0.70825; stroke-linecap:butt; stroke-linejoin:miter; stroke-dasharray:none;" >
  <path d="M0 1.0185 C0 1.0185 1.022 0 1.022 0 C1.022 0 1.277 0.2549 1.277 0.2549 C1.277 0.2549 1.505 0.5088 1.505 0.5088 C1.505 0.5088 0.482 1.5273 0.482 1.5273 C0.482 1.5273 0.256 1.2724 0.256 1.2724 C0.256 1.2724 0 1.0185 0 1.0185 Z" />
 </g>
 <g transform="translate(172.182, 80.2188)" style="fill:#ff0101; fill-rule:evenodd; stroke:none; stroke-width:0.70825; stroke-linecap:butt; stroke-linejoin:miter; stroke-dasharray:none;" >
  <path d="M0 1.0185 C0 1.0185 1.021 0 1.021 0 C1.021 0 1.277 0.2548 1.277 0.2548 C1.277 0.2548 1.504 0.4814 1.504 0.4814 C1.504 0.4814 0.482 1.499 0.482 1.499 C0.482 1.499 0.255 1.2724 0.255 1.2724 C0.255 1.2724 0 1.0185 0 1.0185 Z" />
 </g>
 <g transform="translate(174.225, 78.1543)" style="fill:#ff0101; fill-rule:evenodd; stroke:none; stroke-width:0.70825; stroke-linecap:butt; stroke-linejoin:miter; stroke-dasharray:none;" >
  <path d="M0 1.0469 C0 1.0469 1.021 0 1.021 0 C1.021 0 1.277 0.2549 1.277 0.2549 C1.277 0.2549 1.504 0.5088 1.504 0.5088 C1.504 0.5088 0.482 1.5273 0.482 1.5273 C0.482 1.5273 0.255 1.2725 0.255 1.2725 C0.255 1.2725 0 1.0469 0 1.0469 Z" />
 </g>
 <g transform="translate(176.269, 76.1182)" style="fill:#ff0101; fill-rule:evenodd; stroke:none; stroke-width:0.70825; stroke-linecap:butt; stroke-linejoin:miter; stroke-dasharray:none;" >
  <path d="M0 1.0185 C0 1.0185 1.021 0 1.021 0 C1.021 0 1.276 0.2548 1.276 0.2548 C1.276 0.2548 1.503 0.5088 1.503 0.5088 C1.503 0.5088 0.482 1.5273 0.482 1.5273 C0.482 1.5273 0.254 1.2724 0.254 1.2724 C0.254 1.2724 0 1.0185 0 1.0185 Z" />
 </g>
 <g transform="translate(178.312, 74.082)" style="fill:#ff0101; fill-rule:evenodd; stroke:none; stroke-width:0.70825; stroke-linecap:butt; stroke-linejoin:miter; stroke-dasharray:none;" >
  <path d="M0 1.0186 C0 1.0186 1.021 0 1.021 0 C1.021 0 1.277 0.2549 1.277 0.2549 C1.277 0.2549 1.503 0.5088 1.503 0.5088 C1.503 0.5088 0.482 1.5274 0.482 1.5274 C0.482 1.5274 0.255 1.2725 0.255 1.2725 C0.255 1.2725 0 1.0186 0 1.0186 Z" />
 </g>
 <g transform="translate(180.354, 72.0459)" style="fill:#ff0101; fill-rule:evenodd; stroke:none; stroke-width:0.70825; stroke-linecap:butt; stroke-linejoin:miter; stroke-dasharray:none;" >
  <path d="M0 1.0186 C0 1.0186 1.023 0 1.023 0 C1.023 0 1.278 0.2266 1.278 0.2266 C1.278 0.2266 1.505 0.4805 1.505 0.4805 C1.505 0.4805 0.483 1.499 0.483 1.499 C0.483 1.499 0.256 1.2725 0.256 1.2725 C0.256 1.2725 0 1.0186 0 1.0186 Z" />
 </g>
 <g transform="translate(182.398, 69.9814)" style="fill:#ff0101; fill-rule:evenodd; stroke:none; stroke-width:0.70825; stroke-linecap:butt; stroke-linejoin:miter; stroke-dasharray:none;" >
  <path d="M0 1.0469 C0 1.0469 1.022 0 1.022 0 C1.022 0 1.278 0.2549 1.278 0.2549 C1.278 0.2549 1.504 0.5088 1.504 0.5088 C1.504 0.5088 0.483 1.5274 0.483 1.5274 C0.483 1.5274 0.255 1.2725 0.255 1.2725 C0.255 1.2725 0 1.0469 0 1.0469 Z" />
 </g>
 <g transform="translate(184.441, 67.9453)" style="fill:#ff0101; fill-rule:evenodd; stroke:none; stroke-width:0.70825; stroke-linecap:butt; stroke-linejoin:miter; stroke-dasharray:none;" >
  <path d="M0 1.0186 C0 1.0186 1.022 0 1.022 0 C1.022 0 1.278 0.2549 1.278 0.2549 C1.278 0.2549 1.504 0.5088 1.504 0.5088 C1.504 0.5088 0.483 1.5274 0.483 1.5274 C0.483 1.5274 0.256 1.2725 0.256 1.2725 C0.256 1.2725 0 1.0186 0 1.0186 Z" />
 </g>
 <g transform="translate(186.485, 65.9092)" style="fill:#ff0101; fill-rule:evenodd; stroke:none; stroke-width:0.70825; stroke-linecap:butt; stroke-linejoin:miter; stroke-dasharray:none;" >
  <path d="M0 1.0185 C0 1.0185 1.022 0 1.022 0 C1.022 0 1.277 0.2549 1.277 0.2549 C1.277 0.2549 1.504 0.5088 1.504 0.5088 C1.504 0.5088 0.483 1.5273 0.483 1.5273 C0.483 1.5273 0.255 1.2724 0.255 1.2724 C0.255 1.2724 0 1.0185 0 1.0185 Z" />
 </g>
 <g transform="translate(188.528, 63.873)" style="fill:#ff0101; fill-rule:evenodd; stroke:none; stroke-width:0.70825; stroke-linecap:butt; stroke-linejoin:miter; stroke-dasharray:none;" >
  <path d="M0 1.0186 C0 1.0186 1.022 0 1.022 0 C1.022 0 1.278 0.2266 1.278 0.2266 C1.278 0.2266 1.504 0.4805 1.504 0.4805 C1.504 0.4805 0.483 1.4991 0.483 1.4991 C0.483 1.4991 0.256 1.2725 0.256 1.2725 C0.256 1.2725 0 1.0186 0 1.0186 Z" />
 </g>
 <g transform="translate(190.571, 61.8086)" style="fill:#ff0101; fill-rule:evenodd; stroke:none; stroke-width:0.70825; stroke-linecap:butt; stroke-linejoin:miter; stroke-dasharray:none;" >
  <path d="M0 1.0469 C0 1.0469 1.023 0 1.023 0 C1.023 0 1.278 0.2549 1.278 0.2549 C1.278 0.2549 1.505 0.5088 1.505 0.5088 C1.505 0.5088 0.483 1.5273 0.483 1.5273 C0.483 1.5273 0.256 1.2725 0.256 1.2725 C0.256 1.2725 0 1.0469 0 1.0469 Z" />
 </g>
 <g transform="translate(192.615, 59.7725)" style="fill:#ff0101; fill-rule:evenodd; stroke:none; stroke-width:0.70825; stroke-linecap:butt; stroke-linejoin:miter; stroke-dasharray:none;" >
  <path d="M0 1.0185 C0 1.0185 1.022 0 1.022 0 C1.022 0 1.278 0.2548 1.278 0.2548 C1.278 0.2548 1.504 0.5088 1.504 0.5088 C1.504 0.5088 0.483 1.5273 0.483 1.5273 C0.483 1.5273 0.255 1.2724 0.255 1.2724 C0.255 1.2724 0 1.0185 0 1.0185 Z" />
 </g>
 <g transform="translate(194.658, 57.7363)" style="fill:#ff0101; fill-rule:evenodd; stroke:none; stroke-width:0.70825; stroke-linecap:butt; stroke-linejoin:miter; stroke-dasharray:none;" >
  <path d="M0 1.0186 C0 1.0186 1.022 0 1.022 0 C1.022 0 1.278 0.2549 1.278 0.2549 C1.278 0.2549 1.504 0.5088 1.504 0.5088 C1.504 0.5088 0.483 1.5274 0.483 1.5274 C0.483 1.5274 0.256 1.2725 0.256 1.2725 C0.256 1.2725 0 1.0186 0 1.0186 Z" />
 </g>
 <g transform="translate(196.702, 55.7002)" style="fill:#ff0101; fill-rule:evenodd; stroke:none; stroke-width:0.70825; stroke-linecap:butt; stroke-linejoin:miter; stroke-dasharray:none;" >
  <path d="M0 1.0186 C0 1.0186 1.022 0 1.022 0 C1.022 0 1.277 0.2266 1.277 0.2266 C1.277 0.2266 1.504 0.4805 1.504 0.4805 C1.504 0.4805 0.483 1.499 0.483 1.499 C0.483 1.499 0.255 1.2725 0.255 1.2725 C0.255 1.2725 0 1.0186 0 1.0186 Z" />
 </g>
 <g transform="translate(198.745, 53.6357)" style="fill:#ff0101; fill-rule:evenodd; stroke:none; stroke-width:0.70825; stroke-linecap:butt; stroke-linejoin:miter; stroke-dasharray:none;" >
  <path d="M0 1.0459 C0 1.0459 1.022 0 1.022 0 C1.022 0 1.277 0.2549 1.277 0.2549 C1.277 0.2549 1.504 0.5088 1.504 0.5088 C1.504 0.5088 0.483 1.5274 0.483 1.5274 C0.483 1.5274 0.256 1.2725 0.256 1.2725 C0.256 1.2725 0 1.0459 0 1.0459 Z" />
 </g>
 <g transform="translate(200.788, 51.5996)" style="fill:#ff0101; fill-rule:evenodd; stroke:none; stroke-width:0.70825; stroke-linecap:butt; stroke-linejoin:miter; stroke-dasharray:none;" >
  <path d="M0 1.0176 C0 1.0176 1.023 0 1.023 0 C1.023 0 1.277 0.2549 1.277 0.2549 C1.277 0.2549 1.505 0.5088 1.505 0.5088 C1.505 0.5088 0.483 1.5274 0.483 1.5274 C0.483 1.5274 0.256 1.2725 0.256 1.2725 C0.256 1.2725 0 1.0176 0 1.0176 Z" />
 </g>
 <g transform="translate(202.832, 49.5635)" style="fill:#ff0101; fill-rule:evenodd; stroke:none; stroke-width:0.70825; stroke-linecap:butt; stroke-linejoin:miter; stroke-dasharray:none;" >
  <path d="M0 1.0176 C0 1.0176 1.022 0 1.022 0 C1.022 0 1.277 0.2549 1.277 0.2549 C1.277 0.2549 1.504 0.5088 1.504 0.5088 C1.504 0.5088 0.482 1.5273 0.482 1.5273 C0.482 1.5273 0.255 1.2724 0.255 1.2724 C0.255 1.2724 0 1.0176 0 1.0176 Z" />
 </g>
 <g transform="translate(204.875, 47.5273)" style="fill:#ff0101; fill-rule:evenodd; stroke:none; stroke-width:0.70825; stroke-linecap:butt; stroke-linejoin:miter; stroke-dasharray:none;" >
  <path d="M0 1.0176 C0 1.0176 1.021 0 1.021 0 C1.021 0 1.277 0.2266 1.277 0.2266 C1.277 0.2266 1.504 0.4805 1.504 0.4805 C1.504 0.4805 0.482 1.4991 0.482 1.4991 C0.482 1.4991 0.256 1.2725 0.256 1.2725 C0.256 1.2725 0 1.0176 0 1.0176 Z" />
 </g>
 <g transform="translate(206.919, 45.4629)" style="fill:#ff0101; fill-rule:evenodd; stroke:none; stroke-width:0.70825; stroke-linecap:butt; stroke-linejoin:miter; stroke-dasharray:none;" >
  <path d="M0 1.0176 C0 1.0176 1.021 0 1.021 0 C1.021 0 1.276 0.2549 1.276 0.2549 C1.276 0.2549 1.504 0.5088 1.504 0.5088 C1.504 0.5088 0.482 1.5273 0.482 1.5273 C0.482 1.5273 0.255 1.2725 0.255 1.2725 C0.255 1.2725 0 1.0176 0 1.0176 Z" />
 </g>
 <g transform="translate(208.962, 43.4268)" style="fill:#ff0101; fill-rule:evenodd; stroke:none; stroke-width:0.70825; stroke-linecap:butt; stroke-linejoin:miter; stroke-dasharray:none;" >
  <path d="M0 1.0175 C0 1.0175 1.021 0 1.021 0 C1.021 0 1.277 0.2548 1.277 0.2548 C1.277 0.2548 1.504 0.5087 1.504 0.5087 C1.504 0.5087 0.482 1.5273 0.482 1.5273 C0.482 1.5273 0.256 1.2724 0.256 1.2724 C0.256 1.2724 0 1.0175 0 1.0175 Z" />
 </g>
 <g transform="translate(211.005, 41.3906)" style="fill:#ff0101; fill-rule:evenodd; stroke:none; stroke-width:0.70825; stroke-linecap:butt; stroke-linejoin:miter; stroke-dasharray:none;" >
  <path d="M0 1.0176 C0 1.0176 1.022 0 1.022 0 C1.022 0 1.277 0.2549 1.277 0.2549 C1.277 0.2549 1.505 0.4805 1.505 0.4805 C1.505 0.4805 0.482 1.5274 0.482 1.5274 C0.482 1.5274 0.256 1.2725 0.256 1.2725 C0.256 1.2725 0 1.0176 0 1.0176 Z" />
 </g>
 <g transform="translate(213.049, 40.0332)" style="fill:#ff0101; fill-rule:evenodd; stroke:none; stroke-width:0.70825; stroke-linecap:butt; stroke-linejoin:miter; stroke-dasharray:none;" >
  <path d="M0 0.3389 C0 0.3389 0.312 0 0.312 0 C0.312 0 0.567 0.2539 0.567 0.2539 C0.567 0.2539 0.823 0.5088 0.823 0.5088 C0.823 0.5088 0.482 0.8203 0.482 0.8203 C0.482 0.8203 0.255 0.5938 0.255 0.5938 C0.255 0.5938 0 0.3389 0 0.3389 Z" />
 </g>
 <g transform="translate(308.235, 163.334)" style="fill:#010101; fill-rule:evenodd; stroke:none; stroke-width:0.70825; stroke-linecap:butt; stroke-linejoin:miter; stroke-dasharray:none;" >
  <path d="M0 4.157 C0 4.157 1.476 2.008 1.476 2.008 C1.476 2.008 0.085 0 0.085 0 C0.085 0 0.937 0 0.937 0 C0.937 0 1.618 0.989 1.618 0.989 C1.732 1.187 1.817 1.329 1.902 1.442 C2.015 1.272 2.128 1.103 2.214 0.989 C2.214 0.989 2.895 0 2.895 0 C2.895 0 3.746 0 3.746 0 C3.746 0 2.356 2.008 2.356 2.008 C2.356 2.008 3.831 4.157 3.831 4.157 C3.831 4.157 2.98 4.157 2.98 4.157 C2.98 4.157 2.128 2.885 2.128 2.885 C2.128 2.885 1.93 2.602 1.93 2.602 C1.93 2.602 0.852 4.157 0.852 4.157 C0.852 4.157 0 4.157 0 4.157 Z" />
 </g>
 <g transform="translate(84.3174, 3.12793)" style="fill:#010101; fill-rule:evenodd; stroke:none; stroke-width:0.70825; stroke-linecap:butt; stroke-linejoin:miter; stroke-dasharray:none;" >
  <path d="M0.3965 5.74023 C0.3965 5.74023 0.3115 5.08984 0.3115 5.08984 C0.4824 5.11816 0.5957 5.14648 0.709 5.14648 C0.8789 5.14648 0.9931 5.11816 1.1064 5.06152 C1.1914 5.00488 1.2764 4.94922 1.333 4.86426 C1.3906 4.7793 1.4472 4.60937 1.5605 4.32617 C1.5605 4.29785 1.5889 4.24219 1.6172 4.15723 C1.6172 4.15723 0 0 0 0 C0 0 0.7656 0 0.7656 0 C0.7656 0 1.6455 2.375 1.6455 2.375 C1.7588 2.6582 1.873 2.99707 1.958 3.30859 C2.043 3.02539 2.1279 2.74316 2.2412 2.43164 C2.2412 2.43164 3.1211 0 3.1211 0 C3.1211 0 3.831 0 3.831 0 C3.831 0 2.2988 4.24219 2.2988 4.24219 C2.1279 4.69434 1.9863 5.00488 1.9014 5.1748 C1.7588 5.40137 1.6172 5.57129 1.4472 5.65527 C1.2764 5.76855 1.0781 5.8252 0.8506 5.8252 C0.709 5.8252 0.5674 5.79687 0.3965 5.74023 Z" />
 </g>
 <g transform="translate(76.4561, 106.83)" style="fill:#010101; fill-rule:evenodd; stroke:none; stroke-width:0.70825; stroke-linecap:butt; stroke-linejoin:miter; stroke-dasharray:none;" >
  <path d="M3.0361 5.458 C2.0712 5.458 1.3339 5.204 0.7939 4.694 C0.2548 4.186 0 3.535 0 2.715 C0 2.206 0.1132 1.726 0.3681 1.301 C0.624 0.877 0.9931 0.566 1.4189 0.34 C1.873 0.113 2.3837 0 2.9511 0 C3.5468 0 4.0576 0.113 4.5117 0.34 C4.9658 0.594 5.3066 0.905 5.5625 1.329 C5.789 1.782 5.9023 2.234 5.9023 2.715 C5.9023 3.253 5.7607 3.733 5.5058 4.157 C5.25 4.582 4.9091 4.921 4.455 5.119 C4.0009 5.346 3.5185 5.458 3.0361 5.458 Z M3.0361 4.694 C3.7177 4.694 4.2568 4.497 4.6259 4.129 C5.0224 3.762 5.2216 3.31 5.2216 2.743 C5.2216 2.149 5.0224 1.697 4.6259 1.329 C4.2285 0.962 3.6894 0.764 2.9511 0.764 C2.497 0.764 2.0996 0.849 1.7587 0.99 C1.4189 1.16 1.163 1.386 0.9648 1.697 C0.7656 2.008 0.6806 2.348 0.6806 2.715 C0.6806 3.253 0.8505 3.733 1.2197 4.101 C1.5888 4.497 2.1845 4.694 3.0361 4.694 Z" />
 </g>
 <g transform="translate(78.1016, 102.532)" style="fill:#010101; fill-rule:evenodd; stroke:none; stroke-width:0.70825; stroke-linecap:butt; stroke-linejoin:miter; stroke-dasharray:none;" >
  <path d="M4.1718 0.622 C4.1718 0.622 3.5761 0.622 3.5761 0.622 C4.0302 0.961 4.2568 1.386 4.2568 1.951 C4.2568 2.205 4.2002 2.432 4.1152 2.658 C4.0302 2.856 3.917 3.026 3.7744 3.139 C3.6328 3.224 3.4345 3.309 3.2353 3.337 C3.0937 3.365 2.8662 3.394 2.583 3.394 C2.583 3.394 0 3.394 0 3.394 C0 3.394 0 2.687 0 2.687 C0 2.687 2.3271 2.687 2.3271 2.687 C2.6963 2.687 2.9228 2.658 3.0654 2.63 C3.2353 2.602 3.4062 2.517 3.4912 2.347 C3.6045 2.205 3.6611 2.036 3.6611 1.81 C3.6611 1.612 3.6045 1.414 3.4912 1.216 C3.3769 1.046 3.2353 0.905 3.0654 0.82 C2.8662 0.736 2.583 0.707 2.2422 0.707 C2.2422 0.707 0 0.707 0 0.707 C0 0.707 0 0 0 0 C0 0 4.1718 0 4.1718 0 C4.1718 0 4.1718 0.622 4.1718 0.622 Z" />
 </g>
 <g transform="translate(76.6543, 99.8457)" style="fill:#010101; fill-rule:evenodd; stroke:none; stroke-width:0.70825; stroke-linecap:butt; stroke-linejoin:miter; stroke-dasharray:none;" >
  <path d="M5.0234 0.084 C5.0234 0.084 5.6475 0 5.6475 0 C5.6758 0.1973 5.7041 0.3673 5.7041 0.5373 C5.7041 0.7913 5.6758 0.9893 5.5908 1.1313 C5.5059 1.2443 5.3926 1.3573 5.25 1.4133 C5.1367 1.4693 4.8535 1.4983 4.4277 1.4983 C4.4277 1.4983 1.9863 1.4983 1.9863 1.4983 C1.9863 1.4983 1.9863 2.0083 1.9863 2.0083 C1.9863 2.0083 1.4473 2.0083 1.4473 2.0083 C1.4473 2.0083 1.4473 1.4983 1.4473 1.4983 C1.4473 1.4983 0.4258 1.4983 0.4258 1.4983 C0.4258 1.4983 0 0.7913 0 0.7913 C0 0.7913 1.4473 0.7913 1.4473 0.7913 C1.4473 0.7913 1.4473 0.084 1.4473 0.084 C1.4473 0.084 1.9863 0.084 1.9863 0.084 C1.9863 0.084 1.9863 0.7913 1.9863 0.7913 C1.9863 0.7913 4.4561 0.7913 4.4561 0.7913 C4.6543 0.7913 4.7676 0.7913 4.8242 0.7623 C4.8818 0.7343 4.9385 0.6783 4.9668 0.6223 C4.9951 0.5653 5.0234 0.5083 5.0234 0.3953 C5.0234 0.3103 5.0234 0.2253 5.0234 0.084 Z" />
 </g>
 <g transform="translate(78.0166, 95.6318)" style="fill:#010101; fill-rule:evenodd; stroke:none; stroke-width:0.70825; stroke-linecap:butt; stroke-linejoin:miter; stroke-dasharray:none;" >
  <path d="M5.8467 3.5909 C5.8467 3.5909 0.085 3.5909 0.085 3.5909 C0.085 3.5909 0.085 2.9405 0.085 2.9405 C0.085 2.9405 0.624 2.9405 0.624 2.9405 C0.4258 2.7998 0.2559 2.6299 0.1416 2.4317 C0.0566 2.2334 0 2.0078 0 1.753 C0 1.3858 0.085 1.0743 0.2842 0.8194 C0.4541 0.5371 0.71 0.3389 1.0498 0.1973 C1.3906 0.0567 1.7314 0 2.1289 0 C2.5547 0 2.9512 0.085 3.292 0.2256 C3.6328 0.3672 3.8877 0.5938 4.0586 0.876 C4.2568 1.1875 4.3418 1.4707 4.3418 1.8096 C4.3418 2.0362 4.2852 2.2334 4.2002 2.4317 C4.0869 2.6016 3.9736 2.7715 3.8311 2.8838 C3.8311 2.8838 5.8467 2.8838 5.8467 2.8838 C5.8467 2.8838 5.8467 3.5909 5.8467 3.5909 Z M2.1855 2.9688 C2.7246 2.9688 3.1221 2.8565 3.377 2.6299 C3.6328 2.4317 3.7744 2.1495 3.7744 1.8379 C3.7744 1.5264 3.6328 1.2725 3.377 1.0459 C3.1221 0.8194 2.6963 0.7071 2.1289 0.7071 C1.5889 0.7071 1.1924 0.8194 0.9365 1.0459 C0.6807 1.2442 0.5391 1.5264 0.5391 1.8096 C0.5391 2.1211 0.6807 2.375 0.9648 2.6299 C1.249 2.8565 1.6465 2.9688 2.1855 2.9688 Z" />
 </g>
 <g transform="translate(78.1016, 91.3896)" style="fill:#010101; fill-rule:evenodd; stroke:none; stroke-width:0.70825; stroke-linecap:butt; stroke-linejoin:miter; stroke-dasharray:none;" >
  <path d="M4.1718 0.6221 C4.1718 0.6221 3.5761 0.6221 3.5761 0.6221 C4.0302 0.961 4.2568 1.3858 4.2568 1.9512 C4.2568 2.2061 4.2002 2.4317 4.1152 2.6583 C4.0302 2.8565 3.917 3.0254 3.7744 3.1387 C3.6328 3.2237 3.4345 3.3086 3.2353 3.337 C3.0937 3.3653 2.8662 3.3936 2.583 3.3936 C2.583 3.3936 0 3.3936 0 3.3936 C0 3.3936 0 2.6866 0 2.6866 C0 2.6866 2.3271 2.6866 2.3271 2.6866 C2.6963 2.6866 2.9228 2.6583 3.0654 2.6299 C3.2353 2.6016 3.4062 2.5167 3.4912 2.3467 C3.6045 2.2061 3.6611 2.0362 3.6611 1.8096 C3.6611 1.6124 3.6045 1.4141 3.4912 1.2159 C3.3769 1.0459 3.2353 0.9053 3.0654 0.8204 C2.8662 0.7354 2.583 0.7071 2.2422 0.7071 C2.2422 0.7071 0 0.7071 0 0.7071 C0 0.7071 0 0 0 0 C0 0 4.1718 0 4.1718 0 C4.1718 0 4.1718 0.6221 4.1718 0.6221 Z" />
 </g>
 <g transform="translate(76.6543, 88.7314)" style="fill:#010101; fill-rule:evenodd; stroke:none; stroke-width:0.70825; stroke-linecap:butt; stroke-linejoin:miter; stroke-dasharray:none;" >
  <path d="M5.0234 0.085 C5.0234 0.085 5.6475 0 5.6475 0 C5.6758 0.1973 5.7041 0.3672 5.7041 0.5372 C5.7041 0.792 5.6758 0.9893 5.5908 1.1309 C5.5059 1.2442 5.3926 1.3575 5.25 1.4141 C5.1367 1.4707 4.8535 1.4991 4.4277 1.4991 C4.4277 1.4991 1.9863 1.4991 1.9863 1.4991 C1.9863 1.4991 1.9863 2.0079 1.9863 2.0079 C1.9863 2.0079 1.4473 2.0079 1.4473 2.0079 C1.4473 2.0079 1.4473 1.4991 1.4473 1.4991 C1.4473 1.4991 0.4258 1.4991 0.4258 1.4991 C0.4258 1.4991 0 0.792 0 0.792 C0 0.792 1.4473 0.792 1.4473 0.792 C1.4473 0.792 1.4473 0.085 1.4473 0.085 C1.4473 0.085 1.9863 0.085 1.9863 0.085 C1.9863 0.085 1.9863 0.792 1.9863 0.792 C1.9863 0.792 4.4561 0.792 4.4561 0.792 C4.6543 0.792 4.7676 0.792 4.8242 0.7637 C4.8818 0.7354 4.9385 0.6788 4.9668 0.6221 C4.9951 0.5655 5.0234 0.5088 5.0234 0.3956 C5.0234 0.3106 5.0234 0.2256 5.0234 0.085 Z" />
 </g>
 <g transform="translate(91.6104, 160.704)" style="fill:#010101; fill-rule:evenodd; stroke:none; stroke-width:0.70825; stroke-linecap:butt; stroke-linejoin:miter; stroke-dasharray:none;" >
  <path d="M2.5263 5.712 C2.5263 5.712 2.5263 4.355 2.5263 4.355 C2.5263 4.355 0 4.355 0 4.355 C0 4.355 0 3.704 0 3.704 C0 3.704 2.6679 0 2.6679 0 C2.6679 0 3.2353 0 3.2353 0 C3.2353 0 3.2353 3.704 3.2353 3.704 C3.2353 3.704 4.0019 3.704 4.0019 3.704 C4.0019 3.704 4.0019 4.355 4.0019 4.355 C4.0019 4.355 3.2353 4.355 3.2353 4.355 C3.2353 4.355 3.2353 5.712 3.2353 5.712 C3.2353 5.712 2.5263 5.712 2.5263 5.712 Z M2.5263 3.704 C2.5263 3.704 2.5263 1.159 2.5263 1.159 C2.5263 1.159 0.7099 3.704 0.7099 3.704 C0.7099 3.704 2.5263 3.704 2.5263 3.704 Z" />
 </g>
 <g transform="translate(96.3496, 160.789)" style="fill:#010101; fill-rule:evenodd; stroke:none; stroke-width:0.70825; stroke-linecap:butt; stroke-linejoin:miter; stroke-dasharray:none;" >
  <path d="M0 4.129 C0 4.129 0.71 4.072 0.71 4.072 C0.7666 4.44 0.8799 4.694 1.0791 4.863 C1.2774 5.062 1.5332 5.147 1.8164 5.147 C2.1856 5.147 2.4697 5.033 2.6963 4.779 C2.9238 4.524 3.0371 4.185 3.0371 3.761 C3.0371 3.365 2.9238 3.025 2.6963 2.8 C2.4697 2.573 2.1856 2.46 1.7881 2.46 C1.5615 2.46 1.334 2.517 1.1641 2.602 C0.9942 2.715 0.8516 2.827 0.7383 2.997 C0.7383 2.997 0.0859 2.912 0.0859 2.912 C0.0859 2.912 0.6817 0 0.6817 0 C0.6817 0 3.4629 0 3.4629 0 C3.4629 0 3.4629 0.707 3.4629 0.707 C3.4629 0.707 1.2207 0.707 1.2207 0.707 C1.2207 0.707 0.9082 2.205 0.9082 2.205 C1.249 1.951 1.6182 1.838 1.9873 1.838 C2.4981 1.838 2.9238 2.008 3.2647 2.347 C3.6045 2.687 3.7754 3.139 3.7754 3.676 C3.7754 4.185 3.6328 4.638 3.3213 5.033 C2.9522 5.486 2.4697 5.712 1.8164 5.712 C1.3057 5.712 0.8799 5.57 0.5684 5.288 C0.2275 4.977 0.0576 4.609 0 4.129 Z" />
 </g>
 <g transform="translate(100.607, 160.591)" style="fill:#010101; fill-rule:evenodd; stroke:none; stroke-width:0.70825; stroke-linecap:butt; stroke-linejoin:miter; stroke-dasharray:none;" >
  <path d="M0 1.272 C0 0.82 0.114 0.48 0.369 0.282 C0.568 0.085 0.794 0 1.107 0 C1.419 0 1.674 0.113 1.873 0.339 C2.072 0.537 2.185 0.848 2.185 1.244 C2.185 1.555 2.128 1.809 2.043 1.979 C1.958 2.149 1.817 2.291 1.646 2.403 C1.476 2.488 1.305 2.545 1.107 2.545 C0.766 2.545 0.511 2.431 0.312 2.206 C0.114 2.008 0 1.696 0 1.272 Z M0.426 1.272 C0.426 1.584 0.483 1.809 0.624 1.979 C0.738 2.121 0.909 2.206 1.107 2.206 C1.277 2.206 1.448 2.121 1.561 1.979 C1.703 1.809 1.759 1.584 1.759 1.244 C1.759 0.961 1.703 0.735 1.561 0.565 C1.448 0.424 1.277 0.339 1.107 0.339 C0.909 0.339 0.738 0.424 0.624 0.565 C0.483 0.735 0.426 0.961 0.426 1.272 Z" />
 </g>
 <g transform="translate(37.7168, 166.671)" style="fill:none; stroke:#0101ff; stroke-width:0.70825; stroke-linecap:butt; stroke-linejoin:round; stroke-dasharray:none;" >
  <path d="M0 49.575 C0 49.575 0 0 0 0 " />
 </g>
 <g transform="translate(37.2061, 166.558)" style="fill:none; stroke:#0101ff; stroke-width:0.70825; stroke-linecap:butt; stroke-linejoin:round; stroke-dasharray:none;" >
  <path d="M49.7783 0 C49.7783 0 0 0 0 0 " />
 </g>
 <g transform="translate(90.8164, 171.252)" style="fill:#010101; fill-rule:evenodd; stroke:none; stroke-width:0.70825; stroke-linecap:butt; stroke-linejoin:miter; stroke-dasharray:none;" >
  <path d="M0 3.026 C0 2.064 0.2549 1.329 0.7656 0.792 C1.2764 0.255 1.9297 0 2.7529 0 C3.2637 0 3.7461 0.113 4.1719 0.368 C4.5967 0.622 4.9092 0.99 5.1367 1.414 C5.3633 1.867 5.4766 2.376 5.4766 2.941 C5.4766 3.535 5.3633 4.044 5.1367 4.497 C4.8809 4.949 4.5684 5.289 4.1426 5.543 C3.6895 5.769 3.2354 5.883 2.7529 5.883 C2.2129 5.883 1.7305 5.741 1.3047 5.486 C0.8789 5.232 0.5391 4.893 0.3399 4.44 C0.1133 3.987 0 3.507 0 3.026 Z M0.7656 3.026 C0.7656 3.705 0.9649 4.242 1.333 4.61 C1.7022 5.006 2.1563 5.204 2.7236 5.204 C3.3203 5.204 3.7744 5.006 4.1426 4.61 C4.5117 4.214 4.7109 3.677 4.7109 2.941 C4.7109 2.489 4.626 2.093 4.4834 1.754 C4.3135 1.414 4.0859 1.16 3.7744 0.962 C3.4619 0.764 3.1211 0.679 2.7529 0.679 C2.2129 0.679 1.7305 0.849 1.3623 1.217 C0.9649 1.584 0.7656 2.178 0.7656 3.026 Z" />
 </g>
 <g transform="translate(190.486, 171.365)" style="fill:#010101; fill-rule:evenodd; stroke:none; stroke-width:0.70825; stroke-linecap:butt; stroke-linejoin:miter; stroke-dasharray:none;" >
  <path d="M0 5.713 C0 5.713 0 0 0 0 C0 0 0.767 0 0.767 0 C0.767 0 0.767 5.713 0.767 5.713 C0.767 5.713 0 5.713 0 5.713 Z" />
 </g>
 <g transform="translate(192.587, 172.836)" style="fill:#010101; fill-rule:evenodd; stroke:none; stroke-width:0.70825; stroke-linecap:butt; stroke-linejoin:miter; stroke-dasharray:none;" >
  <path d="M0 4.242 C0 4.242 0 0.085 0 0.085 C0 0.085 0.652 0.085 0.652 0.085 C0.652 0.085 0.652 0.679 0.652 0.679 C0.965 0.227 1.391 0 1.958 0 C2.214 0 2.44 0.057 2.639 0.142 C2.866 0.227 3.008 0.34 3.121 0.48 C3.235 0.622 3.292 0.82 3.349 1.018 C3.377 1.131 3.377 1.357 3.377 1.697 C3.377 1.697 3.377 4.242 3.377 4.242 C3.377 4.242 2.667 4.242 2.667 4.242 C2.667 4.242 2.667 1.697 2.667 1.697 C2.667 1.414 2.639 1.216 2.582 1.074 C2.525 0.934 2.44 0.82 2.299 0.735 C2.156 0.65 1.986 0.594 1.816 0.594 C1.504 0.594 1.248 0.679 1.021 0.877 C0.823 1.074 0.709 1.442 0.709 1.979 C0.709 1.979 0.709 4.242 0.709 4.242 C0.709 4.242 0 4.242 0 4.242 Z" />
 </g>
 <g transform="translate(197.014, 172.836)" style="fill:#010101; fill-rule:evenodd; stroke:none; stroke-width:0.70825; stroke-linecap:butt; stroke-linejoin:miter; stroke-dasharray:none;" >
  <path d="M0 5.826 C0 5.826 0 0.085 0 0.085 C0 0.085 0.653 0.085 0.653 0.085 C0.653 0.085 0.653 0.622 0.653 0.622 C0.795 0.424 0.965 0.255 1.164 0.142 C1.362 0.057 1.59 0 1.844 0 C2.214 0 2.526 0.085 2.781 0.283 C3.065 0.452 3.263 0.707 3.406 1.046 C3.548 1.386 3.604 1.725 3.604 2.121 C3.604 2.545 3.519 2.941 3.378 3.28 C3.235 3.62 3.008 3.874 2.724 4.044 C2.412 4.242 2.129 4.327 1.788 4.327 C1.561 4.327 1.362 4.27 1.164 4.185 C0.993 4.072 0.823 3.959 0.71 3.817 C0.71 3.817 0.71 5.826 0.71 5.826 C0.71 5.826 0 5.826 0 5.826 Z M0.625 2.178 C0.625 2.715 0.738 3.11 0.965 3.365 C1.164 3.62 1.447 3.762 1.759 3.762 C2.072 3.762 2.327 3.62 2.554 3.365 C2.781 3.11 2.895 2.686 2.895 2.121 C2.895 1.584 2.781 1.187 2.554 0.934 C2.355 0.679 2.072 0.537 1.788 0.537 C1.475 0.537 1.22 0.679 0.965 0.962 C0.738 1.244 0.625 1.641 0.625 2.178 Z" />
 </g>
 <g transform="translate(201.47, 172.921)" style="fill:#010101; fill-rule:evenodd; stroke:none; stroke-width:0.70825; stroke-linecap:butt; stroke-linejoin:miter; stroke-dasharray:none;" >
  <path d="M2.781 4.157 C2.781 4.157 2.781 3.563 2.781 3.563 C2.44 4.016 2.014 4.242 1.447 4.242 C1.191 4.242 0.965 4.185 0.737 4.1 C0.539 4.016 0.369 3.902 0.255 3.761 C0.17 3.62 0.085 3.422 0.056 3.224 C0.028 3.082 0 2.856 0 2.573 C0 2.573 0 0 0 0 C0 0 0.709 0 0.709 0 C0.709 0 0.709 2.318 0.709 2.318 C0.709 2.686 0.737 2.913 0.766 3.054 C0.795 3.224 0.88 3.393 1.05 3.478 C1.191 3.592 1.362 3.648 1.589 3.648 C1.788 3.648 1.986 3.592 2.185 3.478 C2.355 3.365 2.497 3.224 2.582 3.054 C2.668 2.856 2.696 2.573 2.696 2.234 C2.696 2.234 2.696 0 2.696 0 C2.696 0 3.405 0 3.405 0 C3.405 0 3.405 4.157 3.405 4.157 C3.405 4.157 2.781 4.157 2.781 4.157 Z" />
 </g>
 <g transform="translate(205.528, 171.479)" style="fill:#010101; fill-rule:evenodd; stroke:none; stroke-width:0.70825; stroke-linecap:butt; stroke-linejoin:miter; stroke-dasharray:none;" >
  <path d="M1.93 5.005 C1.93 5.005 2.015 5.627 2.015 5.627 C1.817 5.656 1.646 5.684 1.476 5.684 C1.22 5.684 1.022 5.656 0.88 5.571 C0.766 5.486 0.653 5.373 0.596 5.231 C0.539 5.119 0.511 4.835 0.511 4.412 C0.511 4.412 0.511 1.979 0.511 1.979 C0.511 1.979 0 1.979 0 1.979 C0 1.979 0 1.442 0 1.442 C0 1.442 0.511 1.442 0.511 1.442 C0.511 1.442 0.511 0.423 0.511 0.423 C0.511 0.423 1.22 0 1.22 0 C1.22 0 1.22 1.442 1.22 1.442 C1.22 1.442 1.93 1.442 1.93 1.442 C1.93 1.442 1.93 1.979 1.93 1.979 C1.93 1.979 1.22 1.979 1.22 1.979 C1.22 1.979 1.22 4.44 1.22 4.44 C1.22 4.637 1.22 4.75 1.248 4.807 C1.277 4.864 1.333 4.92 1.391 4.949 C1.448 4.977 1.504 5.005 1.618 5.005 C1.702 5.005 1.787 5.005 1.93 5.005 Z" />
 </g>
 <g transform="translate(124.588, 84.5742)" style="fill:#018001; fill-rule:evenodd; stroke:none; stroke-width:0.70825; stroke-linecap:butt; stroke-linejoin:miter; stroke-dasharray:none;" >
  <path d="M4.569 5.1465 C4.938 5.4014 5.251 5.5713 5.562 5.7119 C5.562 5.7119 5.308 6.2217 5.308 6.2217 C4.91 6.0801 4.513 5.8535 4.087 5.5147 C3.661 5.7686 3.207 5.8819 2.696 5.8819 C2.185 5.8819 1.731 5.7686 1.306 5.5147 C0.88 5.2598 0.568 4.9209 0.341 4.4678 C0.114 4.0156 0 3.5069 0 2.9414 C0 2.375 0.114 1.8662 0.341 1.4141 C0.568 0.961 0.88 0.5938 1.306 0.3672 C1.731 0.1133 2.185 0 2.725 0 C3.235 0 3.718 0.1133 4.143 0.3672 C4.541 0.6221 4.882 0.961 5.08 1.4141 C5.308 1.8662 5.421 2.3467 5.421 2.9131 C5.421 3.3936 5.364 3.7891 5.223 4.1856 C5.08 4.5528 4.853 4.8643 4.569 5.1465 Z M2.924 4.1856 C3.35 4.2988 3.718 4.4961 4.002 4.7227 C4.428 4.3272 4.654 3.7324 4.654 2.9414 C4.654 2.4883 4.569 2.0928 4.428 1.7529 C4.257 1.4141 4.03 1.1592 3.746 0.961 C3.434 0.7637 3.094 0.6787 2.725 0.6787 C2.157 0.6787 1.703 0.877 1.334 1.2442 C0.965 1.6113 0.766 2.1778 0.766 2.9414 C0.766 3.6758 0.936 4.2422 1.306 4.6094 C1.675 5.0059 2.157 5.2031 2.725 5.2031 C2.98 5.2031 3.235 5.1465 3.491 5.0615 C3.235 4.8926 3.009 4.8076 2.725 4.7227 C2.725 4.7227 2.924 4.1856 2.924 4.1856 Z" />
 </g>
 <g transform="translate(130.775, 91.2197)" style="fill:#018001; fill-rule:evenodd; stroke:none; stroke-width:0.70825; stroke-linecap:butt; stroke-linejoin:miter; stroke-dasharray:none;" >
  <path d="M0 3.4219 C0 3.4219 0 0.0567 0 0.0567 C0 0.0567 0.426 0.0567 0.426 0.0567 C0.426 0.0567 0.426 0.3682 0.426 0.3682 C0.511 0.2266 0.596 0.1416 0.709 0.085 C0.823 0.0283 0.965 0 1.107 0 C1.305 0 1.476 0.0567 1.646 0.1699 C1.788 0.2549 1.902 0.4248 1.987 0.6221 C2.072 0.8203 2.1 1.0186 2.1 1.2442 C2.1 1.4991 2.043 1.7256 1.958 1.9229 C1.873 2.1211 1.759 2.291 1.589 2.376 C1.419 2.4893 1.248 2.5449 1.05 2.5449 C0.909 2.5449 0.794 2.5166 0.681 2.461 C0.596 2.4043 0.483 2.3194 0.426 2.2344 C0.426 2.2344 0.426 3.4219 0.426 3.4219 C0.426 3.4219 0 3.4219 0 3.4219 Z M0.426 1.2725 C0.426 1.584 0.483 1.8379 0.596 1.9795 C0.738 2.1211 0.88 2.2061 1.05 2.2061 C1.22 2.2061 1.363 2.1211 1.476 1.9795 C1.618 1.8096 1.674 1.584 1.674 1.2442 C1.674 0.9336 1.618 0.7071 1.504 0.5371 C1.363 0.3965 1.22 0.3116 1.05 0.3116 C0.88 0.3116 0.738 0.3965 0.624 0.5655 C0.483 0.7354 0.426 0.9619 0.426 1.2725 Z" />
 </g>
 <g transform="translate(134.124, 70.8301)" style="fill:none; stroke:#018001; stroke-width:0.1; stroke-linecap:butt; stroke-linejoin:miter; stroke-dasharray:none;" >
  <path d="M0 42.8159 C0 42.8159 0 0 0 0 " />
 </g>
 <g transform="translate(133.414, 112.883)" style="fill:#018001; fill-rule:evenodd; stroke:none; stroke-width:0.02833; stroke-linecap:butt; stroke-linejoin:miter; stroke-dasharray:none;" >
  <path d="M0 0 C0 0 1.447 0 1.447 0 C1.447 0 0.653 3.817 0.653 3.817 C0.653 3.817 0 0 0 0 Z" />
 </g>
 <g transform="translate(133.414, 67.7754)" style="fill:#018001; fill-rule:evenodd; stroke:none; stroke-width:0.02833; stroke-linecap:butt; stroke-linejoin:miter; stroke-dasharray:none;" >
  <path d="M1.447 3.8184 C1.447 3.8184 0 3.8184 0 3.8184 C0 3.8184 0.767 0 0.767 0 C0.767 0 1.447 3.8184 1.447 3.8184 Z" />
 </g>
 <g transform="translate(138.438, 65.5137)" style="fill:none; stroke:#018001; stroke-width:0.1; stroke-linecap:butt; stroke-linejoin:miter; stroke-dasharray:none;" >
  <path d="M42.967 0 C42.967 0 0 0 0 0 " />
 </g>
 <g transform="translate(180.639, 64.8066)" style="fill:#018001; fill-rule:evenodd; stroke:none; stroke-width:0.02833; stroke-linecap:butt; stroke-linejoin:miter; stroke-dasharray:none;" >
  <path d="M0 1.4424 C0 1.4424 0 0 0 0 C0 0 3.831 0.7637 3.831 0.7637 C3.831 0.7637 0 1.4424 0 1.4424 Z" />
 </g>
 <g transform="translate(135.373, 64.8066)" style="fill:#018001; fill-rule:evenodd; stroke:none; stroke-width:0.02833; stroke-linecap:butt; stroke-linejoin:miter; stroke-dasharray:none;" >
  <path d="M3.831 0 C3.831 0 3.831 1.4424 3.831 1.4424 C3.831 1.4424 0 0.6504 0 0.6504 C0 0.6504 3.831 0 3.831 0 Z" />
 </g>
 <g transform="translate(155.664, 54.8516)" style="fill:#018001; fill-rule:evenodd; stroke:none; stroke-width:0.02833; stroke-linecap:butt; stroke-linejoin:miter; stroke-dasharray:none;" >
  <path d="M4.569 5.1474 C4.939 5.4013 5.251 5.5713 5.563 5.7129 C5.563 5.7129 5.308 6.2216 5.308 6.2216 C4.91 6.08 4.513 5.8545 4.087 5.5146 C3.661 5.7695 3.207 5.8828 2.696 5.8828 C2.186 5.8828 1.732 5.7695 1.306 5.5146 C0.88 5.2607 0.567 4.9209 0.341 4.4687 C0.113 4.0156 0 3.5068 0 2.9414 C0 2.3759 0.113 1.8662 0.341 1.414 C0.567 0.9619 0.88 0.5937 1.306 0.3681 C1.732 0.1132 2.186 0 2.725 0 C3.235 0 3.718 0.1132 4.144 0.3681 C4.541 0.622 4.882 0.9619 5.08 1.414 C5.308 1.8662 5.421 2.3476 5.421 2.913 C5.421 3.3935 5.364 3.79 5.222 4.1855 C5.08 4.5537 4.854 4.8642 4.569 5.1474 Z M2.924 4.1855 C3.349 4.2988 3.718 4.497 4.002 4.7226 C4.428 4.3271 4.654 3.7334 4.654 2.9414 C4.654 2.4892 4.569 2.0927 4.428 1.7539 C4.257 1.414 4.03 1.1601 3.746 0.9619 C3.435 0.7636 3.094 0.6787 2.725 0.6787 C2.157 0.6787 1.703 0.8769 1.334 1.2441 C0.965 1.6123 0.767 2.1777 0.767 2.9414 C0.767 3.6767 0.937 4.2422 1.306 4.6093 C1.675 5.0058 2.157 5.2041 2.725 5.2041 C2.981 5.2041 3.235 5.1474 3.491 5.0625 C3.235 4.8925 3.009 4.8076 2.725 4.7226 C2.725 4.7226 2.924 4.1855 2.924 4.1855 Z" />
 </g>
 <g transform="translate(161.852, 61.498)" style="fill:#018001; fill-rule:evenodd; stroke:none; stroke-width:0.02833; stroke-linecap:butt; stroke-linejoin:miter; stroke-dasharray:none;" >
  <path d="M0 3.4219 C0 3.4219 0 0.0557 0 0.0557 C0 0.0557 0.424 0.0557 0.424 0.0557 C0.424 0.0557 0.424 0.3672 0.424 0.3672 C0.51 0.2256 0.595 0.1407 0.709 0.084 C0.822 0.0274 0.964 0 1.106 0 C1.304 0 1.475 0.0557 1.645 0.169 C1.787 0.254 1.901 0.4239 1.986 0.6221 C2.071 0.8194 2.099 1.0176 2.099 1.2442 C2.099 1.4981 2.043 1.7247 1.958 1.9229 C1.873 2.1202 1.758 2.2901 1.588 2.375 C1.419 2.4883 1.248 2.545 1.049 2.545 C0.908 2.545 0.794 2.5166 0.68 2.46 C0.595 2.4034 0.482 2.3184 0.424 2.2334 C0.424 2.2334 0.424 3.4219 0.424 3.4219 C0.424 3.4219 0 3.4219 0 3.4219 Z M0.424 1.2725 C0.424 1.5831 0.482 1.8379 0.595 1.9795 C0.737 2.1202 0.878 2.2051 1.049 2.2051 C1.219 2.2051 1.361 2.1202 1.475 1.9795 C1.617 1.8096 1.673 1.5831 1.673 1.2442 C1.673 0.9327 1.617 0.7061 1.503 0.5372 C1.361 0.3956 1.219 0.3106 1.049 0.3106 C0.878 0.3106 0.737 0.3956 0.624 0.5655 C0.482 0.7344 0.424 0.961 0.424 1.2725 Z" />
 </g>
 <g transform="translate(87.2686, 116.757)" style="fill:none; stroke:#ff0101; stroke-width:0.70825; stroke-linecap:butt; stroke-linejoin:round; stroke-dasharray:none;" >
  <path d="M0 49.801 C0 49.801 0 0 0 0 " />
 </g>
 <g transform="translate(87.3535, 117.181)" style="fill:none; stroke:#ff0101; stroke-width:0.70825; stroke-linecap:butt; stroke-linejoin:round; stroke-dasharray:none;" >
  <path d="M0 0 C0 0 48.5015 48.896 48.5015 48.896 " />
 </g>
 <g transform="translate(135.969, 116.785)" style="fill:none; stroke:#ff0101; stroke-width:0.70825; stroke-linecap:butt; stroke-linejoin:round; stroke-dasharray:none;" >
  <path d="M0 49.801 C0 49.801 0 0 0 0 " />
 </g>
 <g transform="translate(135.827, 116.983)" style="fill:none; stroke:#ff0101; stroke-width:0.70825; stroke-linecap:butt; stroke-linejoin:round; stroke-dasharray:none;" >
  <path d="M0 0 C0 0 48.501 48.896 48.501 48.896 " />
 </g>
 <g transform="translate(184.782, 116.927)" style="fill:none; stroke:#ff0101; stroke-width:0.70825; stroke-linecap:butt; stroke-linejoin:round; stroke-dasharray:none;" >
  <path d="M0 49.801 C0 49.801 0 0 0 0 " />
 </g>
 <g transform="translate(184.811, 117.011)" style="fill:none; stroke:#ff0101; stroke-width:0.70825; stroke-linecap:butt; stroke-linejoin:round; stroke-dasharray:none;" >
  <path d="M0 0 C0 0 48.501 48.896 48.501 48.896 " />
 </g>
 <g transform="translate(37.8018, 116.559)" style="fill:none; stroke:#ff0101; stroke-width:0.70825; stroke-linecap:butt; stroke-linejoin:round; stroke-dasharray:none;" >
  <path d="M0 0 C0 0 49.2109 49.688 49.2109 49.688 " />
 </g>
 <g transform="translate(37.6885, 116.389)" style="fill:none; stroke:#ff0101; stroke-width:0.70825; stroke-linecap:butt; stroke-linejoin:round; stroke-dasharray:none;" >
  <path d="M0 49.801 C0 49.801 0 0 0 0 " />
 </g>
 <g transform="translate(12.1465, 139.494)" style="fill:none; stroke:#ff0101; stroke-width:0.70825; stroke-linecap:butt; stroke-linejoin:round; stroke-dasharray:none;" >
  <path d="M0 0 C0 0 26.6201 26.781 26.6201 26.781 " />
 </g>
 <g transform="translate(233.511, 143.142)" style="fill:none; stroke:#ff0101; stroke-width:0.70825; stroke-linecap:butt; stroke-linejoin:round; stroke-dasharray:none;" >
  <path d="M0 23.217 C0 23.217 0.17 0 0.17 0 " />
 </g>
</svg>
