<?xml version="1.0" encoding="UTF-8"?>
<svg width="315pt" xmlns:xlink="http://www.w3.org/1999/xlink" xmlns="http://www.w3.org/2000/svg" height="229pt" viewBox="0 0 315 229" >
 <g transform="translate(87.2686, 12.1338)" style="fill:none; stroke:#010101; stroke-width:0.1; stroke-linecap:butt; stroke-linejoin:round; stroke-dasharray:none;" >
  <path d="M0.0283 214.401 C0.0283 214.401 0 0 0 0 " />
 </g>
 <g transform="translate(0.0283203, 166.334)" style="fill:none; stroke:#010101; stroke-width:0.1; stroke-linecap:butt; stroke-linejoin:round; stroke-dasharray:none;" >
  <path d="M0 0 C0 0 303.468 0 303.468 0 " />
 </g>
 <g transform="translate(87.2686, 117.408)" style="fill:none; stroke:#0101ff; stroke-width:0.708875; stroke-linecap:butt; stroke-linejoin:round; stroke-dasharray:none;" >
  <path d="M0 49.662 C0 49.662 0 0 0 0 " />
 </g>
 <g transform="translate(87.3252, 117.238)" style="fill:none; stroke:#0101ff; stroke-width:0.708875; stroke-linecap:butt; stroke-linejoin:round; stroke-dasharray:none;" >
  <path d="M48.3028 0 C48.3028 0 0 0 0 0 " />
 </g>
 <g transform="translate(135.997, 68.0859)" style="fill:none; stroke:#0101ff; stroke-width:0.708875; stroke-linecap:butt; stroke-linejoin:round; stroke-dasharray:none;" >
  <path d="M0 49.6621 C0 49.6621 0 0 0 0 " />
 </g>
 <g transform="translate(135.515, 67.9727)" style="fill:none; stroke:#0101ff; stroke-width:0.708875; stroke-linecap:butt; stroke-linejoin:round; stroke-dasharray:none;" >
  <path d="M49.778 0 C49.778 0 0 0 0 0 " />
 </g>
 <g transform="translate(185.293, 41.2002)" style="fill:none; stroke:#0101ff; stroke-width:0.708875; stroke-linecap:butt; stroke-linejoin:round; stroke-dasharray:none;" >
  <path d="M0 27.3955 C0 27.3955 0.057 0 0.057 0 " />
 </g>
 <g transform="translate(25.3154, 40.294)" style="fill:none; stroke:#010101; stroke-width:0.1; stroke-linecap:butt; stroke-linejoin:round; stroke-dasharray:1 1 1 1 ; stroke-dashoffset:0;" >
  <path d="M0 188.649 C0 188.649 188.301 0 188.301 0 " />
 </g>
 <g transform="translate(308.235, 163.558)" style="fill:#010101; fill-rule:evenodd; stroke:none; stroke-width:0; stroke-linecap:butt; stroke-linejoin:miter; stroke-dasharray:none;" >
  <path d="M0 4.165 C0 4.165 1.476 2.011 1.476 2.011 C1.476 2.011 0.085 0 0.085 0 C0.085 0 0.937 0 0.937 0 C0.937 0 1.618 0.991 1.618 0.991 C1.732 1.19 1.817 1.332 1.902 1.445 C2.015 1.275 2.128 1.104 2.214 0.991 C2.214 0.991 2.895 0 2.895 0 C2.895 0 3.746 0 3.746 0 C3.746 0 2.356 2.011 2.356 2.011 C2.356 2.011 3.831 4.165 3.831 4.165 C3.831 4.165 2.98 4.165 2.98 4.165 C2.98 4.165 2.128 2.889 2.128 2.889 C2.128 2.889 1.93 2.606 1.93 2.606 C1.93 2.606 0.852 4.165 0.852 4.165 C0.852 4.165 0 4.165 0 4.165 Z" />
 </g>
 <g transform="translate(84.3174, 3.06836)" style="fill:#010101; fill-rule:evenodd; stroke:none; stroke-width:0; stroke-linecap:butt; stroke-linejoin:miter; stroke-dasharray:none;" >
  <path d="M0.3965 5.75098 C0.3965 5.75098 0.3115 5.09961 0.3115 5.09961 C0.4824 5.12793 0.5957 5.15625 0.709 5.15625 C0.8789 5.15625 0.9931 5.12793 1.1064 5.07129 C1.1914 5.01465 1.2764 4.95801 1.333 4.87305 C1.3906 4.78809 1.4472 4.61816 1.5605 4.33398 C1.5605 4.30566 1.5889 4.24902 1.6172 4.16406 C1.6172 4.16406 0 0 0 0 C0 0 0.7656 0 0.7656 0 C0.7656 0 1.6455 2.37988 1.6455 2.37988 C1.7588 2.66309 1.873 3.00293 1.958 3.31445 C2.043 3.03125 2.1279 2.74805 2.2412 2.43652 C2.2412 2.43652 3.1211 0 3.1211 0 C3.1211 0 3.831 0 3.831 0 C3.831 0 2.2988 4.24902 2.2988 4.24902 C2.1279 4.70312 1.9863 5.01465 1.9014 5.18457 C1.7588 5.41113 1.6172 5.58105 1.4472 5.66602 C1.2764 5.7793 1.0781 5.83594 0.8506 5.83594 C0.709 5.83594 0.5674 5.80762 0.3965 5.75098 Z" />
 </g>
 <g transform="translate(76.4561, 106.954)" style="fill:#010101; fill-rule:evenodd; stroke:none; stroke-width:0; stroke-linecap:butt; stroke-linejoin:miter; stroke-dasharray:none;" >
  <path d="M3.0361 5.468 C2.0712 5.468 1.3339 5.213 0.7939 4.703 C0.2548 4.193 0 3.541 0 2.72 C0 2.21 0.1132 1.729 0.3681 1.304 C0.624 0.879 0.9931 0.567 1.4189 0.34 C1.873 0.113 2.3837 0 2.9511 0 C3.5468 0 4.0576 0.113 4.5117 0.34 C4.9658 0.595 5.3066 0.907 5.5625 1.332 C5.789 1.785 5.9023 2.238 5.9023 2.72 C5.9023 3.258 5.7607 3.74 5.5058 4.165 C5.25 4.59 4.9091 4.93 4.455 5.128 C4.0009 5.355 3.5185 5.468 3.0361 5.468 Z M3.0361 4.703 C3.7177 4.703 4.2568 4.505 4.6259 4.137 C5.0224 3.769 5.2216 3.315 5.2216 2.748 C5.2216 2.153 5.0224 1.7 4.6259 1.332 C4.2285 0.964 3.6894 0.766 2.9511 0.766 C2.497 0.766 2.0996 0.851 1.7587 0.992 C1.4189 1.162 1.163 1.389 0.9648 1.7 C0.7656 2.012 0.6806 2.352 0.6806 2.72 C0.6806 3.258 0.8505 3.74 1.2197 4.109 C1.5888 4.505 2.1845 4.703 3.0361 4.703 Z" />
 </g>
 <g transform="translate(78.1016, 102.648)" style="fill:#010101; fill-rule:evenodd; stroke:none; stroke-width:0; stroke-linecap:butt; stroke-linejoin:miter; stroke-dasharray:none;" >
  <path d="M4.1718 0.623 C4.1718 0.623 3.5761 0.623 3.5761 0.623 C4.0302 0.963 4.2568 1.388 4.2568 1.955 C4.2568 2.21 4.2002 2.437 4.1152 2.664 C4.0302 2.862 3.917 3.032 3.7744 3.145 C3.6328 3.23 3.4345 3.315 3.2353 3.343 C3.0937 3.372 2.8662 3.4 2.583 3.4 C2.583 3.4 0 3.4 0 3.4 C0 3.4 0 2.692 0 2.692 C0 2.692 2.3271 2.692 2.3271 2.692 C2.6963 2.692 2.9228 2.664 3.0654 2.635 C3.2353 2.607 3.4062 2.522 3.4912 2.352 C3.6045 2.21 3.6611 2.04 3.6611 1.813 C3.6611 1.615 3.6045 1.416 3.4912 1.218 C3.3769 1.048 3.2353 0.907 3.0654 0.822 C2.8662 0.737 2.583 0.708 2.2422 0.708 C2.2422 0.708 0 0.708 0 0.708 C0 0.708 0 0 0 0 C0 0 4.1718 0 4.1718 0 C4.1718 0 4.1718 0.623 4.1718 0.623 Z" />
 </g>
 <g transform="translate(76.6543, 99.957)" style="fill:#010101; fill-rule:evenodd; stroke:none; stroke-width:0; stroke-linecap:butt; stroke-linejoin:miter; stroke-dasharray:none;" >
  <path d="M5.0234 0.085 C5.0234 0.085 5.6475 0 5.6475 0 C5.6758 0.198 5.7041 0.368 5.7041 0.538 C5.7041 0.793 5.6758 0.991 5.5908 1.133 C5.5059 1.246 5.3926 1.359 5.25 1.416 C5.1367 1.473 4.8535 1.501 4.4277 1.501 C4.4277 1.501 1.9863 1.501 1.9863 1.501 C1.9863 1.501 1.9863 2.012 1.9863 2.012 C1.9863 2.012 1.4473 2.012 1.4473 2.012 C1.4473 2.012 1.4473 1.501 1.4473 1.501 C1.4473 1.501 0.4258 1.501 0.4258 1.501 C0.4258 1.501 0 0.793 0 0.793 C0 0.793 1.4473 0.793 1.4473 0.793 C1.4473 0.793 1.4473 0.085 1.4473 0.085 C1.4473 0.085 1.9863 0.085 1.9863 0.085 C1.9863 0.085 1.9863 0.793 1.9863 0.793 C1.9863 0.793 4.4561 0.793 4.4561 0.793 C4.6543 0.793 4.7676 0.793 4.8242 0.765 C4.8818 0.736 4.9385 0.68 4.9668 0.623 C4.9951 0.566 5.0234 0.51 5.0234 0.397 C5.0234 0.312 5.0234 0.227 5.0234 0.085 Z" />
 </g>
 <g transform="translate(78.0166, 95.7354)" style="fill:#010101; fill-rule:evenodd; stroke:none; stroke-width:0; stroke-linecap:butt; stroke-linejoin:miter; stroke-dasharray:none;" >
  <path d="M5.8467 3.5986 C5.8467 3.5986 0.085 3.5986 0.085 3.5986 C0.085 3.5986 0.085 2.9462 0.085 2.9462 C0.085 2.9462 0.624 2.9462 0.624 2.9462 C0.4258 2.8046 0.2559 2.6347 0.1416 2.4365 C0.0566 2.2382 0 2.0117 0 1.7568 C0 1.3886 0.085 1.0771 0.2842 0.8222 C0.4541 0.539 0.71 0.3398 1.0498 0.1982 C1.3906 0.0566 1.7314 0 2.1289 0 C2.5547 0 2.9512 0.0849 3.292 0.2265 C3.6328 0.3681 3.8877 0.5957 4.0586 0.8789 C4.2568 1.1904 4.3418 1.4736 4.3418 1.8134 C4.3418 2.04 4.2852 2.2382 4.2002 2.4365 C4.0869 2.6064 3.9736 2.7763 3.8311 2.8896 C3.8311 2.8896 5.8467 2.8896 5.8467 2.8896 C5.8467 2.8896 5.8467 3.5986 5.8467 3.5986 Z M2.1855 2.9746 C2.7246 2.9746 3.1221 2.8613 3.377 2.6347 C3.6328 2.4365 3.7744 2.1533 3.7744 1.8417 C3.7744 1.5302 3.6328 1.2753 3.377 1.0488 C3.1221 0.8222 2.6963 0.7089 2.1289 0.7089 C1.5889 0.7089 1.1924 0.8222 0.9365 1.0488 C0.6807 1.247 0.5391 1.5302 0.5391 1.8134 C0.5391 2.125 0.6807 2.3798 0.9648 2.6347 C1.249 2.8613 1.6465 2.9746 2.1855 2.9746 Z" />
 </g>
 <g transform="translate(78.1016, 91.4863)" style="fill:#010101; fill-rule:evenodd; stroke:none; stroke-width:0; stroke-linecap:butt; stroke-linejoin:miter; stroke-dasharray:none;" >
  <path d="M4.1718 0.6231 C4.1718 0.6231 3.5761 0.6231 3.5761 0.6231 C4.0302 0.9629 4.2568 1.3877 4.2568 1.9551 C4.2568 2.21 4.2002 2.4366 4.1152 2.6631 C4.0302 2.8614 3.917 3.0313 3.7744 3.1446 C3.6328 3.2295 3.4345 3.3145 3.2353 3.3428 C3.0937 3.3711 2.8662 3.3994 2.583 3.3994 C2.583 3.3994 0 3.3994 0 3.3994 C0 3.3994 0 2.6914 0 2.6914 C0 2.6914 2.3271 2.6914 2.3271 2.6914 C2.6963 2.6914 2.9228 2.6631 3.0654 2.6348 C3.2353 2.6065 3.4062 2.5215 3.4912 2.3516 C3.6045 2.21 3.6611 2.0401 3.6611 1.8125 C3.6611 1.6143 3.6045 1.416 3.4912 1.2178 C3.3769 1.0479 3.2353 0.9063 3.0654 0.8213 C2.8662 0.7364 2.583 0.708 2.2422 0.708 C2.2422 0.708 0 0.708 0 0.708 C0 0.708 0 0 0 0 C0 0 4.1718 0 4.1718 0 C4.1718 0 4.1718 0.6231 4.1718 0.6231 Z" />
 </g>
 <g transform="translate(76.6543, 88.8232)" style="fill:#010101; fill-rule:evenodd; stroke:none; stroke-width:0; stroke-linecap:butt; stroke-linejoin:miter; stroke-dasharray:none;" >
  <path d="M5.0234 0.085 C5.0234 0.085 5.6475 0 5.6475 0 C5.6758 0.1983 5.7041 0.3682 5.7041 0.5381 C5.7041 0.793 5.6758 0.9913 5.5908 1.1329 C5.5059 1.2461 5.3926 1.3594 5.25 1.4161 C5.1367 1.4727 4.8535 1.501 4.4277 1.501 C4.4277 1.501 1.9863 1.501 1.9863 1.501 C1.9863 1.501 1.9863 2.0118 1.9863 2.0118 C1.9863 2.0118 1.4473 2.0118 1.4473 2.0118 C1.4473 2.0118 1.4473 1.501 1.4473 1.501 C1.4473 1.501 0.4258 1.501 0.4258 1.501 C0.4258 1.501 0 0.793 0 0.793 C0 0.793 1.4473 0.793 1.4473 0.793 C1.4473 0.793 1.4473 0.085 1.4473 0.085 C1.4473 0.085 1.9863 0.085 1.9863 0.085 C1.9863 0.085 1.9863 0.793 1.9863 0.793 C1.9863 0.793 4.4561 0.793 4.4561 0.793 C4.6543 0.793 4.7676 0.793 4.8242 0.7647 C4.8818 0.7364 4.9385 0.6797 4.9668 0.6231 C4.9951 0.5664 5.0234 0.5098 5.0234 0.3965 C5.0234 0.3116 5.0234 0.2266 5.0234 0.085 Z" />
 </g>
 <g transform="translate(91.6104, 160.923)" style="fill:#010101; fill-rule:evenodd; stroke:none; stroke-width:0; stroke-linecap:butt; stroke-linejoin:miter; stroke-dasharray:none;" >
  <path d="M2.5263 5.723 C2.5263 5.723 2.5263 4.363 2.5263 4.363 C2.5263 4.363 0 4.363 0 4.363 C0 4.363 0 3.711 0 3.711 C0 3.711 2.6679 0 2.6679 0 C2.6679 0 3.2353 0 3.2353 0 C3.2353 0 3.2353 3.711 3.2353 3.711 C3.2353 3.711 4.0019 3.711 4.0019 3.711 C4.0019 3.711 4.0019 4.363 4.0019 4.363 C4.0019 4.363 3.2353 4.363 3.2353 4.363 C3.2353 4.363 3.2353 5.723 3.2353 5.723 C3.2353 5.723 2.5263 5.723 2.5263 5.723 Z M2.5263 3.711 C2.5263 3.711 2.5263 1.162 2.5263 1.162 C2.5263 1.162 0.7099 3.711 0.7099 3.711 C0.7099 3.711 2.5263 3.711 2.5263 3.711 Z" />
 </g>
 <g transform="translate(96.3496, 161.008)" style="fill:#010101; fill-rule:evenodd; stroke:none; stroke-width:0; stroke-linecap:butt; stroke-linejoin:miter; stroke-dasharray:none;" >
  <path d="M0 4.137 C0 4.137 0.71 4.08 0.71 4.08 C0.7666 4.448 0.8799 4.703 1.0791 4.873 C1.2774 5.071 1.5332 5.156 1.8164 5.156 C2.1856 5.156 2.4697 5.043 2.6963 4.788 C2.9238 4.533 3.0371 4.193 3.0371 3.768 C3.0371 3.371 2.9238 3.031 2.6963 2.805 C2.4697 2.578 2.1856 2.465 1.7881 2.465 C1.5615 2.465 1.334 2.521 1.1641 2.606 C0.9942 2.72 0.8516 2.833 0.7383 3.003 C0.7383 3.003 0.0859 2.918 0.0859 2.918 C0.0859 2.918 0.6817 0 0.6817 0 C0.6817 0 3.4629 0 3.4629 0 C3.4629 0 3.4629 0.708 3.4629 0.708 C3.4629 0.708 1.2207 0.708 1.2207 0.708 C1.2207 0.708 0.9082 2.21 0.9082 2.21 C1.249 1.955 1.6182 1.842 1.9873 1.842 C2.4981 1.842 2.9238 2.012 3.2647 2.351 C3.6045 2.691 3.7754 3.144 3.7754 3.682 C3.7754 4.193 3.6328 4.646 3.3213 5.043 C2.9522 5.496 2.4697 5.722 1.8164 5.722 C1.3057 5.722 0.8799 5.581 0.5684 5.298 C0.2275 4.986 0.0576 4.618 0 4.137 Z" />
 </g>
 <g transform="translate(100.607, 160.81)" style="fill:#010101; fill-rule:evenodd; stroke:none; stroke-width:0; stroke-linecap:butt; stroke-linejoin:miter; stroke-dasharray:none;" >
  <path d="M0 1.275 C0 0.821 0.114 0.481 0.369 0.283 C0.568 0.085 0.794 0 1.107 0 C1.419 0 1.674 0.113 1.873 0.339 C2.072 0.538 2.185 0.849 2.185 1.247 C2.185 1.558 2.128 1.813 2.043 1.983 C1.958 2.153 1.817 2.294 1.646 2.408 C1.476 2.493 1.305 2.549 1.107 2.549 C0.766 2.549 0.511 2.436 0.312 2.21 C0.114 2.011 0 1.7 0 1.275 Z M0.426 1.275 C0.426 1.586 0.483 1.813 0.624 1.983 C0.738 2.125 0.909 2.21 1.107 2.21 C1.277 2.21 1.448 2.125 1.561 1.983 C1.703 1.813 1.759 1.586 1.759 1.247 C1.759 0.962 1.703 0.736 1.561 0.566 C1.448 0.424 1.277 0.339 1.107 0.339 C0.909 0.339 0.738 0.424 0.624 0.566 C0.483 0.736 0.426 0.962 0.426 1.275 Z" />
 </g>
 <g transform="translate(37.7168, 166.9)" style="fill:none; stroke:#0101ff; stroke-width:0.708875; stroke-linecap:butt; stroke-linejoin:round; stroke-dasharray:none;" >
  <path d="M0 49.663 C0 49.663 0 0 0 0 " />
 </g>
 <g transform="translate(37.2061, 166.787)" style="fill:none; stroke:#0101ff; stroke-width:0.708875; stroke-linecap:butt; stroke-linejoin:round; stroke-dasharray:none;" >
  <path d="M49.7783 0 C49.7783 0 0 0 0 0 " />
 </g>
 <g transform="translate(90.8164, 171.49)" style="fill:#010101; fill-rule:evenodd; stroke:none; stroke-width:0.708875; stroke-linecap:butt; stroke-linejoin:miter; stroke-dasharray:none;" >
  <path d="M0 3.031 C0 2.069 0.2549 1.331 0.7656 0.793 C1.2764 0.255 1.9297 0 2.7529 0 C3.2637 0 3.7461 0.114 4.1719 0.368 C4.5967 0.623 4.9092 0.991 5.1367 1.416 C5.3633 1.87 5.4766 2.38 5.4766 2.947 C5.4766 3.541 5.3633 4.051 5.1367 4.504 C4.8809 4.958 4.5684 5.298 4.1426 5.553 C3.6895 5.78 3.2354 5.893 2.7529 5.893 C2.2129 5.893 1.7305 5.751 1.3047 5.496 C0.8789 5.241 0.5391 4.902 0.3399 4.448 C0.1133 3.994 0 3.513 0 3.031 Z M0.7656 3.031 C0.7656 3.711 0.9649 4.249 1.333 4.617 C1.7022 5.015 2.1563 5.213 2.7236 5.213 C3.3203 5.213 3.7744 5.015 4.1426 4.617 C4.5117 4.221 4.7109 3.683 4.7109 2.947 C4.7109 2.493 4.626 2.097 4.4834 1.756 C4.3135 1.416 4.0859 1.161 3.7744 0.963 C3.4619 0.765 3.1211 0.68 2.7529 0.68 C2.2129 0.68 1.7305 0.85 1.3623 1.218 C0.9649 1.586 0.7656 2.182 0.7656 3.031 Z" />
 </g>
 <g transform="translate(190.486, 171.604)" style="fill:#010101; fill-rule:evenodd; stroke:none; stroke-width:0.708875; stroke-linecap:butt; stroke-linejoin:miter; stroke-dasharray:none;" >
  <path d="M0 5.722 C0 5.722 0 0 0 0 C0 0 0.767 0 0.767 0 C0.767 0 0.767 5.722 0.767 5.722 C0.767 5.722 0 5.722 0 5.722 Z" />
 </g>
 <g transform="translate(192.587, 173.076)" style="fill:#010101; fill-rule:evenodd; stroke:none; stroke-width:0.708875; stroke-linecap:butt; stroke-linejoin:miter; stroke-dasharray:none;" >
  <path d="M0 4.25 C0 4.25 0 0.085 0 0.085 C0 0.085 0.652 0.085 0.652 0.085 C0.652 0.085 0.652 0.681 0.652 0.681 C0.965 0.228 1.391 0 1.958 0 C2.214 0 2.44 0.057 2.639 0.142 C2.866 0.228 3.008 0.341 3.121 0.483 C3.235 0.624 3.292 0.822 3.349 1.021 C3.377 1.134 3.377 1.361 3.377 1.7 C3.377 1.7 3.377 4.25 3.377 4.25 C3.377 4.25 2.667 4.25 2.667 4.25 C2.667 4.25 2.667 1.7 2.667 1.7 C2.667 1.417 2.639 1.219 2.582 1.077 C2.525 0.936 2.44 0.822 2.299 0.737 C2.156 0.653 1.986 0.596 1.816 0.596 C1.504 0.596 1.248 0.681 1.021 0.879 C0.823 1.077 0.709 1.445 0.709 1.984 C0.709 1.984 0.709 4.25 0.709 4.25 C0.709 4.25 0 4.25 0 4.25 Z" />
 </g>
 <g transform="translate(197.014, 173.076)" style="fill:#010101; fill-rule:evenodd; stroke:none; stroke-width:0.708875; stroke-linecap:butt; stroke-linejoin:miter; stroke-dasharray:none;" >
  <path d="M0 5.836 C0 5.836 0 0.085 0 0.085 C0 0.085 0.653 0.085 0.653 0.085 C0.653 0.085 0.653 0.624 0.653 0.624 C0.795 0.426 0.965 0.256 1.164 0.142 C1.362 0.057 1.59 0 1.844 0 C2.214 0 2.526 0.085 2.781 0.284 C3.065 0.454 3.263 0.709 3.406 1.049 C3.548 1.389 3.604 1.729 3.604 2.125 C3.604 2.55 3.519 2.946 3.378 3.287 C3.235 3.627 3.008 3.882 2.724 4.052 C2.412 4.25 2.129 4.335 1.788 4.335 C1.561 4.335 1.362 4.278 1.164 4.194 C0.993 4.08 0.823 3.967 0.71 3.825 C0.71 3.825 0.71 5.836 0.71 5.836 C0.71 5.836 0 5.836 0 5.836 Z M0.625 2.182 C0.625 2.72 0.738 3.117 0.965 3.372 C1.164 3.627 1.447 3.769 1.759 3.769 C2.072 3.769 2.327 3.627 2.554 3.372 C2.781 3.117 2.895 2.692 2.895 2.125 C2.895 1.587 2.781 1.191 2.554 0.936 C2.355 0.681 2.072 0.539 1.788 0.539 C1.475 0.539 1.22 0.681 0.965 0.964 C0.738 1.247 0.625 1.644 0.625 2.182 Z" />
 </g>
 <g transform="translate(201.47, 173.161)" style="fill:#010101; fill-rule:evenodd; stroke:none; stroke-width:0.708875; stroke-linecap:butt; stroke-linejoin:miter; stroke-dasharray:none;" >
  <path d="M2.781 4.165 C2.781 4.165 2.781 3.57 2.781 3.57 C2.44 4.024 2.014 4.25 1.447 4.25 C1.191 4.25 0.965 4.193 0.737 4.109 C0.539 4.024 0.369 3.91 0.255 3.769 C0.17 3.627 0.085 3.429 0.056 3.231 C0.028 3.089 0 2.861 0 2.578 C0 2.578 0 0 0 0 C0 0 0.709 0 0.709 0 C0.709 0 0.709 2.323 0.709 2.323 C0.709 2.692 0.737 2.918 0.766 3.061 C0.795 3.231 0.88 3.401 1.05 3.485 C1.191 3.599 1.362 3.655 1.589 3.655 C1.788 3.655 1.986 3.599 2.185 3.485 C2.355 3.372 2.497 3.231 2.582 3.061 C2.668 2.861 2.696 2.578 2.696 2.238 C2.696 2.238 2.696 0 2.696 0 C2.696 0 3.405 0 3.405 0 C3.405 0 3.405 4.165 3.405 4.165 C3.405 4.165 2.781 4.165 2.781 4.165 Z" />
 </g>
 <g transform="translate(205.528, 171.717)" style="fill:#010101; fill-rule:evenodd; stroke:none; stroke-width:0.708875; stroke-linecap:butt; stroke-linejoin:miter; stroke-dasharray:none;" >
  <path d="M1.93 5.014 C1.93 5.014 2.015 5.637 2.015 5.637 C1.817 5.666 1.646 5.694 1.476 5.694 C1.22 5.694 1.022 5.666 0.88 5.581 C0.766 5.496 0.653 5.383 0.596 5.241 C0.539 5.128 0.511 4.845 0.511 4.42 C0.511 4.42 0.511 1.983 0.511 1.983 C0.511 1.983 0 1.983 0 1.983 C0 1.983 0 1.444 0 1.444 C0 1.444 0.511 1.444 0.511 1.444 C0.511 1.444 0.511 0.425 0.511 0.425 C0.511 0.425 1.22 0 1.22 0 C1.22 0 1.22 1.444 1.22 1.444 C1.22 1.444 1.93 1.444 1.93 1.444 C1.93 1.444 1.93 1.983 1.93 1.983 C1.93 1.983 1.22 1.983 1.22 1.983 C1.22 1.983 1.22 4.448 1.22 4.448 C1.22 4.646 1.22 4.76 1.248 4.816 C1.277 4.873 1.333 4.929 1.391 4.958 C1.448 4.986 1.504 5.014 1.618 5.014 C1.702 5.014 1.787 5.014 1.93 5.014 Z" />
 </g>
 <g transform="translate(124.588, 84.6582)" style="fill:#018001; fill-rule:evenodd; stroke:none; stroke-width:0.708875; stroke-linecap:butt; stroke-linejoin:miter; stroke-dasharray:none;" >
  <path d="M4.569 5.1563 C4.938 5.4111 5.251 5.5811 5.562 5.7227 C5.562 5.7227 5.308 6.2334 5.308 6.2334 C4.91 6.0918 4.513 5.8652 4.087 5.5244 C3.661 5.7793 3.207 5.8936 2.696 5.8936 C2.185 5.8936 1.731 5.7793 1.306 5.5244 C0.88 5.2695 0.568 4.9297 0.341 4.4766 C0.114 4.0234 0 3.5137 0 2.9463 C0 2.3799 0.114 1.8701 0.341 1.417 C0.568 0.9639 0.88 0.5957 1.306 0.3691 C1.731 0.1133 2.185 0 2.725 0 C3.235 0 3.718 0.1133 4.143 0.3691 C4.541 0.624 4.882 0.9639 5.08 1.417 C5.308 1.8701 5.421 2.3516 5.421 2.918 C5.421 3.4004 5.364 3.7969 5.223 4.1934 C5.08 4.5615 4.853 4.8731 4.569 5.1563 Z M2.924 4.1934 C3.35 4.3066 3.718 4.5049 4.002 4.7314 C4.428 4.335 4.654 3.7402 4.654 2.9463 C4.654 2.4932 4.569 2.0967 4.428 1.7568 C4.257 1.417 4.03 1.1621 3.746 0.9639 C3.434 0.7656 3.094 0.6807 2.725 0.6807 C2.157 0.6807 1.703 0.8789 1.334 1.2471 C0.965 1.6152 0.766 2.1816 0.766 2.9463 C0.766 3.6836 0.936 4.25 1.306 4.6182 C1.675 5.0147 2.157 5.2129 2.725 5.2129 C2.98 5.2129 3.235 5.1563 3.491 5.0713 C3.235 4.9014 3.009 4.8164 2.725 4.7314 C2.725 4.7314 2.924 4.1934 2.924 4.1934 Z" />
 </g>
 <g transform="translate(130.775, 91.3164)" style="fill:#018001; fill-rule:evenodd; stroke:none; stroke-width:0.708875; stroke-linecap:butt; stroke-linejoin:miter; stroke-dasharray:none;" >
  <path d="M0 3.4277 C0 3.4277 0 0.0566 0 0.0566 C0 0.0566 0.426 0.0566 0.426 0.0566 C0.426 0.0566 0.426 0.3682 0.426 0.3682 C0.511 0.2266 0.596 0.1416 0.709 0.085 C0.823 0.0283 0.965 0 1.107 0 C1.305 0 1.476 0.0566 1.646 0.1699 C1.788 0.2549 1.902 0.4248 1.987 0.6231 C2.072 0.8213 2.1 1.0195 2.1 1.2461 C2.1 1.501 2.043 1.7275 1.958 1.9258 C1.873 2.125 1.759 2.2949 1.589 2.3799 C1.419 2.4932 1.248 2.5498 1.05 2.5498 C0.909 2.5498 0.794 2.5215 0.681 2.4649 C0.596 2.4082 0.483 2.3232 0.426 2.2383 C0.426 2.2383 0.426 3.4277 0.426 3.4277 C0.426 3.4277 0 3.4277 0 3.4277 Z M0.426 1.2744 C0.426 1.5859 0.483 1.8408 0.596 1.9824 C0.738 2.125 0.88 2.21 1.05 2.21 C1.22 2.21 1.363 2.125 1.476 1.9824 C1.618 1.8125 1.674 1.5859 1.674 1.2461 C1.674 0.9346 1.618 0.708 1.504 0.5381 C1.363 0.3965 1.22 0.3115 1.05 0.3115 C0.88 0.3115 0.738 0.3965 0.624 0.5664 C0.483 0.7363 0.426 0.9629 0.426 1.2744 Z" />
 </g>
 <g transform="translate(134.124, 70.8906)" style="fill:none; stroke:#018001; stroke-width:0.1; stroke-linecap:butt; stroke-linejoin:miter; stroke-dasharray:none;" >
  <path d="M0 42.8914 C0 42.8914 0 0 0 0 " />
 </g>
 <g transform="translate(133.414, 113.017)" style="fill:#018001; fill-rule:evenodd; stroke:none; stroke-width:0.028355; stroke-linecap:butt; stroke-linejoin:miter; stroke-dasharray:none;" >
  <path d="M0 0 C0 0 1.447 0 1.447 0 C1.447 0 0.653 3.825 0.653 3.825 C0.653 3.825 0 0 0 0 Z" />
 </g>
 <g transform="translate(133.414, 67.831)" style="fill:#018001; fill-rule:evenodd; stroke:none; stroke-width:0.028355; stroke-linecap:butt; stroke-linejoin:miter; stroke-dasharray:none;" >
  <path d="M1.447 3.8243 C1.447 3.8243 0 3.8243 0 3.8243 C0 3.8243 0.767 0 0.767 0 C0.767 0 1.447 3.8243 1.447 3.8243 Z" />
 </g>
 <g transform="translate(138.438, 65.5645)" style="fill:none; stroke:#018001; stroke-width:0.1; stroke-linecap:butt; stroke-linejoin:miter; stroke-dasharray:none;" >
  <path d="M42.967 0 C42.967 0 0 0 0 0 " />
 </g>
 <g transform="translate(180.639, 64.8565)" style="fill:#018001; fill-rule:evenodd; stroke:none; stroke-width:0.028355; stroke-linecap:butt; stroke-linejoin:miter; stroke-dasharray:none;" >
  <path d="M0 1.4443 C0 1.4443 0 0 0 0 C0 0 3.831 0.7646 3.831 0.7646 C3.831 0.7646 0 1.4443 0 1.4443 Z" />
 </g>
 <g transform="translate(135.373, 64.8565)" style="fill:#018001; fill-rule:evenodd; stroke:none; stroke-width:0.028355; stroke-linecap:butt; stroke-linejoin:miter; stroke-dasharray:none;" >
  <path d="M3.831 0 C3.831 0 3.831 1.4443 3.831 1.4443 C3.831 1.4443 0 0.6513 0 0.6513 C0 0.6513 3.831 0 3.831 0 Z" />
 </g>
 <g transform="translate(155.664, 54.8838)" style="fill:#018001; fill-rule:evenodd; stroke:none; stroke-width:0.028355; stroke-linecap:butt; stroke-linejoin:miter; stroke-dasharray:none;" >
  <path d="M4.569 5.1562 C4.939 5.4111 5.251 5.581 5.563 5.7226 C5.563 5.7226 5.308 6.2324 5.308 6.2324 C4.91 6.0908 4.513 5.8642 4.087 5.5244 C3.661 5.7793 3.207 5.8926 2.696 5.8926 C2.186 5.8926 1.732 5.7793 1.306 5.5244 C0.88 5.2695 0.567 4.9297 0.341 4.4766 C0.113 4.0225 0 3.5127 0 2.9463 C0 2.3799 0.113 1.8701 0.341 1.417 C0.567 0.9629 0.88 0.5947 1.306 0.3682 C1.732 0.1133 2.186 0 2.725 0 C3.235 0 3.718 0.1133 4.144 0.3682 C4.541 0.623 4.882 0.9629 5.08 1.417 C5.308 1.8701 5.421 2.3516 5.421 2.918 C5.421 3.3994 5.364 3.7959 5.222 4.1933 C5.08 4.5615 4.854 4.873 4.569 5.1562 Z M2.924 4.1933 C3.349 4.3066 3.718 4.5049 4.002 4.7314 C4.428 4.335 4.654 3.7392 4.654 2.9463 C4.654 2.4932 4.569 2.0967 4.428 1.7568 C4.257 1.417 4.03 1.1611 3.746 0.9629 C3.435 0.7646 3.094 0.6797 2.725 0.6797 C2.157 0.6797 1.703 0.8779 1.334 1.2461 C0.965 1.6152 0.767 2.1816 0.767 2.9463 C0.767 3.6826 0.937 4.25 1.306 4.6182 C1.675 5.0146 2.157 5.2129 2.725 5.2129 C2.981 5.2129 3.235 5.1562 3.491 5.0713 C3.235 4.9014 3.009 4.8164 2.725 4.7314 C2.725 4.7314 2.924 4.1933 2.924 4.1933 Z" />
 </g>
 <g transform="translate(161.852, 61.541)" style="fill:#018001; fill-rule:evenodd; stroke:none; stroke-width:0.028355; stroke-linecap:butt; stroke-linejoin:miter; stroke-dasharray:none;" >
  <path d="M0 3.4287 C0 3.4287 0 0.0567 0 0.0567 C0 0.0567 0.424 0.0567 0.424 0.0567 C0.424 0.0567 0.424 0.3682 0.424 0.3682 C0.51 0.2266 0.595 0.1416 0.709 0.085 C0.822 0.0283 0.964 0 1.106 0 C1.304 0 1.475 0.0567 1.645 0.1699 C1.787 0.2549 1.901 0.4258 1.986 0.624 C2.071 0.8223 2.099 1.0205 2.099 1.2471 C2.099 1.502 2.043 1.7285 1.958 1.9268 C1.873 2.125 1.758 2.2949 1.588 2.3799 C1.419 2.4932 1.248 2.5498 1.049 2.5498 C0.908 2.5498 0.794 2.5215 0.68 2.4649 C0.595 2.4082 0.482 2.3233 0.424 2.2383 C0.424 2.2383 0.424 3.4287 0.424 3.4287 C0.424 3.4287 0 3.4287 0 3.4287 Z M0.424 1.2754 C0.424 1.5869 0.482 1.8418 0.595 1.9834 C0.737 2.125 0.878 2.21 1.049 2.21 C1.219 2.21 1.361 2.125 1.475 1.9834 C1.617 1.8135 1.673 1.5869 1.673 1.2471 C1.673 0.9356 1.617 0.709 1.503 0.5391 C1.361 0.3975 1.219 0.3115 1.049 0.3115 C0.878 0.3115 0.737 0.3975 0.624 0.5674 C0.482 0.7373 0.424 0.9639 0.424 1.2754 Z" />
 </g>
</svg>
