<?xml version="1.0" encoding="UTF-8"?>
<svg width="292pt" xmlns:xlink="http://www.w3.org/1999/xlink" xmlns="http://www.w3.org/2000/svg" height="222pt" viewBox="0 0 292 222" >
 <g transform="translate(30.875, 12.3584)" style="fill:none; stroke:#010101; stroke-width:0.1; stroke-linecap:butt; stroke-linejoin:round; stroke-dasharray:none;" >
  <path d="M0 209.585 C0 209.585 0 0 0 0 " />
 </g>
 <g transform="translate(15.876, 167.437)" style="fill:none; stroke:#010101; stroke-width:0.1; stroke-linecap:butt; stroke-linejoin:round; stroke-dasharray:none;" >
  <path d="M266.954 0.028 C266.954 0.028 0 0 0 0 " />
 </g>
 <g transform="translate(29.7998, 126.187)" style="fill:none; stroke:#0101ff; stroke-width:0.707875; stroke-linecap:butt; stroke-linejoin:round; stroke-dasharray:none;" >
  <path d="M0 40.966 C0 40.966 40.9502 0 40.9502 0 " />
 </g>
 <g transform="translate(70.4385, 125.678)" style="fill:none; stroke:#0101ff; stroke-width:0.707875; stroke-linecap:butt; stroke-linejoin:round; stroke-dasharray:none;" >
  <path d="M40.9505 40.966 C40.9505 40.966 0 0 0 0 " />
 </g>
 <g transform="translate(110.88, 126.187)" style="fill:none; stroke:#0101ff; stroke-width:0.707875; stroke-linecap:butt; stroke-linejoin:round; stroke-dasharray:none;" >
  <path d="M0 40.966 C0 40.966 40.949 0 40.949 0 " />
 </g>
 <g transform="translate(151.49, 125.678)" style="fill:none; stroke:#0101ff; stroke-width:0.707875; stroke-linecap:butt; stroke-linejoin:round; stroke-dasharray:none;" >
  <path d="M40.95 40.966 C40.95 40.966 0 0 0 0 " />
 </g>
 <g transform="translate(191.959, 126.187)" style="fill:none; stroke:#0101ff; stroke-width:0.707875; stroke-linecap:butt; stroke-linejoin:round; stroke-dasharray:none;" >
  <path d="M0 40.966 C0 40.966 40.95 0 40.95 0 " />
 </g>
 <g transform="translate(232.569, 125.678)" style="fill:none; stroke:#0101ff; stroke-width:0.707875; stroke-linecap:butt; stroke-linejoin:round; stroke-dasharray:none;" >
  <path d="M40.951 40.966 C40.951 40.966 0 0 0 0 " />
 </g>
 <g transform="translate(27.2529, 142.449)" style="fill:none; stroke:#ff0101; stroke-width:0.1; stroke-linecap:butt; stroke-linejoin:miter; stroke-dasharray:none;" >
  <path d="M0 2.89 C0 2.89 0.0284 0 0.0284 0 " />
 </g>
 <g transform="translate(26.9131, 144.971)" style="fill:#ff0101; fill-rule:evenodd; stroke:none; stroke-width:0.028315; stroke-linecap:butt; stroke-linejoin:miter; stroke-dasharray:none;" >
  <path d="M0 0 C0 0 0.708 0 0.708 0 C0.708 0 0.3115 1.87 0.3115 1.87 C0.3115 1.87 0 0 0 0 Z" />
 </g>
 <g transform="translate(26.9131, 140.948)" style="fill:#ff0101; fill-rule:evenodd; stroke:none; stroke-width:0.028315; stroke-linecap:butt; stroke-linejoin:miter; stroke-dasharray:none;" >
  <path d="M0.708 1.869 C0.708 1.869 0 1.869 0 1.869 C0 1.869 0.3965 0 0.3965 0 C0.3965 0 0.708 1.869 0.708 1.869 Z" />
 </g>
 <g transform="translate(112.945, 126.159)" style="fill:none; stroke:#018001; stroke-width:0.1; stroke-linecap:butt; stroke-linejoin:miter; stroke-dasharray:none;" >
  <path d="M0 36.999 C0 36.999 35.205 0 35.205 0 " />
 </g>
 <g transform="translate(110.823, 162.11)" style="fill:#018001; fill-rule:evenodd; stroke:none; stroke-width:0.028315; stroke-linecap:butt; stroke-linejoin:miter; stroke-dasharray:none;" >
  <path d="M2.151 0 C2.151 0 3.169 0.992 3.169 0.992 C3.169 0.992 0 3.23 0 3.23 C0 3.23 2.151 0 2.151 0 Z" />
 </g>
 <g transform="translate(147.104, 123.979)" style="fill:#018001; fill-rule:evenodd; stroke:none; stroke-width:0.028315; stroke-linecap:butt; stroke-linejoin:miter; stroke-dasharray:none;" >
  <path d="M1.018 3.229 C1.018 3.229 0 2.237 0 2.237 C0 2.237 3.169 0 3.169 0 C3.169 0 1.018 3.229 1.018 3.229 Z" />
 </g>
 <g transform="translate(155.424, 126.613)" style="fill:none; stroke:#018001; stroke-width:0.1; stroke-linecap:butt; stroke-linejoin:miter; stroke-dasharray:none;" >
  <path d="M36.082 36.149 C36.082 36.149 0 0 0 0 " />
 </g>
 <g transform="translate(190.459, 161.714)" style="fill:#018001; fill-rule:evenodd; stroke:none; stroke-width:0.028315; stroke-linecap:butt; stroke-linejoin:miter; stroke-dasharray:none;" >
  <path d="M0 1.019 C0 1.019 1.019 0 1.019 0 C1.019 0 3.17 3.229 3.17 3.229 C3.17 3.229 0 1.019 0 1.019 Z" />
 </g>
 <g transform="translate(153.301, 124.432)" style="fill:#018001; fill-rule:evenodd; stroke:none; stroke-width:0.028315; stroke-linecap:butt; stroke-linejoin:miter; stroke-dasharray:none;" >
  <path d="M3.17 2.21 C3.17 2.21 2.151 3.229 2.151 3.229 C2.151 3.229 0 0 0 0 C0 0 3.17 2.21 3.17 2.21 Z" />
 </g>
 <g transform="translate(151.942, 127.123)" style="fill:none; stroke:#010101; stroke-width:0.1; stroke-linecap:butt; stroke-linejoin:round; stroke-dasharray:1 1 1 1 ; stroke-dashoffset:0;" >
  <path d="M0.029 40.087 C0.029 40.087 0 0 0 0 " />
 </g>
 <g transform="translate(114.219, 169.307)" style="fill:none; stroke:#018001; stroke-width:0.1; stroke-linecap:butt; stroke-linejoin:miter; stroke-dasharray:none;" >
  <path d="M0 0.141 C0 0.141 35.12 0 35.12 0 " />
 </g>
 <g transform="translate(111.162, 168.739)" style="fill:#018001; fill-rule:evenodd; stroke:none; stroke-width:0.028315; stroke-linecap:butt; stroke-linejoin:miter; stroke-dasharray:none;" >
  <path d="M3.821 0 C3.821 0 3.821 1.446 3.821 1.446 C3.821 1.446 0 0.681 0 0.681 C0 0.681 3.821 0 3.821 0 Z" />
 </g>
 <g transform="translate(148.575, 168.569)" style="fill:#018001; fill-rule:evenodd; stroke:none; stroke-width:0.028315; stroke-linecap:butt; stroke-linejoin:miter; stroke-dasharray:none;" >
  <path d="M0 1.446 C0 1.446 0 0 0 0 C0 0 3.82 0.766 3.82 0.766 C3.82 0.766 0 1.446 0 1.446 Z" />
 </g>
 <g transform="translate(107.455, 172.111)" style="fill:#010101; fill-rule:evenodd; stroke:none; stroke-width:0.028315; stroke-linecap:butt; stroke-linejoin:miter; stroke-dasharray:none;" >
  <path d="M0 5.723 C0 5.723 2.179 0 2.179 0 C2.179 0 3.028 0 3.028 0 C3.028 0 5.32 5.723 5.32 5.723 C5.32 5.723 4.472 5.723 4.472 5.723 C4.472 5.723 3.849 3.994 3.849 3.994 C3.849 3.994 1.415 3.994 1.415 3.994 C1.415 3.994 0.82 5.723 0.82 5.723 C0.82 5.723 0 5.723 0 5.723 Z M1.642 3.371 C1.642 3.371 3.622 3.371 3.622 3.371 C3.622 3.371 3 1.785 3 1.785 C2.83 1.303 2.689 0.907 2.604 0.595 C2.49 0.963 2.405 1.331 2.264 1.7 C2.264 1.7 1.642 3.371 1.642 3.371 Z" />
 </g>
 <g transform="translate(149.424, 115.819)" style="fill:#010101; fill-rule:evenodd; stroke:none; stroke-width:0.028315; stroke-linecap:butt; stroke-linejoin:miter; stroke-dasharray:none;" >
  <path d="M0 5.723 C0 5.723 0 0 0 0 C0 0 2.123 0 2.123 0 C2.575 0 2.915 0.057 3.17 0.17 C3.453 0.284 3.65 0.482 3.792 0.708 C3.933 0.963 4.018 1.218 4.018 1.473 C4.018 1.728 3.962 1.955 3.82 2.154 C3.679 2.38 3.481 2.55 3.198 2.692 C3.566 2.805 3.82 2.975 4.018 3.202 C4.217 3.456 4.302 3.74 4.302 4.079 C4.302 4.334 4.245 4.589 4.132 4.817 C4.018 5.043 3.877 5.213 3.707 5.355 C3.538 5.468 3.34 5.553 3.085 5.638 C2.83 5.695 2.547 5.723 2.18 5.723 C2.18 5.723 0 5.723 0 5.723 Z M0.764 2.409 C0.764 2.409 1.981 2.409 1.981 2.409 C2.292 2.409 2.547 2.38 2.688 2.352 C2.887 2.295 3.028 2.182 3.113 2.069 C3.198 1.926 3.255 1.756 3.255 1.558 C3.255 1.36 3.198 1.19 3.113 1.048 C3.028 0.907 2.915 0.822 2.745 0.765 C2.575 0.708 2.292 0.68 1.896 0.68 C1.896 0.68 0.764 0.68 0.764 0.68 C0.764 0.68 0.764 2.409 0.764 2.409 Z M0.764 5.043 C0.764 5.043 2.18 5.043 2.18 5.043 C2.433 5.043 2.603 5.043 2.688 5.015 C2.887 4.987 3.028 4.93 3.141 4.873 C3.255 4.788 3.34 4.674 3.425 4.533 C3.51 4.419 3.538 4.249 3.538 4.051 C3.538 3.853 3.481 3.683 3.34 3.513 C3.226 3.343 3.085 3.258 2.887 3.173 C2.688 3.117 2.405 3.088 2.066 3.088 C2.066 3.088 0.764 3.088 0.764 3.088 C0.764 3.088 0.764 5.043 0.764 5.043 Z" />
 </g>
 <g transform="translate(31.1865, 171.119)" style="fill:#010101; fill-rule:evenodd; stroke:none; stroke-width:0.028315; stroke-linecap:butt; stroke-linejoin:miter; stroke-dasharray:none;" >
  <path d="M0 3.031 C0 2.069 0.2549 1.332 0.7647 0.793 C1.2735 0.255 1.9248 0 2.7451 0 C3.2549 0 3.7354 0.113 4.1602 0.368 C4.585 0.623 4.8955 0.992 5.1221 1.417 C5.3487 1.87 5.4619 2.38 5.4619 2.946 C5.4619 3.541 5.3487 4.052 5.1221 4.505 C4.8682 4.958 4.5567 5.298 4.1319 5.553 C3.6787 5.779 3.2266 5.893 2.7451 5.893 C2.2071 5.893 1.7266 5.751 1.3018 5.496 C0.877 5.241 0.5381 4.902 0.3399 4.448 C0.1133 3.995 0 3.513 0 3.031 Z M0.7647 3.031 C0.7647 3.711 0.9619 4.25 1.3301 4.618 C1.6983 5.015 2.1514 5.213 2.7168 5.213 C3.3115 5.213 3.7637 5.015 4.1319 4.618 C4.5 4.222 4.6983 3.683 4.6983 2.946 C4.6983 2.493 4.6133 2.097 4.4717 1.757 C4.3018 1.417 4.0752 1.162 3.7637 0.964 C3.4531 0.765 3.1133 0.68 2.7451 0.68 C2.2071 0.68 1.7266 0.85 1.3584 1.219 C0.9619 1.587 0.7647 2.182 0.7647 3.031 Z" />
 </g>
 <g transform="translate(29.9131, 126.074)" style="fill:none; stroke:#010101; stroke-width:0.1; stroke-linecap:butt; stroke-linejoin:round; stroke-dasharray:1 1 1 1 ; stroke-dashoffset:0;" >
  <path d="M40.0449 0 C40.0449 0 0 0 0 0 " />
 </g>
 <g transform="translate(0.396484, 122.052)" style="fill:#ff0101; fill-rule:evenodd; stroke:none; stroke-width:0; stroke-linecap:butt; stroke-linejoin:miter; stroke-dasharray:none;" >
  <path d="M0 2.918 C0 2.238 0.056641 1.7 0.198243 1.274 C0.338868 0.849 0.53711 0.538 0.820316 0.34 C1.10352 0.113 1.44336 0 1.86719 0 C2.1504 0 2.4336 0.056 2.66016 0.198 C2.88672 0.311 3.08399 0.481 3.22559 0.708 C3.36719 0.934 3.48047 1.218 3.56543 1.558 C3.6504 1.898 3.70704 2.351 3.70704 2.918 C3.70704 3.569 3.6504 4.107 3.50879 4.533 C3.36719 4.929 3.16895 5.269 2.88672 5.468 C2.60352 5.694 2.26368 5.807 1.86719 5.807 C1.30176 5.807 0.876956 5.609 0.56543 5.241 C0.198243 4.76 0 3.966 0 2.918 Z M0.707036 2.918 C0.707036 3.852 0.820316 4.476 1.04688 4.788 C1.24512 5.099 1.52832 5.241 1.86719 5.241 C2.17872 5.241 2.46192 5.099 2.66016 4.788 C2.88672 4.476 3 3.852 3 2.918 C3 1.983 2.88672 1.359 2.66016 1.048 C2.46192 0.736 2.17872 0.594 1.83887 0.594 C1.52832 0.594 1.27344 0.736 1.0752 0.991 C0.820316 1.359 0.707036 1.983 0.707036 2.918 Z" />
 </g>
 <g transform="translate(5.17871, 126.981)" style="fill:#ff0101; fill-rule:evenodd; stroke:none; stroke-width:0; stroke-linecap:butt; stroke-linejoin:miter; stroke-dasharray:none;" >
  <path d="M0 0.793 C0 0.793 0 0 0 0 C0 0 0.79297 0 0.79297 0 C0.79297 0 0.79297 0.793 0.79297 0.793 C0.79297 0.793 0 0.793 0 0.793 Z" />
 </g>
 <g transform="translate(7.10352, 122.137)" style="fill:#ff0101; fill-rule:evenodd; stroke:none; stroke-width:0; stroke-linecap:butt; stroke-linejoin:miter; stroke-dasharray:none;" >
  <path d="M0 0.708 C0 0.708 0 0 0 0 C0 0 3.70698 0 3.70698 0 C3.70698 0 3.70698 0.566 3.70698 0.566 C3.33888 0.963 2.97168 1.473 2.60351 2.125 C2.23535 2.748 1.98046 3.399 1.78222 4.079 C1.6416 4.561 1.52832 5.071 1.5 5.637 C1.5 5.637 0.79199 5.637 0.79199 5.637 C0.79199 5.184 0.87695 4.646 1.04687 4.022 C1.21679 3.399 1.47168 2.776 1.78222 2.181 C2.09375 1.615 2.43359 1.104 2.80175 0.708 C2.80175 0.708 0 0.708 0 0.708 Z" />
 </g>
 <g transform="translate(11.5469, 122.052)" style="fill:#ff0101; fill-rule:evenodd; stroke:none; stroke-width:0; stroke-linecap:butt; stroke-linejoin:miter; stroke-dasharray:none;" >
  <path d="M0 2.918 C0 2.238 0.0556 1.7 0.1972 1.274 C0.3388 0.849 0.5371 0.538 0.8203 0.34 C1.1035 0.113 1.4424 0 1.8672 0 C2.1504 0 2.4336 0.056 2.6601 0.198 C2.8857 0.311 3.084 0.481 3.2256 0.708 C3.3672 0.934 3.4804 1.218 3.5654 1.558 C3.6504 1.898 3.707 2.351 3.707 2.918 C3.707 3.569 3.6504 4.107 3.5088 4.533 C3.3672 4.929 3.1689 5.269 2.8857 5.468 C2.6035 5.694 2.2636 5.807 1.8672 5.807 C1.3017 5.807 0.8769 5.609 0.5654 5.241 C0.1972 4.76 0 3.966 0 2.918 Z M0.707 2.918 C0.707 3.852 0.8203 4.476 1.0469 4.788 C1.2451 5.099 1.5273 5.241 1.8672 5.241 C2.1787 5.241 2.4619 5.099 2.6601 4.788 C2.8857 4.476 2.999 3.852 2.999 2.918 C2.999 1.983 2.8857 1.359 2.6601 1.048 C2.4619 0.736 2.1787 0.594 1.8388 0.594 C1.5273 0.594 1.2734 0.736 1.0752 0.991 C0.8203 1.359 0.707 1.983 0.707 2.918 Z" />
 </g>
 <g transform="translate(15.9609, 122.137)" style="fill:#ff0101; fill-rule:evenodd; stroke:none; stroke-width:0; stroke-linecap:butt; stroke-linejoin:miter; stroke-dasharray:none;" >
  <path d="M0 0.708 C0 0.708 0 0 0 0 C0 0 3.708 0 3.708 0 C3.708 0 3.708 0.566 3.708 0.566 C3.3399 0.963 2.9717 1.473 2.6036 2.125 C2.2364 2.748 1.9815 3.399 1.7832 4.079 C1.6416 4.561 1.5284 5.071 1.5 5.637 C1.5 5.637 0.793 5.637 0.793 5.637 C0.793 5.184 0.878 4.646 1.0479 4.022 C1.2168 3.399 1.4717 2.776 1.7832 2.181 C2.0948 1.615 2.4336 1.104 2.8018 0.708 C2.8018 0.708 0 0.708 0 0.708 Z" />
 </g>
 <g transform="translate(20.4043, 121.967)" style="fill:#ff0101; fill-rule:evenodd; stroke:none; stroke-width:0; stroke-linecap:butt; stroke-linejoin:miter; stroke-dasharray:none;" >
  <path d="M4.5566 5.156 C4.9238 5.411 5.2353 5.581 5.5469 5.722 C5.5469 5.722 5.292 6.232 5.292 6.232 C4.8955 6.091 4.5 5.864 4.0752 5.524 C3.6504 5.779 3.1982 5.892 2.6885 5.892 C2.1787 5.892 1.7266 5.779 1.3018 5.524 C0.877 5.269 0.5664 4.929 0.3398 4.476 C0.1133 4.022 0 3.512 0 2.946 C0 2.38 0.1133 1.87 0.3398 1.416 C0.5664 0.963 0.877 0.595 1.3018 0.368 C1.7266 0.113 2.1787 0 2.7168 0 C3.2266 0 3.707 0.113 4.1318 0.368 C4.5283 0.623 4.8672 0.963 5.0654 1.416 C5.292 1.87 5.4053 2.351 5.4053 2.918 C5.4053 3.399 5.3486 3.796 5.207 4.192 C5.0654 4.561 4.8389 4.873 4.5566 5.156 Z M2.915 4.192 C3.3398 4.305 3.707 4.505 3.9902 4.731 C4.415 4.334 4.6416 3.739 4.6416 2.946 C4.6416 2.493 4.5566 2.096 4.415 1.757 C4.2451 1.416 4.0186 1.161 3.7353 0.963 C3.4238 0.764 3.085 0.679 2.7168 0.679 C2.1504 0.679 1.6982 0.878 1.3301 1.246 C0.9619 1.615 0.7637 2.181 0.7637 2.946 C0.7637 3.682 0.9336 4.249 1.3018 4.618 C1.6699 5.014 2.1504 5.213 2.7168 5.213 C2.9717 5.213 3.2266 5.156 3.4805 5.071 C3.2266 4.901 3 4.816 2.7168 4.731 C2.7168 4.731 2.915 4.192 2.915 4.192 Z" />
 </g>
 <g transform="translate(26.5732, 128.624)" style="fill:#ff0101; fill-rule:evenodd; stroke:none; stroke-width:0; stroke-linecap:butt; stroke-linejoin:miter; stroke-dasharray:none;" >
  <path d="M0 3.428 C0 3.428 0 0.057 0 0.057 C0 0.057 0.4248 0.057 0.4248 0.057 C0.4248 0.057 0.4248 0.368 0.4248 0.368 C0.5098 0.227 0.5948 0.142 0.7081 0.085 C0.8213 0.028 0.9629 0 1.1045 0 C1.3028 0 1.4717 0.057 1.6416 0.17 C1.7832 0.255 1.8965 0.425 1.9815 0.624 C2.0664 0.822 2.0948 1.021 2.0948 1.247 C2.0948 1.502 2.0381 1.729 1.9532 1.927 C1.8682 2.125 1.7549 2.295 1.585 2.38 C1.4151 2.493 1.2461 2.55 1.0479 2.55 C0.9063 2.55 0.793 2.522 0.6797 2.465 C0.5948 2.408 0.4815 2.323 0.4248 2.238 C0.4248 2.238 0.4248 3.428 0.4248 3.428 C0.4248 3.428 0 3.428 0 3.428 Z M0.4248 1.275 C0.4248 1.587 0.4815 1.842 0.5948 1.983 C0.7364 2.125 0.878 2.21 1.0479 2.21 C1.2178 2.21 1.3584 2.125 1.4717 1.983 C1.6133 1.814 1.67 1.587 1.67 1.247 C1.67 0.936 1.6133 0.709 1.5 0.538 C1.3584 0.397 1.2178 0.312 1.0479 0.312 C0.878 0.312 0.7364 0.397 0.6231 0.566 C0.4815 0.737 0.4248 0.964 0.4248 1.275 Z" />
 </g>
 <g transform="translate(30.4795, 145.537)" style="fill:#0101ff; fill-rule:evenodd; stroke:none; stroke-width:0; stroke-linecap:butt; stroke-linejoin:miter; stroke-dasharray:none;" >
  <path d="M0 1.445 C0 1.445 0 0 0 0 C0 0 0.3389 0 0.3389 0 C0.3389 0 0.707 0 0.707 0 C0.707 0 0.707 1.445 0.707 1.445 C0.707 1.445 0.3389 1.445 0.3389 1.445 C0.3389 1.445 0 1.445 0 1.445 Z" />
 </g>
 <g transform="translate(30.4795, 142.647)" style="fill:#0101ff; fill-rule:evenodd; stroke:none; stroke-width:0; stroke-linecap:butt; stroke-linejoin:miter; stroke-dasharray:none;" >
  <path d="M0 1.446 C0 1.446 0 0 0 0 C0 0 0.3389 0 0.3389 0 C0.3389 0 0.707 0 0.707 0 C0.707 0 0.707 1.446 0.707 1.446 C0.707 1.446 0.3389 1.446 0.3389 1.446 C0.3389 1.446 0 1.446 0 1.446 Z" />
 </g>
 <g transform="translate(30.4795, 140.948)" style="fill:#0101ff; fill-rule:evenodd; stroke:none; stroke-width:0; stroke-linecap:butt; stroke-linejoin:miter; stroke-dasharray:none;" >
  <path d="M0 0.255 C0 0.255 0 0 0 0 C0 0 0.3389 0 0.3389 0 C0.3389 0 0.707 0 0.707 0 C0.707 0 0.707 0.255 0.707 0.255 C0.707 0.255 0.3389 0.255 0.3389 0.255 C0.3389 0.255 0 0.255 0 0.255 Z" />
 </g>
 <g transform="translate(30.8184, 140.637)" style="fill:#0101ff; fill-rule:evenodd; stroke:none; stroke-width:0; stroke-linecap:butt; stroke-linejoin:miter; stroke-dasharray:none;" >
  <path d="M0 0.028 C0 0.028 1.4433 0 1.4433 0 C1.4433 0 1.4433 0.368 1.4433 0.368 C1.4433 0.368 1.4433 0.708 1.4433 0.708 C1.4433 0.708 0 0.708 0 0.708 C0 0.708 0 0.368 0 0.368 C0 0.368 0 0.028 0 0.028 Z" />
 </g>
 <g transform="translate(33.7051, 140.637)" style="fill:#0101ff; fill-rule:evenodd; stroke:none; stroke-width:0; stroke-linecap:butt; stroke-linejoin:miter; stroke-dasharray:none;" >
  <path d="M0 0 C0 0 1.4433 0 1.4433 0 C1.4433 0 1.4433 0.34 1.4433 0.34 C1.4433 0.34 1.4433 0.708 1.4433 0.708 C1.4433 0.708 0 0.708 0 0.708 C0 0.708 0 0.368 0 0.368 C0 0.368 0 0 0 0 Z" />
 </g>
 <g transform="translate(36.5918, 140.607)" style="fill:#0101ff; fill-rule:evenodd; stroke:none; stroke-width:0; stroke-linecap:butt; stroke-linejoin:miter; stroke-dasharray:none;" >
  <path d="M0 0.03 C0 0.03 1.4434 0 1.4434 0 C1.4434 0 1.4434 0.37 1.4434 0.37 C1.4434 0.37 1.4434 0.709 1.4434 0.709 C1.4434 0.709 0 0.738 0 0.738 C0 0.738 0 0.37 0 0.37 C0 0.37 0 0.03 0 0.03 Z" />
 </g>
 <g transform="translate(39.4785, 140.607)" style="fill:#0101ff; fill-rule:evenodd; stroke:none; stroke-width:0; stroke-linecap:butt; stroke-linejoin:miter; stroke-dasharray:none;" >
  <path d="M0 0 C0 0 1.4434 0 1.4434 0 C1.4434 0 1.4434 0.341 1.4434 0.341 C1.4434 0.341 1.4434 0.709 1.4434 0.709 C1.4434 0.709 0 0.709 0 0.709 C0 0.709 0 0.37 0 0.37 C0 0.37 0 0 0 0 Z" />
 </g>
 <g transform="translate(42.3652, 140.607)" style="fill:#0101ff; fill-rule:evenodd; stroke:none; stroke-width:0; stroke-linecap:butt; stroke-linejoin:miter; stroke-dasharray:none;" >
  <path d="M0 0 C0 0 1.4434 0 1.4434 0 C1.4434 0 1.4434 0.341 1.4434 0.341 C1.4434 0.341 1.4434 0.709 1.4434 0.709 C1.4434 0.709 0 0.709 0 0.709 C0 0.709 0 0.341 0 0.341 C0 0.341 0 0 0 0 Z" />
 </g>
 <g transform="translate(45.252, 140.579)" style="fill:#0101ff; fill-rule:evenodd; stroke:none; stroke-width:0; stroke-linecap:butt; stroke-linejoin:miter; stroke-dasharray:none;" >
  <path d="M0 0 C0 0 1.4433 0 1.4433 0 C1.4433 0 1.4433 0.369 1.4433 0.369 C1.4433 0.369 1.4433 0.709 1.4433 0.709 C1.4433 0.709 0 0.709 0 0.709 C0 0.709 0 0.369 0 0.369 C0 0.369 0 0 0 0 Z" />
 </g>
 <g transform="translate(48.1387, 140.579)" style="fill:#0101ff; fill-rule:evenodd; stroke:none; stroke-width:0; stroke-linecap:butt; stroke-linejoin:miter; stroke-dasharray:none;" >
  <path d="M0 0 C0 0 1.4433 0 1.4433 0 C1.4433 0 1.4433 0.341 1.4433 0.341 C1.4433 0.341 1.4433 0.709 1.4433 0.709 C1.4433 0.709 0 0.709 0 0.709 C0 0.709 0 0.341 0 0.341 C0 0.341 0 0 0 0 Z" />
 </g>
 <g transform="translate(51.0254, 140.551)" style="fill:#0101ff; fill-rule:evenodd; stroke:none; stroke-width:0; stroke-linecap:butt; stroke-linejoin:miter; stroke-dasharray:none;" >
  <path d="M0 0 C0 0 1.4424 0 1.4424 0 C1.4424 0 1.4424 0.369 1.4424 0.369 C1.4424 0.369 1.4424 0.709 1.4424 0.709 C1.4424 0.709 0 0.709 0 0.709 C0 0.709 0 0.369 0 0.369 C0 0.369 0 0 0 0 Z" />
 </g>
 <g transform="translate(53.9111, 140.551)" style="fill:#0101ff; fill-rule:evenodd; stroke:none; stroke-width:0; stroke-linecap:butt; stroke-linejoin:miter; stroke-dasharray:none;" >
  <path d="M0 0 C0 0 1.4434 0 1.4434 0 C1.4434 0 1.4434 0.341 1.4434 0.341 C1.4434 0.341 1.4434 0.709 1.4434 0.709 C1.4434 0.709 0 0.709 0 0.709 C0 0.709 0 0.369 0 0.369 C0 0.369 0 0 0 0 Z" />
 </g>
 <g transform="translate(56.7979, 140.522)" style="fill:#0101ff; fill-rule:evenodd; stroke:none; stroke-width:0; stroke-linecap:butt; stroke-linejoin:miter; stroke-dasharray:none;" >
  <path d="M0 0.029 C0 0.029 1.4433 0 1.4433 0 C1.4433 0 1.4433 0.37 1.4433 0.37 C1.4433 0.37 1.4433 0.709 1.4433 0.709 C1.4433 0.709 0 0.738 0 0.738 C0 0.738 0 0.37 0 0.37 C0 0.37 0 0.029 0 0.029 Z" />
 </g>
 <g transform="translate(59.6846, 140.522)" style="fill:#0101ff; fill-rule:evenodd; stroke:none; stroke-width:0; stroke-linecap:butt; stroke-linejoin:miter; stroke-dasharray:none;" >
  <path d="M0 0 C0 0 1.4433 0 1.4433 0 C1.4433 0 1.4433 0.341 1.4433 0.341 C1.4433 0.341 1.4433 0.709 1.4433 0.709 C1.4433 0.709 0 0.709 0 0.709 C0 0.709 0 0.37 0 0.37 C0 0.37 0 0 0 0 Z" />
 </g>
 <g transform="translate(62.5713, 140.522)" style="fill:#0101ff; fill-rule:evenodd; stroke:none; stroke-width:0; stroke-linecap:butt; stroke-linejoin:miter; stroke-dasharray:none;" >
  <path d="M0 0 C0 0 1.4433 0 1.4433 0 C1.4433 0 1.4433 0.341 1.4433 0.341 C1.4433 0.341 1.4433 0.709 1.4433 0.709 C1.4433 0.709 0 0.709 0 0.709 C0 0.709 0 0.341 0 0.341 C0 0.341 0 0 0 0 Z" />
 </g>
 <g transform="translate(65.458, 140.494)" style="fill:#0101ff; fill-rule:evenodd; stroke:none; stroke-width:0; stroke-linecap:butt; stroke-linejoin:miter; stroke-dasharray:none;" >
  <path d="M0 0 C0 0 1.4434 0 1.4434 0 C1.4434 0 1.4434 0.369 1.4434 0.369 C1.4434 0.369 1.4434 0.709 1.4434 0.709 C1.4434 0.709 0 0.709 0 0.709 C0 0.709 0 0.369 0 0.369 C0 0.369 0 0 0 0 Z" />
 </g>
 <g transform="translate(68.3447, 140.494)" style="fill:#0101ff; fill-rule:evenodd; stroke:none; stroke-width:0; stroke-linecap:butt; stroke-linejoin:miter; stroke-dasharray:none;" >
  <path d="M0 0 C0 0 1.4434 0 1.4434 0 C1.4434 0 1.4434 0.341 1.4434 0.341 C1.4434 0.341 1.4434 0.709 1.4434 0.709 C1.4434 0.709 0 0.709 0 0.709 C0 0.709 0 0.341 0 0.341 C0 0.341 0 0 0 0 Z" />
 </g>
 <g transform="translate(70.4102, 145.48)" style="fill:#0101ff; fill-rule:evenodd; stroke:none; stroke-width:0; stroke-linecap:butt; stroke-linejoin:miter; stroke-dasharray:none;" >
  <path d="M0 1.446 C0 1.446 0 0 0 0 C0 0 0.3398 0 0.3398 0 C0.3398 0 0.708 0 0.708 0 C0.708 0 0.708 1.446 0.708 1.446 C0.708 1.446 0.3398 1.446 0.3398 1.446 C0.3398 1.446 0 1.446 0 1.446 Z" />
 </g>
 <g transform="translate(70.4102, 142.591)" style="fill:#0101ff; fill-rule:evenodd; stroke:none; stroke-width:0; stroke-linecap:butt; stroke-linejoin:miter; stroke-dasharray:none;" >
  <path d="M0 1.445 C0 1.445 0 0 0 0 C0 0 0.3398 0 0.3398 0 C0.3398 0 0.708 0 0.708 0 C0.708 0 0.708 1.445 0.708 1.445 C0.708 1.445 0.3398 1.445 0.3398 1.445 C0.3398 1.445 0 1.445 0 1.445 Z" />
 </g>
 <g transform="translate(70.4102, 140.892)" style="fill:#0101ff; fill-rule:evenodd; stroke:none; stroke-width:0; stroke-linecap:butt; stroke-linejoin:miter; stroke-dasharray:none;" >
  <path d="M0 0.254 C0 0.254 0 0 0 0 C0 0 0.3398 0 0.3398 0 C0.3398 0 0.708 0 0.708 0 C0.708 0 0.708 0.254 0.708 0.254 C0.708 0.254 0.3398 0.254 0.3398 0.254 C0.3398 0.254 0 0.254 0 0.254 Z" />
 </g>
 <g transform="translate(70.6084, 146.416)" style="fill:#0101ff; fill-rule:evenodd; stroke:none; stroke-width:0; stroke-linecap:butt; stroke-linejoin:miter; stroke-dasharray:none;" >
  <path d="M0 0 C0 0 1.4434 0 1.4434 0 C1.4434 0 1.4434 0.34 1.4434 0.34 C1.4434 0.34 1.4434 0.708 1.4434 0.708 C1.4434 0.708 0 0.708 0 0.708 C0 0.708 0 0.34 0 0.34 C0 0.34 0 0 0 0 Z" />
 </g>
 <g transform="translate(73.4951, 146.416)" style="fill:#0101ff; fill-rule:evenodd; stroke:none; stroke-width:0; stroke-linecap:butt; stroke-linejoin:miter; stroke-dasharray:none;" >
  <path d="M0 0 C0 0 1.4434 0 1.4434 0 C1.4434 0 1.4434 0.34 1.4434 0.34 C1.4434 0.34 1.4434 0.708 1.4434 0.708 C1.4434 0.708 0 0.708 0 0.708 C0 0.708 0 0.34 0 0.34 C0 0.34 0 0 0 0 Z" />
 </g>
 <g transform="translate(76.3818, 146.416)" style="fill:#0101ff; fill-rule:evenodd; stroke:none; stroke-width:0; stroke-linecap:butt; stroke-linejoin:miter; stroke-dasharray:none;" >
  <path d="M0 0 C0 0 1.4434 0 1.4434 0 C1.4434 0 1.4434 0.34 1.4434 0.34 C1.4434 0.34 1.4434 0.708 1.4434 0.708 C1.4434 0.708 0 0.708 0 0.708 C0 0.708 0 0.34 0 0.34 C0 0.34 0 0 0 0 Z" />
 </g>
 <g transform="translate(79.2686, 146.416)" style="fill:#0101ff; fill-rule:evenodd; stroke:none; stroke-width:0; stroke-linecap:butt; stroke-linejoin:miter; stroke-dasharray:none;" >
  <path d="M0 0 C0 0 1.4433 0 1.4433 0 C1.4433 0 1.4433 0.34 1.4433 0.34 C1.4433 0.34 1.4433 0.708 1.4433 0.708 C1.4433 0.708 0 0.708 0 0.708 C0 0.708 0 0.34 0 0.34 C0 0.34 0 0 0 0 Z" />
 </g>
 <g transform="translate(82.1553, 146.416)" style="fill:#0101ff; fill-rule:evenodd; stroke:none; stroke-width:0; stroke-linecap:butt; stroke-linejoin:miter; stroke-dasharray:none;" >
  <path d="M0 0 C0 0 1.4433 0 1.4433 0 C1.4433 0 1.4433 0.34 1.4433 0.34 C1.4433 0.34 1.4433 0.708 1.4433 0.708 C1.4433 0.708 0 0.708 0 0.708 C0 0.708 0 0.34 0 0.34 C0 0.34 0 0 0 0 Z" />
 </g>
 <g transform="translate(85.042, 146.416)" style="fill:#0101ff; fill-rule:evenodd; stroke:none; stroke-width:0; stroke-linecap:butt; stroke-linejoin:miter; stroke-dasharray:none;" >
  <path d="M0 0 C0 0 1.4424 0 1.4424 0 C1.4424 0 1.4424 0.34 1.4424 0.34 C1.4424 0.34 1.4424 0.708 1.4424 0.708 C1.4424 0.708 0 0.708 0 0.708 C0 0.708 0 0.34 0 0.34 C0 0.34 0 0 0 0 Z" />
 </g>
 <g transform="translate(87.9277, 146.416)" style="fill:#0101ff; fill-rule:evenodd; stroke:none; stroke-width:0; stroke-linecap:butt; stroke-linejoin:miter; stroke-dasharray:none;" >
  <path d="M0 0 C0 0 1.4434 0 1.4434 0 C1.4434 0 1.4434 0.34 1.4434 0.34 C1.4434 0.34 1.4434 0.708 1.4434 0.708 C1.4434 0.708 0 0.708 0 0.708 C0 0.708 0 0.34 0 0.34 C0 0.34 0 0 0 0 Z" />
 </g>
 <g transform="translate(90.8145, 146.416)" style="fill:#0101ff; fill-rule:evenodd; stroke:none; stroke-width:0; stroke-linecap:butt; stroke-linejoin:miter; stroke-dasharray:none;" >
  <path d="M0 0 C0 0 1.4433 0 1.4433 0 C1.4433 0 1.4433 0.34 1.4433 0.34 C1.4433 0.34 1.4433 0.708 1.4433 0.708 C1.4433 0.708 0 0.708 0 0.708 C0 0.708 0 0.34 0 0.34 C0 0.34 0 0 0 0 Z" />
 </g>
 <g transform="translate(93.7012, 146.416)" style="fill:#0101ff; fill-rule:evenodd; stroke:none; stroke-width:0; stroke-linecap:butt; stroke-linejoin:miter; stroke-dasharray:none;" >
  <path d="M0 0 C0 0 1.4433 0 1.4433 0 C1.4433 0 1.4433 0.34 1.4433 0.34 C1.4433 0.34 1.4433 0.708 1.4433 0.708 C1.4433 0.708 0 0.708 0 0.708 C0 0.708 0 0.34 0 0.34 C0 0.34 0 0 0 0 Z" />
 </g>
 <g transform="translate(96.5879, 146.416)" style="fill:#0101ff; fill-rule:evenodd; stroke:none; stroke-width:0; stroke-linecap:butt; stroke-linejoin:miter; stroke-dasharray:none;" >
  <path d="M0 0 C0 0 1.4434 0 1.4434 0 C1.4434 0 1.4434 0.34 1.4434 0.34 C1.4434 0.34 1.4434 0.708 1.4434 0.708 C1.4434 0.708 0 0.708 0 0.708 C0 0.708 0 0.34 0 0.34 C0 0.34 0 0 0 0 Z" />
 </g>
 <g transform="translate(99.4746, 146.416)" style="fill:#0101ff; fill-rule:evenodd; stroke:none; stroke-width:0; stroke-linecap:butt; stroke-linejoin:miter; stroke-dasharray:none;" >
  <path d="M0 0 C0 0 1.4434 0 1.4434 0 C1.4434 0 1.4434 0.34 1.4434 0.34 C1.4434 0.34 1.4434 0.708 1.4434 0.708 C1.4434 0.708 0 0.708 0 0.708 C0 0.708 0 0.34 0 0.34 C0 0.34 0 0 0 0 Z" />
 </g>
 <g transform="translate(102.361, 146.416)" style="fill:#0101ff; fill-rule:evenodd; stroke:none; stroke-width:0; stroke-linecap:butt; stroke-linejoin:miter; stroke-dasharray:none;" >
  <path d="M0 0 C0 0 1.444 0 1.444 0 C1.444 0 1.444 0.34 1.444 0.34 C1.444 0.34 1.444 0.708 1.444 0.708 C1.444 0.708 0 0.708 0 0.708 C0 0.708 0 0.34 0 0.34 C0 0.34 0 0 0 0 Z" />
 </g>
 <g transform="translate(105.248, 146.416)" style="fill:#0101ff; fill-rule:evenodd; stroke:none; stroke-width:0; stroke-linecap:butt; stroke-linejoin:miter; stroke-dasharray:none;" >
  <path d="M0 0 C0 0 1.443 0 1.443 0 C1.443 0 1.443 0.34 1.443 0.34 C1.443 0.34 1.443 0.708 1.443 0.708 C1.443 0.708 0 0.708 0 0.708 C0 0.708 0 0.34 0 0.34 C0 0.34 0 0 0 0 Z" />
 </g>
 <g transform="translate(108.135, 146.416)" style="fill:#0101ff; fill-rule:evenodd; stroke:none; stroke-width:0; stroke-linecap:butt; stroke-linejoin:miter; stroke-dasharray:none;" >
  <path d="M0 0 C0 0 1.442 0 1.442 0 C1.442 0 1.442 0.34 1.442 0.34 C1.442 0.34 1.442 0.708 1.442 0.708 C1.442 0.708 0 0.708 0 0.708 C0 0.708 0 0.34 0 0.34 C0 0.34 0 0 0 0 Z" />
 </g>
 <g transform="translate(111.021, 146.416)" style="fill:#0101ff; fill-rule:evenodd; stroke:none; stroke-width:0; stroke-linecap:butt; stroke-linejoin:miter; stroke-dasharray:none;" >
  <path d="M0 0 C0 0 0.311 0 0.311 0 C0.311 0 0.311 0.34 0.311 0.34 C0.311 0.34 0.311 0.708 0.311 0.708 C0.311 0.708 0 0.708 0 0.708 C0 0.708 0 0.34 0 0.34 C0 0.34 0 0 0 0 Z" />
 </g>
 <g transform="translate(70.75, 125.536)" style="fill:none; stroke:#010101; stroke-width:0.1; stroke-linecap:butt; stroke-linejoin:round; stroke-dasharray:1 1 1 1 ; stroke-dashoffset:0;" >
  <path d="M0.0283 41.759 C0.0283 41.759 0 0 0 0 " />
 </g>
 <g transform="translate(111.332, 125.706)" style="fill:none; stroke:#010101; stroke-width:0.1; stroke-linecap:butt; stroke-linejoin:round; stroke-dasharray:1 1 1 1 ; stroke-dashoffset:0;" >
  <path d="M0.028 41.759 C0.028 41.759 0 0 0 0 " />
 </g>
 <g transform="translate(111.077, 145.509)" style="fill:#0101ff; fill-rule:evenodd; stroke:none; stroke-width:0; stroke-linecap:butt; stroke-linejoin:miter; stroke-dasharray:none;" >
  <path d="M0 1.445 C0 1.445 0 0 0 0 C0 0 0.34 0 0.34 0 C0.34 0 0.708 0 0.708 0 C0.708 0 0.708 1.445 0.708 1.445 C0.708 1.445 0.34 1.445 0.34 1.445 C0.34 1.445 0 1.445 0 1.445 Z" />
 </g>
 <g transform="translate(111.077, 142.619)" style="fill:#0101ff; fill-rule:evenodd; stroke:none; stroke-width:0; stroke-linecap:butt; stroke-linejoin:miter; stroke-dasharray:none;" >
  <path d="M0 1.445 C0 1.445 0 0 0 0 C0 0 0.34 0 0.34 0 C0.34 0 0.708 0 0.708 0 C0.708 0 0.708 1.445 0.708 1.445 C0.708 1.445 0.34 1.445 0.34 1.445 C0.34 1.445 0 1.445 0 1.445 Z" />
 </g>
 <g transform="translate(111.077, 140.92)" style="fill:#0101ff; fill-rule:evenodd; stroke:none; stroke-width:0; stroke-linecap:butt; stroke-linejoin:miter; stroke-dasharray:none;" >
  <path d="M0 0.255 C0 0.255 0 0 0 0 C0 0 0.34 0 0.34 0 C0.34 0 0.708 0 0.708 0 C0.708 0 0.708 0.255 0.708 0.255 C0.708 0.255 0.34 0.255 0.34 0.255 C0.34 0.255 0 0.255 0 0.255 Z" />
 </g>
 <g transform="translate(112.917, 140.637)" style="fill:#0101ff; fill-rule:evenodd; stroke:none; stroke-width:0; stroke-linecap:butt; stroke-linejoin:miter; stroke-dasharray:none;" >
  <path d="M0 0.028 C0 0.028 1.443 0 1.443 0 C1.443 0 1.443 0.368 1.443 0.368 C1.443 0.368 1.443 0.708 1.443 0.708 C1.443 0.708 0 0.708 0 0.708 C0 0.708 0 0.368 0 0.368 C0 0.368 0 0.028 0 0.028 Z" />
 </g>
 <g transform="translate(115.804, 140.637)" style="fill:#0101ff; fill-rule:evenodd; stroke:none; stroke-width:0; stroke-linecap:butt; stroke-linejoin:miter; stroke-dasharray:none;" >
  <path d="M0 0 C0 0 1.443 0 1.443 0 C1.443 0 1.443 0.34 1.443 0.34 C1.443 0.34 1.443 0.708 1.443 0.708 C1.443 0.708 0 0.708 0 0.708 C0 0.708 0 0.368 0 0.368 C0 0.368 0 0 0 0 Z" />
 </g>
 <g transform="translate(118.69, 140.607)" style="fill:#0101ff; fill-rule:evenodd; stroke:none; stroke-width:0; stroke-linecap:butt; stroke-linejoin:miter; stroke-dasharray:none;" >
  <path d="M0 0.03 C0 0.03 1.444 0 1.444 0 C1.444 0 1.444 0.37 1.444 0.37 C1.444 0.37 1.444 0.709 1.444 0.709 C1.444 0.709 0 0.738 0 0.738 C0 0.738 0 0.37 0 0.37 C0 0.37 0 0.03 0 0.03 Z" />
 </g>
 <g transform="translate(121.577, 140.607)" style="fill:#0101ff; fill-rule:evenodd; stroke:none; stroke-width:0; stroke-linecap:butt; stroke-linejoin:miter; stroke-dasharray:none;" >
  <path d="M0 0 C0 0 1.444 0 1.444 0 C1.444 0 1.444 0.341 1.444 0.341 C1.444 0.341 1.444 0.709 1.444 0.709 C1.444 0.709 0 0.709 0 0.709 C0 0.709 0 0.37 0 0.37 C0 0.37 0 0 0 0 Z" />
 </g>
 <g transform="translate(124.464, 140.607)" style="fill:#0101ff; fill-rule:evenodd; stroke:none; stroke-width:0; stroke-linecap:butt; stroke-linejoin:miter; stroke-dasharray:none;" >
  <path d="M0 0 C0 0 1.442 0 1.442 0 C1.442 0 1.442 0.341 1.442 0.341 C1.442 0.341 1.442 0.709 1.442 0.709 C1.442 0.709 0 0.709 0 0.709 C0 0.709 0 0.341 0 0.341 C0 0.341 0 0 0 0 Z" />
 </g>
 <g transform="translate(127.35, 140.579)" style="fill:#0101ff; fill-rule:evenodd; stroke:none; stroke-width:0; stroke-linecap:butt; stroke-linejoin:miter; stroke-dasharray:none;" >
  <path d="M0 0 C0 0 1.443 0 1.443 0 C1.443 0 1.443 0.369 1.443 0.369 C1.443 0.369 1.443 0.709 1.443 0.709 C1.443 0.709 0 0.709 0 0.709 C0 0.709 0 0.369 0 0.369 C0 0.369 0 0 0 0 Z" />
 </g>
 <g transform="translate(130.236, 140.579)" style="fill:#0101ff; fill-rule:evenodd; stroke:none; stroke-width:0; stroke-linecap:butt; stroke-linejoin:miter; stroke-dasharray:none;" >
  <path d="M0 0 C0 0 1.444 0 1.444 0 C1.444 0 1.444 0.341 1.444 0.341 C1.444 0.341 1.444 0.709 1.444 0.709 C1.444 0.709 0 0.709 0 0.709 C0 0.709 0 0.341 0 0.341 C0 0.341 0 0 0 0 Z" />
 </g>
 <g transform="translate(133.123, 140.551)" style="fill:#0101ff; fill-rule:evenodd; stroke:none; stroke-width:0; stroke-linecap:butt; stroke-linejoin:miter; stroke-dasharray:none;" >
  <path d="M0 0 C0 0 1.443 0 1.443 0 C1.443 0 1.443 0.369 1.443 0.369 C1.443 0.369 1.443 0.709 1.443 0.709 C1.443 0.709 0 0.709 0 0.709 C0 0.709 0 0.369 0 0.369 C0 0.369 0 0 0 0 Z" />
 </g>
 <g transform="translate(136.01, 140.551)" style="fill:#0101ff; fill-rule:evenodd; stroke:none; stroke-width:0; stroke-linecap:butt; stroke-linejoin:miter; stroke-dasharray:none;" >
  <path d="M0 0 C0 0 1.443 0 1.443 0 C1.443 0 1.443 0.341 1.443 0.341 C1.443 0.341 1.443 0.709 1.443 0.709 C1.443 0.709 0 0.709 0 0.709 C0 0.709 0 0.369 0 0.369 C0 0.369 0 0 0 0 Z" />
 </g>
 <g transform="translate(138.896, 140.522)" style="fill:#0101ff; fill-rule:evenodd; stroke:none; stroke-width:0; stroke-linecap:butt; stroke-linejoin:miter; stroke-dasharray:none;" >
  <path d="M0 0.029 C0 0.029 1.444 0 1.444 0 C1.444 0 1.444 0.37 1.444 0.37 C1.444 0.37 1.444 0.709 1.444 0.709 C1.444 0.709 0 0.738 0 0.738 C0 0.738 0 0.37 0 0.37 C0 0.37 0 0.029 0 0.029 Z" />
 </g>
 <g transform="translate(141.783, 140.522)" style="fill:#0101ff; fill-rule:evenodd; stroke:none; stroke-width:0; stroke-linecap:butt; stroke-linejoin:miter; stroke-dasharray:none;" >
  <path d="M0 0 C0 0 1.444 0 1.444 0 C1.444 0 1.444 0.341 1.444 0.341 C1.444 0.341 1.444 0.709 1.444 0.709 C1.444 0.709 0 0.709 0 0.709 C0 0.709 0 0.37 0 0.37 C0 0.37 0 0 0 0 Z" />
 </g>
 <g transform="translate(144.67, 140.522)" style="fill:#0101ff; fill-rule:evenodd; stroke:none; stroke-width:0; stroke-linecap:butt; stroke-linejoin:miter; stroke-dasharray:none;" >
  <path d="M0 0 C0 0 1.443 0 1.443 0 C1.443 0 1.443 0.341 1.443 0.341 C1.443 0.341 1.443 0.709 1.443 0.709 C1.443 0.709 0 0.709 0 0.709 C0 0.709 0 0.341 0 0.341 C0 0.341 0 0 0 0 Z" />
 </g>
 <g transform="translate(147.557, 140.494)" style="fill:#0101ff; fill-rule:evenodd; stroke:none; stroke-width:0; stroke-linecap:butt; stroke-linejoin:miter; stroke-dasharray:none;" >
  <path d="M0 0 C0 0 1.442 0 1.442 0 C1.442 0 1.442 0.369 1.442 0.369 C1.442 0.369 1.442 0.709 1.442 0.709 C1.442 0.709 0 0.709 0 0.709 C0 0.709 0 0.369 0 0.369 C0 0.369 0 0 0 0 Z" />
 </g>
 <g transform="translate(150.442, 140.494)" style="fill:#0101ff; fill-rule:evenodd; stroke:none; stroke-width:0; stroke-linecap:butt; stroke-linejoin:miter; stroke-dasharray:none;" >
  <path d="M0 0 C0 0 1.444 0 1.444 0 C1.444 0 1.444 0.341 1.444 0.341 C1.444 0.341 1.444 0.709 1.444 0.709 C1.444 0.709 0 0.709 0 0.709 C0 0.709 0 0.341 0 0.341 C0 0.341 0 0 0 0 Z" />
 </g>
 <g transform="translate(151.632, 145.537)" style="fill:#0101ff; fill-rule:evenodd; stroke:none; stroke-width:0; stroke-linecap:butt; stroke-linejoin:miter; stroke-dasharray:none;" >
  <path d="M0 1.445 C0 1.445 0 0 0 0 C0 0 0.339 0 0.339 0 C0.339 0 0.707 0 0.707 0 C0.707 0 0.707 1.445 0.707 1.445 C0.707 1.445 0.339 1.445 0.339 1.445 C0.339 1.445 0 1.445 0 1.445 Z" />
 </g>
 <g transform="translate(151.632, 142.647)" style="fill:#0101ff; fill-rule:evenodd; stroke:none; stroke-width:0; stroke-linecap:butt; stroke-linejoin:miter; stroke-dasharray:none;" >
  <path d="M0 1.446 C0 1.446 0 0 0 0 C0 0 0.339 0 0.339 0 C0.339 0 0.707 0 0.707 0 C0.707 0 0.707 1.446 0.707 1.446 C0.707 1.446 0.339 1.446 0.339 1.446 C0.339 1.446 0 1.446 0 1.446 Z" />
 </g>
 <g transform="translate(151.632, 140.948)" style="fill:#0101ff; fill-rule:evenodd; stroke:none; stroke-width:0; stroke-linecap:butt; stroke-linejoin:miter; stroke-dasharray:none;" >
  <path d="M0 0.255 C0 0.255 0 0 0 0 C0 0 0.339 0 0.339 0 C0.339 0 0.707 0 0.707 0 C0.707 0 0.707 0.255 0.707 0.255 C0.707 0.255 0.339 0.255 0.339 0.255 C0.339 0.255 0 0.255 0 0.255 Z" />
 </g>
 <g transform="translate(192.384, 127.35)" style="fill:none; stroke:#010101; stroke-width:0.1; stroke-linecap:butt; stroke-linejoin:round; stroke-dasharray:1 1 1 1 ; stroke-dashoffset:0;" >
  <path d="M0.028 40.087 C0.028 40.087 0 0 0 0 " />
 </g>
 <g transform="translate(232.966, 127.123)" style="fill:none; stroke:#010101; stroke-width:0.1; stroke-linecap:butt; stroke-linejoin:round; stroke-dasharray:1 1 1 1 ; stroke-dashoffset:0;" >
  <path d="M0.028 40.087 C0.028 40.087 0 0 0 0 " />
 </g>
 <g transform="translate(152.565, 146.302)" style="fill:#0101ff; fill-rule:evenodd; stroke:none; stroke-width:0; stroke-linecap:butt; stroke-linejoin:miter; stroke-dasharray:none;" >
  <path d="M0 0.029 C0 0.029 1.444 0 1.444 0 C1.444 0 1.444 0.369 1.444 0.369 C1.444 0.369 1.444 0.709 1.444 0.709 C1.444 0.709 0 0.709 0 0.709 C0 0.709 0 0.369 0 0.369 C0 0.369 0 0.029 0 0.029 Z" />
 </g>
 <g transform="translate(155.452, 146.302)" style="fill:#0101ff; fill-rule:evenodd; stroke:none; stroke-width:0; stroke-linecap:butt; stroke-linejoin:miter; stroke-dasharray:none;" >
  <path d="M0 0 C0 0 1.444 0 1.444 0 C1.444 0 1.444 0.341 1.444 0.341 C1.444 0.341 1.444 0.709 1.444 0.709 C1.444 0.709 0 0.709 0 0.709 C0 0.709 0 0.369 0 0.369 C0 0.369 0 0 0 0 Z" />
 </g>
 <g transform="translate(158.339, 146.273)" style="fill:#0101ff; fill-rule:evenodd; stroke:none; stroke-width:0; stroke-linecap:butt; stroke-linejoin:miter; stroke-dasharray:none;" >
  <path d="M0 0.029 C0 0.029 1.443 0 1.443 0 C1.443 0 1.443 0.37 1.443 0.37 C1.443 0.37 1.443 0.709 1.443 0.709 C1.443 0.709 0 0.738 0 0.738 C0 0.738 0 0.37 0 0.37 C0 0.37 0 0.029 0 0.029 Z" />
 </g>
 <g transform="translate(161.226, 146.273)" style="fill:#0101ff; fill-rule:evenodd; stroke:none; stroke-width:0; stroke-linecap:butt; stroke-linejoin:miter; stroke-dasharray:none;" >
  <path d="M0 0 C0 0 1.442 0 1.442 0 C1.442 0 1.442 0.341 1.442 0.341 C1.442 0.341 1.442 0.709 1.442 0.709 C1.442 0.709 0 0.709 0 0.709 C0 0.709 0 0.37 0 0.37 C0 0.37 0 0 0 0 Z" />
 </g>
 <g transform="translate(164.111, 146.273)" style="fill:#0101ff; fill-rule:evenodd; stroke:none; stroke-width:0; stroke-linecap:butt; stroke-linejoin:miter; stroke-dasharray:none;" >
  <path d="M0 0 C0 0 1.444 0 1.444 0 C1.444 0 1.444 0.341 1.444 0.341 C1.444 0.341 1.444 0.709 1.444 0.709 C1.444 0.709 0 0.709 0 0.709 C0 0.709 0 0.341 0 0.341 C0 0.341 0 0 0 0 Z" />
 </g>
 <g transform="translate(166.998, 146.245)" style="fill:#0101ff; fill-rule:evenodd; stroke:none; stroke-width:0; stroke-linecap:butt; stroke-linejoin:miter; stroke-dasharray:none;" >
  <path d="M0 0 C0 0 1.443 0 1.443 0 C1.443 0 1.443 0.369 1.443 0.369 C1.443 0.369 1.443 0.709 1.443 0.709 C1.443 0.709 0 0.709 0 0.709 C0 0.709 0 0.369 0 0.369 C0 0.369 0 0 0 0 Z" />
 </g>
 <g transform="translate(169.885, 146.245)" style="fill:#0101ff; fill-rule:evenodd; stroke:none; stroke-width:0; stroke-linecap:butt; stroke-linejoin:miter; stroke-dasharray:none;" >
  <path d="M0 0 C0 0 1.443 0 1.443 0 C1.443 0 1.443 0.341 1.443 0.341 C1.443 0.341 1.443 0.709 1.443 0.709 C1.443 0.709 0 0.709 0 0.709 C0 0.709 0 0.341 0 0.341 C0 0.341 0 0 0 0 Z" />
 </g>
 <g transform="translate(172.771, 146.217)" style="fill:#0101ff; fill-rule:evenodd; stroke:none; stroke-width:0; stroke-linecap:butt; stroke-linejoin:miter; stroke-dasharray:none;" >
  <path d="M0 0 C0 0 1.444 0 1.444 0 C1.444 0 1.444 0.369 1.444 0.369 C1.444 0.369 1.444 0.709 1.444 0.709 C1.444 0.709 0 0.709 0 0.709 C0 0.709 0 0.369 0 0.369 C0 0.369 0 0 0 0 Z" />
 </g>
 <g transform="translate(175.658, 146.217)" style="fill:#0101ff; fill-rule:evenodd; stroke:none; stroke-width:0; stroke-linecap:butt; stroke-linejoin:miter; stroke-dasharray:none;" >
  <path d="M0 0 C0 0 1.444 0 1.444 0 C1.444 0 1.444 0.341 1.444 0.341 C1.444 0.341 1.444 0.709 1.444 0.709 C1.444 0.709 0 0.709 0 0.709 C0 0.709 0 0.369 0 0.369 C0 0.369 0 0 0 0 Z" />
 </g>
 <g transform="translate(178.545, 146.188)" style="fill:#0101ff; fill-rule:evenodd; stroke:none; stroke-width:0; stroke-linecap:butt; stroke-linejoin:miter; stroke-dasharray:none;" >
  <path d="M0 0.029 C0 0.029 1.443 0 1.443 0 C1.443 0 1.443 0.37 1.443 0.37 C1.443 0.37 1.443 0.709 1.443 0.709 C1.443 0.709 0 0.738 0 0.738 C0 0.738 0 0.37 0 0.37 C0 0.37 0 0.029 0 0.029 Z" />
 </g>
 <g transform="translate(181.432, 146.188)" style="fill:#0101ff; fill-rule:evenodd; stroke:none; stroke-width:0; stroke-linecap:butt; stroke-linejoin:miter; stroke-dasharray:none;" >
  <path d="M0 0 C0 0 1.443 0 1.443 0 C1.443 0 1.443 0.341 1.443 0.341 C1.443 0.341 1.443 0.709 1.443 0.709 C1.443 0.709 0 0.709 0 0.709 C0 0.709 0 0.37 0 0.37 C0 0.37 0 0 0 0 Z" />
 </g>
 <g transform="translate(184.318, 146.188)" style="fill:#0101ff; fill-rule:evenodd; stroke:none; stroke-width:0; stroke-linecap:butt; stroke-linejoin:miter; stroke-dasharray:none;" >
  <path d="M0 0 C0 0 1.443 0 1.443 0 C1.443 0 1.443 0.341 1.443 0.341 C1.443 0.341 1.443 0.709 1.443 0.709 C1.443 0.709 0 0.709 0 0.709 C0 0.709 0 0.341 0 0.341 C0 0.341 0 0 0 0 Z" />
 </g>
 <g transform="translate(187.204, 146.16)" style="fill:#0101ff; fill-rule:evenodd; stroke:none; stroke-width:0; stroke-linecap:butt; stroke-linejoin:miter; stroke-dasharray:none;" >
  <path d="M0 0 C0 0 1.443 0 1.443 0 C1.443 0 1.443 0.369 1.443 0.369 C1.443 0.369 1.443 0.709 1.443 0.709 C1.443 0.709 0 0.709 0 0.709 C0 0.709 0 0.369 0 0.369 C0 0.369 0 0 0 0 Z" />
 </g>
 <g transform="translate(190.091, 146.16)" style="fill:#0101ff; fill-rule:evenodd; stroke:none; stroke-width:0; stroke-linecap:butt; stroke-linejoin:miter; stroke-dasharray:none;" >
  <path d="M0 0 C0 0 1.443 0 1.443 0 C1.443 0 1.443 0.341 1.443 0.341 C1.443 0.341 1.443 0.709 1.443 0.709 C1.443 0.709 0 0.709 0 0.709 C0 0.709 0 0.341 0 0.341 C0 0.341 0 0 0 0 Z" />
 </g>
 <g transform="translate(191.959, 145.509)" style="fill:#0101ff; fill-rule:evenodd; stroke:none; stroke-width:0; stroke-linecap:butt; stroke-linejoin:miter; stroke-dasharray:none;" >
  <path d="M0 1.445 C0 1.445 0 0 0 0 C0 0 0.34 0 0.34 0 C0.34 0 0.707 0 0.707 0 C0.707 0 0.707 1.445 0.707 1.445 C0.707 1.445 0.34 1.445 0.34 1.445 C0.34 1.445 0 1.445 0 1.445 Z" />
 </g>
 <g transform="translate(191.959, 142.619)" style="fill:#0101ff; fill-rule:evenodd; stroke:none; stroke-width:0; stroke-linecap:butt; stroke-linejoin:miter; stroke-dasharray:none;" >
  <path d="M0 1.445 C0 1.445 0 0 0 0 C0 0 0.34 0 0.34 0 C0.34 0 0.707 0 0.707 0 C0.707 0 0.707 1.445 0.707 1.445 C0.707 1.445 0.34 1.445 0.34 1.445 C0.34 1.445 0 1.445 0 1.445 Z" />
 </g>
 <g transform="translate(191.959, 140.92)" style="fill:#0101ff; fill-rule:evenodd; stroke:none; stroke-width:0; stroke-linecap:butt; stroke-linejoin:miter; stroke-dasharray:none;" >
  <path d="M0 0.255 C0 0.255 0 0 0 0 C0 0 0.34 0 0.34 0 C0.34 0 0.707 0 0.707 0 C0.707 0 0.707 0.255 0.707 0.255 C0.707 0.255 0.34 0.255 0.34 0.255 C0.34 0.255 0 0.255 0 0.255 Z" />
 </g>
 <g transform="translate(193.374, 140.551)" style="fill:#0101ff; fill-rule:evenodd; stroke:none; stroke-width:0; stroke-linecap:butt; stroke-linejoin:miter; stroke-dasharray:none;" >
  <path d="M0 0.028 C0 0.028 1.443 0 1.443 0 C1.443 0 1.443 0.369 1.443 0.369 C1.443 0.369 1.443 0.709 1.443 0.709 C1.443 0.709 0 0.709 0 0.709 C0 0.709 0 0.369 0 0.369 C0 0.369 0 0.028 0 0.028 Z" />
 </g>
 <g transform="translate(196.261, 140.551)" style="fill:#0101ff; fill-rule:evenodd; stroke:none; stroke-width:0; stroke-linecap:butt; stroke-linejoin:miter; stroke-dasharray:none;" >
  <path d="M0 0 C0 0 1.443 0 1.443 0 C1.443 0 1.443 0.341 1.443 0.341 C1.443 0.341 1.443 0.709 1.443 0.709 C1.443 0.709 0 0.709 0 0.709 C0 0.709 0 0.369 0 0.369 C0 0.369 0 0 0 0 Z" />
 </g>
 <g transform="translate(199.147, 140.522)" style="fill:#0101ff; fill-rule:evenodd; stroke:none; stroke-width:0; stroke-linecap:butt; stroke-linejoin:miter; stroke-dasharray:none;" >
  <path d="M0 0.029 C0 0.029 1.444 0 1.444 0 C1.444 0 1.444 0.37 1.444 0.37 C1.444 0.37 1.444 0.709 1.444 0.709 C1.444 0.709 0 0.738 0 0.738 C0 0.738 0 0.37 0 0.37 C0 0.37 0 0.029 0 0.029 Z" />
 </g>
 <g transform="translate(202.034, 140.522)" style="fill:#0101ff; fill-rule:evenodd; stroke:none; stroke-width:0; stroke-linecap:butt; stroke-linejoin:miter; stroke-dasharray:none;" >
  <path d="M0 0 C0 0 1.443 0 1.443 0 C1.443 0 1.443 0.341 1.443 0.341 C1.443 0.341 1.443 0.709 1.443 0.709 C1.443 0.709 0 0.709 0 0.709 C0 0.709 0 0.37 0 0.37 C0 0.37 0 0 0 0 Z" />
 </g>
 <g transform="translate(204.92, 140.522)" style="fill:#0101ff; fill-rule:evenodd; stroke:none; stroke-width:0; stroke-linecap:butt; stroke-linejoin:miter; stroke-dasharray:none;" >
  <path d="M0 0 C0 0 1.443 0 1.443 0 C1.443 0 1.443 0.341 1.443 0.341 C1.443 0.341 1.443 0.709 1.443 0.709 C1.443 0.709 0 0.709 0 0.709 C0 0.709 0 0.341 0 0.341 C0 0.341 0 0 0 0 Z" />
 </g>
 <g transform="translate(207.807, 140.494)" style="fill:#0101ff; fill-rule:evenodd; stroke:none; stroke-width:0; stroke-linecap:butt; stroke-linejoin:miter; stroke-dasharray:none;" >
  <path d="M0 0 C0 0 1.443 0 1.443 0 C1.443 0 1.443 0.369 1.443 0.369 C1.443 0.369 1.443 0.709 1.443 0.709 C1.443 0.709 0 0.709 0 0.709 C0 0.709 0 0.369 0 0.369 C0 0.369 0 0 0 0 Z" />
 </g>
 <g transform="translate(210.693, 140.494)" style="fill:#0101ff; fill-rule:evenodd; stroke:none; stroke-width:0; stroke-linecap:butt; stroke-linejoin:miter; stroke-dasharray:none;" >
  <path d="M0 0 C0 0 1.444 0 1.444 0 C1.444 0 1.444 0.341 1.444 0.341 C1.444 0.341 1.444 0.709 1.444 0.709 C1.444 0.709 0 0.709 0 0.709 C0 0.709 0 0.341 0 0.341 C0 0.341 0 0 0 0 Z" />
 </g>
 <g transform="translate(213.58, 140.466)" style="fill:#0101ff; fill-rule:evenodd; stroke:none; stroke-width:0; stroke-linecap:butt; stroke-linejoin:miter; stroke-dasharray:none;" >
  <path d="M0 0 C0 0 1.443 0 1.443 0 C1.443 0 1.443 0.369 1.443 0.369 C1.443 0.369 1.443 0.709 1.443 0.709 C1.443 0.709 0 0.709 0 0.709 C0 0.709 0 0.369 0 0.369 C0 0.369 0 0 0 0 Z" />
 </g>
 <g transform="translate(216.467, 140.466)" style="fill:#0101ff; fill-rule:evenodd; stroke:none; stroke-width:0; stroke-linecap:butt; stroke-linejoin:miter; stroke-dasharray:none;" >
  <path d="M0 0 C0 0 1.443 0 1.443 0 C1.443 0 1.443 0.341 1.443 0.341 C1.443 0.341 1.443 0.709 1.443 0.709 C1.443 0.709 0 0.709 0 0.709 C0 0.709 0 0.369 0 0.369 C0 0.369 0 0 0 0 Z" />
 </g>
 <g transform="translate(219.354, 140.438)" style="fill:#0101ff; fill-rule:evenodd; stroke:none; stroke-width:0; stroke-linecap:butt; stroke-linejoin:miter; stroke-dasharray:none;" >
  <path d="M0 0.028 C0 0.028 1.443 0 1.443 0 C1.443 0 1.443 0.369 1.443 0.369 C1.443 0.369 1.443 0.708 1.443 0.708 C1.443 0.708 0 0.737 0 0.737 C0 0.737 0 0.369 0 0.369 C0 0.369 0 0.028 0 0.028 Z" />
 </g>
 <g transform="translate(222.24, 140.438)" style="fill:#0101ff; fill-rule:evenodd; stroke:none; stroke-width:0; stroke-linecap:butt; stroke-linejoin:miter; stroke-dasharray:none;" >
  <path d="M0 0 C0 0 1.444 0 1.444 0 C1.444 0 1.444 0.34 1.444 0.34 C1.444 0.34 1.444 0.708 1.444 0.708 C1.444 0.708 0 0.708 0 0.708 C0 0.708 0 0.369 0 0.369 C0 0.369 0 0 0 0 Z" />
 </g>
 <g transform="translate(225.127, 140.438)" style="fill:#0101ff; fill-rule:evenodd; stroke:none; stroke-width:0; stroke-linecap:butt; stroke-linejoin:miter; stroke-dasharray:none;" >
  <path d="M0 0 C0 0 1.442 0 1.442 0 C1.442 0 1.442 0.34 1.442 0.34 C1.442 0.34 1.442 0.708 1.442 0.708 C1.442 0.708 0 0.708 0 0.708 C0 0.708 0 0.34 0 0.34 C0 0.34 0 0 0 0 Z" />
 </g>
 <g transform="translate(228.013, 140.409)" style="fill:#0101ff; fill-rule:evenodd; stroke:none; stroke-width:0; stroke-linecap:butt; stroke-linejoin:miter; stroke-dasharray:none;" >
  <path d="M0 0 C0 0 1.443 0 1.443 0 C1.443 0 1.443 0.369 1.443 0.369 C1.443 0.369 1.443 0.709 1.443 0.709 C1.443 0.709 0 0.709 0 0.709 C0 0.709 0 0.369 0 0.369 C0 0.369 0 0 0 0 Z" />
 </g>
 <g transform="translate(230.899, 140.409)" style="fill:#0101ff; fill-rule:evenodd; stroke:none; stroke-width:0; stroke-linecap:butt; stroke-linejoin:miter; stroke-dasharray:none;" >
  <path d="M0 0 C0 0 1.444 0 1.444 0 C1.444 0 1.444 0.341 1.444 0.341 C1.444 0.341 1.444 0.709 1.444 0.709 C1.444 0.709 0 0.709 0 0.709 C0 0.709 0 0.341 0 0.341 C0 0.341 0 0 0 0 Z" />
 </g>
 <g transform="translate(232.569, 145.537)" style="fill:#0101ff; fill-rule:evenodd; stroke:none; stroke-width:0; stroke-linecap:butt; stroke-linejoin:miter; stroke-dasharray:none;" >
  <path d="M0 1.445 C0 1.445 0 0 0 0 C0 0 0.34 0 0.34 0 C0.34 0 0.708 0 0.708 0 C0.708 0 0.708 1.445 0.708 1.445 C0.708 1.445 0.34 1.445 0.34 1.445 C0.34 1.445 0 1.445 0 1.445 Z" />
 </g>
 <g transform="translate(232.569, 142.647)" style="fill:#0101ff; fill-rule:evenodd; stroke:none; stroke-width:0; stroke-linecap:butt; stroke-linejoin:miter; stroke-dasharray:none;" >
  <path d="M0 1.446 C0 1.446 0 0 0 0 C0 0 0.34 0 0.34 0 C0.34 0 0.708 0 0.708 0 C0.708 0 0.708 1.446 0.708 1.446 C0.708 1.446 0.34 1.446 0.34 1.446 C0.34 1.446 0 1.446 0 1.446 Z" />
 </g>
 <g transform="translate(232.569, 140.948)" style="fill:#0101ff; fill-rule:evenodd; stroke:none; stroke-width:0; stroke-linecap:butt; stroke-linejoin:miter; stroke-dasharray:none;" >
  <path d="M0 0.255 C0 0.255 0 0 0 0 C0 0 0.34 0 0.34 0 C0.34 0 0.708 0 0.708 0 C0.708 0 0.708 0.255 0.708 0.255 C0.708 0.255 0.34 0.255 0.34 0.255 C0.34 0.255 0 0.255 0 0.255 Z" />
 </g>
 <g transform="translate(19.8379, 140.778)" style="fill:#ff0101; fill-rule:evenodd; stroke:none; stroke-width:0; stroke-linecap:butt; stroke-linejoin:miter; stroke-dasharray:none;" >
  <path d="M0 5.723 C0 5.723 2.1797 0 2.1797 0 C2.1797 0 3.0283 0 3.0283 0 C3.0283 0 5.3213 5.723 5.3213 5.723 C5.3213 5.723 4.4717 5.723 4.4717 5.723 C4.4717 5.723 3.8496 3.994 3.8496 3.994 C3.8496 3.994 1.415 3.994 1.415 3.994 C1.415 3.994 0.8213 5.723 0.8213 5.723 C0.8213 5.723 0 5.723 0 5.723 Z M1.6416 3.371 C1.6416 3.371 3.623 3.371 3.623 3.371 C3.623 3.371 3 1.785 3 1.785 C2.8301 1.303 2.6885 0.907 2.6045 0.595 C2.4912 0.963 2.4062 1.331 2.2646 1.7 C2.2646 1.7 1.6416 3.371 1.6416 3.371 Z" />
 </g>
 <g transform="translate(27.2246, 149.815)" style="fill:none; stroke:#ff0101; stroke-width:0.1; stroke-linecap:butt; stroke-linejoin:miter; stroke-dasharray:none;" >
  <path d="M0.1983 14.42 C0.1983 14.42 0 0 0 0 " />
 </g>
 <g transform="translate(26.6865, 163.471)" style="fill:#ff0101; fill-rule:evenodd; stroke:none; stroke-width:0.028315; stroke-linecap:butt; stroke-linejoin:miter; stroke-dasharray:none;" >
  <path d="M0 0.028 C0 0.028 1.4434 0 1.4434 0 C1.4434 0 0.7364 3.824 0.7364 3.824 C0.7364 3.824 0 0.028 0 0.028 Z" />
 </g>
 <g transform="translate(26.5176, 146.756)" style="fill:#ff0101; fill-rule:evenodd; stroke:none; stroke-width:0.028315; stroke-linecap:butt; stroke-linejoin:miter; stroke-dasharray:none;" >
  <path d="M1.4424 3.796 C1.4424 3.796 0 3.824 0 3.824 C0 3.824 0.707 0 0.707 0 C0.707 0 1.4424 3.796 1.4424 3.796 Z" />
 </g>
 <g transform="translate(19.3291, 153.47)" style="fill:#ff0101; fill-rule:evenodd; stroke:none; stroke-width:0.028315; stroke-linecap:butt; stroke-linejoin:miter; stroke-dasharray:none;" >
  <path d="M1.8955 5.722 C1.8955 5.722 1.8955 0.679 1.8955 0.679 C1.8955 0.679 0 0.679 0 0.679 C0 0.679 0 0 0 0 C0 0 4.5557 0 4.5557 0 C4.5557 0 4.5557 0.679 4.5557 0.679 C4.5557 0.679 2.6602 0.679 2.6602 0.679 C2.6602 0.679 2.6602 5.722 2.6602 5.722 C2.6602 5.722 1.8955 5.722 1.8955 5.722 Z" />
 </g>
 <g transform="translate(24.5928, 159.192)" style="fill:#ff0101; fill-rule:evenodd; stroke:none; stroke-width:0.028315; stroke-linecap:butt; stroke-linejoin:miter; stroke-dasharray:none;" >
  <path d="M1.2168 3.343 C1.2168 3.343 0.792 3.343 0.792 3.343 C0.792 3.343 0.792 0.737 0.792 0.737 C0.707 0.822 0.5664 0.935 0.4248 1.02 C0.2549 1.105 0.1133 1.19 0 1.218 C0 1.218 0 0.822 0 0.822 C0.2265 0.737 0.4248 0.595 0.5947 0.454 C0.7636 0.284 0.8769 0.142 0.9336 0 C0.9336 0 1.2168 0 1.2168 0 C1.2168 0 1.2168 3.343 1.2168 3.343 Z" />
 </g>
 <g transform="translate(25.8096, 141.118)" style="fill:none; stroke:#010101; stroke-width:0.1; stroke-linecap:butt; stroke-linejoin:round; stroke-dasharray:1 1 1 1 ; stroke-dashoffset:0;" >
  <path d="M4.5566 0.028 C4.5566 0.028 0 0 0 0 " />
 </g>
 <g transform="translate(25.8379, 146.813)" style="fill:none; stroke:#010101; stroke-width:0.1; stroke-linecap:butt; stroke-linejoin:round; stroke-dasharray:1 1 1 1 ; stroke-dashoffset:0;" >
  <path d="M4.5566 0.028 C4.5566 0.028 0 0 0 0 " />
 </g>
 <g transform="translate(120.954, 135.509)" style="fill:#018001; fill-rule:evenodd; stroke:none; stroke-width:0; stroke-linecap:butt; stroke-linejoin:miter; stroke-dasharray:none;" >
  <path d="M4.557 5.156 C4.924 5.411 5.235 5.581 5.547 5.722 C5.547 5.722 5.292 6.232 5.292 6.232 C4.897 6.091 4.5 5.864 4.075 5.524 C3.65 5.779 3.198 5.892 2.689 5.892 C2.18 5.892 1.727 5.779 1.302 5.524 C0.877 5.269 0.567 4.929 0.34 4.475 C0.113 4.022 0 3.512 0 2.946 C0 2.38 0.113 1.869 0.34 1.416 C0.567 0.963 0.877 0.595 1.302 0.368 C1.727 0.113 2.18 0 2.717 0 C3.227 0 3.707 0.113 4.132 0.368 C4.528 0.623 4.868 0.963 5.066 1.416 C5.292 1.869 5.405 2.351 5.405 2.918 C5.405 3.399 5.349 3.796 5.207 4.192 C5.066 4.56 4.84 4.872 4.557 5.156 Z M2.915 4.192 C3.34 4.305 3.707 4.504 3.99 4.73 C4.415 4.334 4.642 3.739 4.642 2.946 C4.642 2.493 4.557 2.095 4.415 1.756 C4.245 1.416 4.019 1.161 3.735 0.963 C3.425 0.764 3.085 0.679 2.717 0.679 C2.151 0.679 1.698 0.878 1.33 1.246 C0.962 1.614 0.765 2.18 0.765 2.946 C0.765 3.682 0.934 4.249 1.302 4.617 C1.67 5.013 2.151 5.213 2.717 5.213 C2.972 5.213 3.227 5.156 3.482 5.07 C3.227 4.9 3 4.815 2.717 4.73 C2.717 4.73 2.915 4.192 2.915 4.192 Z" />
 </g>
 <g transform="translate(127.124, 142.166)" style="fill:#018001; fill-rule:evenodd; stroke:none; stroke-width:0; stroke-linecap:butt; stroke-linejoin:miter; stroke-dasharray:none;" >
  <path d="M0 3.428 C0 3.428 0 0.057 0 0.057 C0 0.057 0.424 0.057 0.424 0.057 C0.424 0.057 0.424 0.368 0.424 0.368 C0.509 0.227 0.594 0.142 0.707 0.085 C0.82 0.028 0.962 0 1.104 0 C1.302 0 1.471 0.057 1.641 0.17 C1.782 0.255 1.896 0.425 1.98 0.623 C2.065 0.821 2.094 1.02 2.094 1.246 C2.094 1.502 2.037 1.729 1.952 1.927 C1.867 2.125 1.754 2.295 1.584 2.38 C1.415 2.493 1.245 2.55 1.047 2.55 C0.905 2.55 0.792 2.522 0.679 2.465 C0.594 2.408 0.48 2.323 0.424 2.238 C0.424 2.238 0.424 3.428 0.424 3.428 C0.424 3.428 0 3.428 0 3.428 Z M0.424 1.274 C0.424 1.587 0.48 1.842 0.594 1.983 C0.735 2.125 0.877 2.21 1.047 2.21 C1.217 2.21 1.358 2.125 1.471 1.983 C1.612 1.813 1.669 1.587 1.669 1.246 C1.669 0.935 1.612 0.708 1.499 0.538 C1.358 0.397 1.217 0.312 1.047 0.312 C0.877 0.312 0.735 0.397 0.622 0.566 C0.48 0.736 0.424 0.963 0.424 1.274 Z" />
 </g>
 <g transform="translate(171.923, 135.509)" style="fill:#018001; fill-rule:evenodd; stroke:none; stroke-width:0; stroke-linecap:butt; stroke-linejoin:miter; stroke-dasharray:none;" >
  <path d="M4.556 5.156 C4.924 5.411 5.235 5.581 5.547 5.722 C5.547 5.722 5.292 6.232 5.292 6.232 C4.895 6.091 4.499 5.864 4.075 5.524 C3.65 5.779 3.197 5.892 2.688 5.892 C2.179 5.892 1.725 5.779 1.302 5.524 C0.877 5.269 0.565 4.929 0.339 4.475 C0.113 4.022 0 3.512 0 2.946 C0 2.38 0.113 1.869 0.339 1.416 C0.565 0.963 0.877 0.595 1.302 0.368 C1.725 0.113 2.179 0 2.717 0 C3.225 0 3.707 0.113 4.132 0.368 C4.527 0.623 4.867 0.963 5.065 1.416 C5.292 1.869 5.405 2.351 5.405 2.918 C5.405 3.399 5.348 3.796 5.207 4.192 C5.065 4.56 4.839 4.872 4.556 5.156 Z M2.915 4.192 C3.339 4.305 3.707 4.504 3.99 4.73 C4.414 4.334 4.64 3.739 4.64 2.946 C4.64 2.493 4.556 2.095 4.414 1.756 C4.245 1.416 4.018 1.161 3.735 0.963 C3.424 0.764 3.084 0.679 2.717 0.679 C2.15 0.679 1.697 0.878 1.33 1.246 C0.962 1.614 0.764 2.18 0.764 2.946 C0.764 3.682 0.933 4.249 1.302 4.617 C1.669 5.013 2.15 5.213 2.717 5.213 C2.971 5.213 3.225 5.156 3.48 5.07 C3.225 4.9 2.999 4.815 2.717 4.73 C2.717 4.73 2.915 4.192 2.915 4.192 Z" />
 </g>
 <g transform="translate(178.092, 142.166)" style="fill:#018001; fill-rule:evenodd; stroke:none; stroke-width:0; stroke-linecap:butt; stroke-linejoin:miter; stroke-dasharray:none;" >
  <path d="M0 3.428 C0 3.428 0 0.057 0 0.057 C0 0.057 0.425 0.057 0.425 0.057 C0.425 0.057 0.425 0.368 0.425 0.368 C0.51 0.227 0.595 0.142 0.708 0.085 C0.82 0.028 0.962 0 1.103 0 C1.302 0 1.471 0.057 1.641 0.17 C1.783 0.255 1.896 0.425 1.981 0.623 C2.066 0.821 2.095 1.02 2.095 1.246 C2.095 1.502 2.038 1.729 1.953 1.927 C1.868 2.125 1.755 2.295 1.585 2.38 C1.415 2.493 1.245 2.55 1.047 2.55 C0.905 2.55 0.793 2.522 0.679 2.465 C0.595 2.408 0.481 2.323 0.425 2.238 C0.425 2.238 0.425 3.428 0.425 3.428 C0.425 3.428 0 3.428 0 3.428 Z M0.425 1.274 C0.425 1.587 0.481 1.842 0.595 1.983 C0.736 2.125 0.877 2.21 1.047 2.21 C1.217 2.21 1.358 2.125 1.471 1.983 C1.613 1.813 1.67 1.587 1.67 1.246 C1.67 0.935 1.613 0.708 1.5 0.538 C1.358 0.397 1.217 0.312 1.047 0.312 C0.877 0.312 0.736 0.397 0.623 0.566 C0.481 0.736 0.425 0.963 0.425 1.274 Z" />
 </g>
 <g transform="translate(116.794, 171.997)" style="fill:#018001; fill-rule:evenodd; stroke:none; stroke-width:0; stroke-linecap:butt; stroke-linejoin:miter; stroke-dasharray:none;" >
  <path d="M0 2.919 C0 2.238 0.057 1.7 0.198 1.275 C0.34 0.851 0.538 0.539 0.821 0.341 C1.103 0.114 1.443 0 1.868 0 C2.151 0 2.434 0.058 2.66 0.199 C2.887 0.313 3.085 0.482 3.227 0.709 C3.368 0.936 3.481 1.219 3.566 1.559 C3.65 1.899 3.707 2.352 3.707 2.919 C3.707 3.57 3.65 4.108 3.51 4.533 C3.368 4.93 3.17 5.27 2.887 5.468 C2.603 5.694 2.265 5.809 1.868 5.809 C1.302 5.809 0.878 5.609 0.566 5.241 C0.198 4.76 0 3.967 0 2.919 Z M0.708 2.919 C0.708 3.854 0.821 4.477 1.047 4.788 C1.245 5.1 1.528 5.241 1.868 5.241 C2.18 5.241 2.462 5.1 2.66 4.788 C2.887 4.477 3 3.854 3 2.919 C3 1.983 2.887 1.36 2.66 1.049 C2.462 0.737 2.18 0.596 1.84 0.596 C1.528 0.596 1.273 0.737 1.075 0.992 C0.821 1.36 0.708 1.983 0.708 2.919 Z" />
 </g>
 <g transform="translate(121.577, 176.927)" style="fill:#018001; fill-rule:evenodd; stroke:none; stroke-width:0; stroke-linecap:butt; stroke-linejoin:miter; stroke-dasharray:none;" >
  <path d="M0 0.793 C0 0.793 0 0 0 0 C0 0 0.792 0 0.792 0 C0.792 0 0.792 0.793 0.792 0.793 C0.792 0.793 0 0.793 0 0.793 Z" />
 </g>
 <g transform="translate(123.501, 172.083)" style="fill:#018001; fill-rule:evenodd; stroke:none; stroke-width:0; stroke-linecap:butt; stroke-linejoin:miter; stroke-dasharray:none;" >
  <path d="M0 0.708 C0 0.708 0 0 0 0 C0 0 3.708 0 3.708 0 C3.708 0 3.708 0.566 3.708 0.566 C3.34 0.963 2.972 1.473 2.603 2.124 C2.236 2.747 1.981 3.399 1.783 4.079 C1.642 4.561 1.528 5.07 1.5 5.637 C1.5 5.637 0.793 5.637 0.793 5.637 C0.793 5.184 0.878 4.646 1.047 4.022 C1.217 3.399 1.472 2.775 1.783 2.181 C2.095 1.614 2.434 1.105 2.802 0.708 C2.802 0.708 0 0.708 0 0.708 Z" />
 </g>
 <g transform="translate(127.944, 171.997)" style="fill:#018001; fill-rule:evenodd; stroke:none; stroke-width:0; stroke-linecap:butt; stroke-linejoin:miter; stroke-dasharray:none;" >
  <path d="M0 2.919 C0 2.238 0.057 1.7 0.199 1.275 C0.34 0.851 0.538 0.539 0.821 0.341 C1.104 0.114 1.444 0 1.869 0 C2.151 0 2.434 0.058 2.66 0.199 C2.887 0.313 3.085 0.482 3.227 0.709 C3.368 0.936 3.481 1.219 3.566 1.559 C3.651 1.899 3.707 2.352 3.707 2.919 C3.707 3.57 3.651 4.108 3.509 4.533 C3.368 4.93 3.17 5.27 2.887 5.468 C2.604 5.694 2.264 5.809 1.869 5.809 C1.302 5.809 0.877 5.609 0.567 5.241 C0.199 4.76 0 3.967 0 2.919 Z M0.707 2.919 C0.707 3.854 0.821 4.477 1.047 4.788 C1.245 5.1 1.529 5.241 1.869 5.241 C2.179 5.241 2.462 5.1 2.66 4.788 C2.887 4.477 3 3.854 3 2.919 C3 1.983 2.887 1.36 2.66 1.049 C2.462 0.737 2.179 0.596 1.84 0.596 C1.529 0.596 1.274 0.737 1.076 0.992 C0.821 1.36 0.707 1.983 0.707 2.919 Z" />
 </g>
 <g transform="translate(132.359, 172.083)" style="fill:#018001; fill-rule:evenodd; stroke:none; stroke-width:0; stroke-linecap:butt; stroke-linejoin:miter; stroke-dasharray:none;" >
  <path d="M0 0.708 C0 0.708 0 0 0 0 C0 0 3.707 0 3.707 0 C3.707 0 3.707 0.566 3.707 0.566 C3.339 0.963 2.972 1.473 2.604 2.124 C2.236 2.747 1.981 3.399 1.783 4.079 C1.642 4.561 1.529 5.07 1.5 5.637 C1.5 5.637 0.792 5.637 0.792 5.637 C0.792 5.184 0.877 4.646 1.047 4.022 C1.217 3.399 1.472 2.775 1.783 2.181 C2.094 1.614 2.434 1.105 2.802 0.708 C2.802 0.708 0 0.708 0 0.708 Z" />
 </g>
 <g transform="translate(136.802, 171.912)" style="fill:#018001; fill-rule:evenodd; stroke:none; stroke-width:0; stroke-linecap:butt; stroke-linejoin:miter; stroke-dasharray:none;" >
  <path d="M4.556 5.156 C4.925 5.411 5.236 5.581 5.547 5.723 C5.547 5.723 5.293 6.234 5.293 6.234 C4.896 6.092 4.5 5.865 4.075 5.525 C3.651 5.779 3.198 5.894 2.688 5.894 C2.179 5.894 1.726 5.779 1.302 5.525 C0.878 5.27 0.566 4.93 0.34 4.477 C0.113 4.024 0 3.514 0 2.946 C0 2.38 0.113 1.87 0.34 1.417 C0.566 0.964 0.878 0.596 1.302 0.369 C1.726 0.113 2.179 0 2.717 0 C3.226 0 3.708 0.113 4.132 0.369 C4.528 0.624 4.868 0.964 5.066 1.417 C5.293 1.87 5.405 2.352 5.405 2.918 C5.405 3.401 5.349 3.797 5.208 4.193 C5.066 4.562 4.84 4.873 4.556 5.156 Z M2.915 4.193 C3.34 4.307 3.708 4.505 3.991 4.732 C4.415 4.335 4.641 3.74 4.641 2.946 C4.641 2.493 4.556 2.097 4.415 1.757 C4.245 1.417 4.019 1.162 3.736 0.964 C3.425 0.766 3.085 0.681 2.717 0.681 C2.151 0.681 1.698 0.879 1.33 1.247 C0.963 1.615 0.764 2.182 0.764 2.946 C0.764 3.684 0.934 4.25 1.302 4.618 C1.67 5.015 2.151 5.213 2.717 5.213 C2.971 5.213 3.226 5.156 3.481 5.071 C3.226 4.901 3 4.817 2.717 4.732 C2.717 4.732 2.915 4.193 2.915 4.193 Z" />
 </g>
 <g transform="translate(142.972, 178.57)" style="fill:#018001; fill-rule:evenodd; stroke:none; stroke-width:0; stroke-linecap:butt; stroke-linejoin:miter; stroke-dasharray:none;" >
  <path d="M0 3.428 C0 3.428 0 0.057 0 0.057 C0 0.057 0.424 0.057 0.424 0.057 C0.424 0.057 0.424 0.368 0.424 0.368 C0.509 0.227 0.593 0.142 0.707 0.085 C0.82 0.029 0.962 0 1.103 0 C1.301 0 1.471 0.057 1.641 0.17 C1.783 0.255 1.896 0.425 1.98 0.623 C2.065 0.822 2.093 1.02 2.093 1.246 C2.093 1.501 2.037 1.728 1.952 1.926 C1.868 2.125 1.755 2.295 1.585 2.38 C1.415 2.493 1.245 2.55 1.047 2.55 C0.905 2.55 0.792 2.522 0.678 2.465 C0.593 2.409 0.481 2.324 0.424 2.239 C0.424 2.239 0.424 3.428 0.424 3.428 C0.424 3.428 0 3.428 0 3.428 Z M0.424 1.275 C0.424 1.586 0.481 1.841 0.593 1.983 C0.735 2.125 0.877 2.21 1.047 2.21 C1.216 2.21 1.358 2.125 1.471 1.983 C1.613 1.813 1.67 1.586 1.67 1.246 C1.67 0.935 1.613 0.708 1.5 0.538 C1.358 0.397 1.216 0.312 1.047 0.312 C0.877 0.312 0.735 0.397 0.622 0.567 C0.481 0.737 0.424 0.963 0.424 1.275 Z" />
 </g>
 <g transform="translate(148.745, 129.276)" style="fill:#010101; fill-rule:evenodd; stroke:none; stroke-width:0; stroke-linecap:butt; stroke-linejoin:miter; stroke-dasharray:none;" >
  <path d="M3.056 3.286 C3.056 3.286 0 0.51 0 0.51 C0 0.51 0.227 0.255 0.227 0.255 C0.227 0.255 0.452 0 0.452 0 C0.452 0 3.509 2.777 3.509 2.777 C3.509 2.777 3.282 3.032 3.282 3.032 C3.282 3.032 3.056 3.286 3.056 3.286 Z" />
 </g>
 <g transform="translate(151.49, 128.964)" style="fill:#010101; fill-rule:evenodd; stroke:none; stroke-width:0; stroke-linecap:butt; stroke-linejoin:miter; stroke-dasharray:none;" >
  <path d="M0 3.089 C0 3.089 2.745 0 2.745 0 C2.745 0 2.999 0.226 2.999 0.226 C2.999 0.226 3.254 0.454 3.254 0.454 C3.254 0.454 0.509 3.542 0.509 3.542 C0.509 3.542 0.254 3.315 0.254 3.315 C0.254 3.315 0 3.089 0 3.089 Z" />
 </g>
 <g transform="translate(116.596, 160.978)" style="fill:#010101; fill-rule:evenodd; stroke:none; stroke-width:0; stroke-linecap:butt; stroke-linejoin:miter; stroke-dasharray:none;" >
  <path d="M2.518 5.722 C2.518 5.722 2.518 4.362 2.518 4.362 C2.518 4.362 0 4.362 0 4.362 C0 4.362 0 3.71 0 3.71 C0 3.71 2.66 0 2.66 0 C2.66 0 3.226 0 3.226 0 C3.226 0 3.226 3.71 3.226 3.71 C3.226 3.71 3.99 3.71 3.99 3.71 C3.99 3.71 3.99 4.362 3.99 4.362 C3.99 4.362 3.226 4.362 3.226 4.362 C3.226 4.362 3.226 5.722 3.226 5.722 C3.226 5.722 2.518 5.722 2.518 5.722 Z M2.518 3.71 C2.518 3.71 2.518 1.161 2.518 1.161 C2.518 1.161 0.708 3.71 0.708 3.71 C0.708 3.71 2.518 3.71 2.518 3.71 Z" />
 </g>
 <g transform="translate(121.322, 161.063)" style="fill:#010101; fill-rule:evenodd; stroke:none; stroke-width:0; stroke-linecap:butt; stroke-linejoin:miter; stroke-dasharray:none;" >
  <path d="M0 4.135 C0 4.135 0.707 4.079 0.707 4.079 C0.764 4.447 0.877 4.702 1.075 4.872 C1.274 5.07 1.529 5.155 1.812 5.155 C2.179 5.155 2.462 5.041 2.689 4.787 C2.915 4.532 3.029 4.192 3.029 3.767 C3.029 3.371 2.915 3.031 2.689 2.804 C2.462 2.578 2.179 2.464 1.783 2.464 C1.557 2.464 1.33 2.521 1.16 2.606 C0.991 2.719 0.849 2.833 0.736 3.002 C0.736 3.002 0.085 2.917 0.085 2.917 C0.085 2.917 0.679 0 0.679 0 C0.679 0 3.452 0 3.452 0 C3.452 0 3.452 0.708 3.452 0.708 C3.452 0.708 1.217 0.708 1.217 0.708 C1.217 0.708 0.906 2.208 0.906 2.208 C1.245 1.954 1.614 1.84 1.981 1.84 C2.491 1.84 2.915 2.01 3.254 2.35 C3.594 2.691 3.764 3.144 3.764 3.682 C3.764 4.192 3.622 4.645 3.311 5.041 C2.944 5.496 2.462 5.722 1.812 5.722 C1.302 5.722 0.877 5.581 0.566 5.297 C0.227 4.985 0.057 4.617 0 4.135 Z" />
 </g>
 <g transform="translate(125.567, 160.864)" style="fill:#010101; fill-rule:evenodd; stroke:none; stroke-width:0; stroke-linecap:butt; stroke-linejoin:miter; stroke-dasharray:none;" >
  <path d="M0 1.275 C0 0.822 0.114 0.482 0.368 0.283 C0.566 0.085 0.792 0 1.104 0 C1.415 0 1.669 0.114 1.868 0.34 C2.066 0.538 2.179 0.85 2.179 1.246 C2.179 1.558 2.122 1.813 2.037 1.983 C1.953 2.153 1.811 2.294 1.642 2.407 C1.472 2.492 1.302 2.549 1.104 2.549 C0.764 2.549 0.509 2.436 0.311 2.209 C0.114 2.011 0 1.699 0 1.275 Z M0.424 1.275 C0.424 1.586 0.481 1.813 0.622 1.983 C0.736 2.124 0.906 2.209 1.104 2.209 C1.274 2.209 1.444 2.124 1.557 1.983 C1.698 1.813 1.754 1.586 1.754 1.246 C1.754 0.963 1.698 0.737 1.557 0.567 C1.444 0.425 1.274 0.34 1.104 0.34 C0.906 0.34 0.736 0.425 0.622 0.567 C0.481 0.737 0.424 0.963 0.424 1.275 Z" />
 </g>
 <g transform="translate(174.158, 160.836)" style="fill:#010101; fill-rule:evenodd; stroke:none; stroke-width:0; stroke-linecap:butt; stroke-linejoin:miter; stroke-dasharray:none;" >
  <path d="M2.519 5.723 C2.519 5.723 2.519 4.362 2.519 4.362 C2.519 4.362 0 4.362 0 4.362 C0 4.362 0 3.711 0 3.711 C0 3.711 2.66 0 2.66 0 C2.66 0 3.227 0 3.227 0 C3.227 0 3.227 3.711 3.227 3.711 C3.227 3.711 3.99 3.711 3.99 3.711 C3.99 3.711 3.99 4.362 3.99 4.362 C3.99 4.362 3.227 4.362 3.227 4.362 C3.227 4.362 3.227 5.723 3.227 5.723 C3.227 5.723 2.519 5.723 2.519 5.723 Z M2.519 3.711 C2.519 3.711 2.519 1.161 2.519 1.161 C2.519 1.161 0.707 3.711 0.707 3.711 C0.707 3.711 2.519 3.711 2.519 3.711 Z" />
 </g>
 <g transform="translate(178.885, 160.921)" style="fill:#010101; fill-rule:evenodd; stroke:none; stroke-width:0; stroke-linecap:butt; stroke-linejoin:miter; stroke-dasharray:none;" >
  <path d="M0 4.136 C0 4.136 0.707 4.079 0.707 4.079 C0.763 4.447 0.877 4.702 1.075 4.872 C1.273 5.07 1.527 5.155 1.81 5.155 C2.178 5.155 2.462 5.042 2.688 4.787 C2.914 4.532 3.027 4.192 3.027 3.767 C3.027 3.371 2.914 3.031 2.688 2.805 C2.462 2.578 2.178 2.464 1.782 2.464 C1.555 2.464 1.33 2.52 1.16 2.606 C0.99 2.72 0.848 2.833 0.735 3.003 C0.735 3.003 0.084 2.918 0.084 2.918 C0.084 2.918 0.678 0 0.678 0 C0.678 0 3.452 0 3.452 0 C3.452 0 3.452 0.708 3.452 0.708 C3.452 0.708 1.217 0.708 1.217 0.708 C1.217 0.708 0.905 2.209 0.905 2.209 C1.245 1.954 1.612 1.841 1.98 1.841 C2.49 1.841 2.914 2.011 3.254 2.35 C3.594 2.691 3.763 3.144 3.763 3.683 C3.763 4.192 3.622 4.645 3.31 5.042 C2.942 5.496 2.462 5.723 1.81 5.723 C1.302 5.723 0.877 5.581 0.565 5.297 C0.225 4.985 0.056 4.617 0 4.136 Z" />
 </g>
 <g transform="translate(183.129, 160.723)" style="fill:#010101; fill-rule:evenodd; stroke:none; stroke-width:0; stroke-linecap:butt; stroke-linejoin:miter; stroke-dasharray:none;" >
  <path d="M0 1.274 C0 0.821 0.113 0.481 0.368 0.283 C0.566 0.085 0.793 0 1.104 0 C1.415 0 1.67 0.113 1.868 0.34 C2.066 0.538 2.18 0.849 2.18 1.246 C2.18 1.557 2.123 1.812 2.038 1.982 C1.953 2.152 1.811 2.294 1.642 2.407 C1.472 2.492 1.302 2.548 1.104 2.548 C0.765 2.548 0.51 2.435 0.311 2.209 C0.113 2.01 0 1.699 0 1.274 Z M0.425 1.274 C0.425 1.586 0.481 1.812 0.623 1.982 C0.736 2.124 0.906 2.209 1.104 2.209 C1.273 2.209 1.443 2.124 1.557 1.982 C1.698 1.812 1.755 1.586 1.755 1.246 C1.755 0.963 1.698 0.736 1.557 0.566 C1.443 0.424 1.273 0.34 1.104 0.34 C0.906 0.34 0.736 0.424 0.623 0.566 C0.481 0.736 0.425 0.963 0.425 1.274 Z" />
 </g>
 <g transform="translate(33.7051, 138.597)" style="fill:none; stroke:#ff0101; stroke-width:0.1; stroke-linecap:butt; stroke-linejoin:miter; stroke-dasharray:none;" >
  <path d="M14.4053 0 C14.4053 0 0 0 0 0 " />
 </g>
 <g transform="translate(47.3457, 137.889)" style="fill:#ff0101; fill-rule:evenodd; stroke:none; stroke-width:0.028315; stroke-linecap:butt; stroke-linejoin:miter; stroke-dasharray:none;" >
  <path d="M0 1.444 C0 1.444 0 0 0 0 C0 0 3.8203 0.764 3.8203 0.764 C3.8203 0.764 0 1.444 0 1.444 Z" />
 </g>
 <g transform="translate(30.6484, 137.889)" style="fill:#ff0101; fill-rule:evenodd; stroke:none; stroke-width:0.028315; stroke-linecap:butt; stroke-linejoin:miter; stroke-dasharray:none;" >
  <path d="M3.8213 0 C3.8213 0 3.8213 1.444 3.8213 1.444 C3.8213 1.444 0 0.651 0 0.651 C0 0.651 3.8213 0 3.8213 0 Z" />
 </g>
 <g transform="translate(36.7617, 129.22)" style="fill:#ff0101; fill-rule:evenodd; stroke:none; stroke-width:0.028315; stroke-linecap:butt; stroke-linejoin:miter; stroke-dasharray:none;" >
  <path d="M1.8965 5.722 C1.8965 5.722 1.8965 0.679 1.8965 0.679 C1.8965 0.679 0 0.679 0 0.679 C0 0.679 0 0 0 0 C0 0 4.5567 0 4.5567 0 C4.5567 0 4.5567 0.679 4.5567 0.679 C4.5567 0.679 2.6602 0.679 2.6602 0.679 C2.6602 0.679 2.6602 5.722 2.6602 5.722 C2.6602 5.722 1.8965 5.722 1.8965 5.722 Z" />
 </g>
 <g transform="translate(42.0254, 134.942)" style="fill:#ff0101; fill-rule:evenodd; stroke:none; stroke-width:0.028315; stroke-linecap:butt; stroke-linejoin:miter; stroke-dasharray:none;" >
  <path d="M1.2168 3.343 C1.2168 3.343 0.793 3.343 0.793 3.343 C0.793 3.343 0.793 0.737 0.793 0.737 C0.708 0.822 0.5664 0.935 0.4248 1.02 C0.2549 1.105 0.1133 1.19 0 1.218 C0 1.218 0 0.822 0 0.822 C0.2266 0.737 0.4248 0.595 0.5947 0.454 C0.7646 0.284 0.8769 0.142 0.9336 0 C0.9336 0 1.2168 0 1.2168 0 C1.2168 0 1.2168 3.343 1.2168 3.343 Z" />
 </g>
 <g transform="translate(19.3574, 153.47)" style="fill:#ff0101; fill-rule:evenodd; stroke:none; stroke-width:0.028315; stroke-linecap:butt; stroke-linejoin:miter; stroke-dasharray:none;" >
  <path d="M1.8955 5.722 C1.8955 5.722 1.8955 0.679 1.8955 0.679 C1.8955 0.679 0 0.679 0 0.679 C0 0.679 0 0 0 0 C0 0 4.5557 0 4.5557 0 C4.5557 0 4.5557 0.679 4.5557 0.679 C4.5557 0.679 2.6602 0.679 2.6602 0.679 C2.6602 0.679 2.6602 5.722 2.6602 5.722 C2.6602 5.722 1.8955 5.722 1.8955 5.722 Z" />
 </g>
 <g transform="translate(24.6211, 159.192)" style="fill:#ff0101; fill-rule:evenodd; stroke:none; stroke-width:0.028315; stroke-linecap:butt; stroke-linejoin:miter; stroke-dasharray:none;" >
  <path d="M1.2168 3.343 C1.2168 3.343 0.792 3.343 0.792 3.343 C0.792 3.343 0.792 0.737 0.792 0.737 C0.707 0.822 0.5654 0.935 0.4248 1.02 C0.2549 1.105 0.1133 1.19 0 1.218 C0 1.218 0 0.822 0 0.822 C0.2266 0.737 0.4248 0.595 0.5937 0.454 C0.7637 0.284 0.8769 0.142 0.9336 0 C0.9336 0 1.2168 0 1.2168 0 C1.2168 0 1.2168 3.343 1.2168 3.343 Z" />
 </g>
 <g transform="translate(33.7334, 124.432)" style="fill:none; stroke:#ff0101; stroke-width:0.1; stroke-linecap:butt; stroke-linejoin:miter; stroke-dasharray:none;" >
  <path d="M34.2715 0.085 C34.2715 0.085 0 0 0 0 " />
 </g>
 <g transform="translate(67.2412, 123.78)" style="fill:#ff0101; fill-rule:evenodd; stroke:none; stroke-width:0.028315; stroke-linecap:butt; stroke-linejoin:miter; stroke-dasharray:none;" >
  <path d="M0 1.445 C0 1.445 0 0 0 0 C0 0 3.8203 0.793 3.8203 0.793 C3.8203 0.793 0 1.445 0 1.445 Z" />
 </g>
 <g transform="translate(30.6768, 123.724)" style="fill:#ff0101; fill-rule:evenodd; stroke:none; stroke-width:0.028315; stroke-linecap:butt; stroke-linejoin:miter; stroke-dasharray:none;" >
  <path d="M3.8212 0 C3.8212 0 3.8212 1.444 3.8212 1.444 C3.8212 1.444 0 0.651 0 0.651 C0 0.651 3.8212 0 3.8212 0 Z" />
 </g>
 <g transform="translate(44.374, 114.544)" style="fill:#ff0101; fill-rule:evenodd; stroke:none; stroke-width:0.028315; stroke-linecap:butt; stroke-linejoin:miter; stroke-dasharray:none;" >
  <path d="M3.7647 5.015 C3.7647 5.015 3.7647 5.723 3.7647 5.723 C3.7647 5.723 0 5.723 0 5.723 C0 5.553 0.0283 5.383 0.085 5.213 C0.1699 4.958 0.3115 4.703 0.5381 4.448 C0.7364 4.193 1.0196 3.882 1.4151 3.57 C2.0381 3.06 2.4629 2.663 2.6885 2.38 C2.9434 2.097 3.0567 1.813 3.0567 1.559 C3.0567 1.275 2.9434 1.049 2.7451 0.879 C2.5479 0.681 2.293 0.596 1.9815 0.596 C1.6416 0.596 1.3584 0.709 1.1612 0.907 C0.9629 1.105 0.8496 1.36 0.8496 1.728 C0.8496 1.728 0.1416 1.644 0.1416 1.644 C0.1983 1.105 0.3682 0.709 0.708 0.426 C1.0196 0.142 1.4434 0 1.9815 0 C2.5479 0 2.9717 0.142 3.2832 0.454 C3.5948 0.766 3.7647 1.134 3.7647 1.587 C3.7647 1.813 3.708 2.012 3.6231 2.238 C3.5381 2.465 3.3682 2.691 3.1416 2.946 C2.9434 3.173 2.5762 3.514 2.0948 3.938 C1.6699 4.278 1.3867 4.505 1.2735 4.646 C1.1612 4.76 1.0479 4.901 0.9912 5.015 C0.9912 5.015 3.7647 5.015 3.7647 5.015 Z" />
 </g>
 <g transform="translate(48.7607, 114.544)" style="fill:#ff0101; fill-rule:evenodd; stroke:none; stroke-width:0.028315; stroke-linecap:butt; stroke-linejoin:miter; stroke-dasharray:none;" >
  <path d="M1.8965 5.723 C1.8965 5.723 1.8965 0.681 1.8965 0.681 C1.8965 0.681 0 0.681 0 0.681 C0 0.681 0 0 0 0 C0 0 4.5567 0 4.5567 0 C4.5567 0 4.5567 0.681 4.5567 0.681 C4.5567 0.681 2.6602 0.681 2.6602 0.681 C2.6602 0.681 2.6602 5.723 2.6602 5.723 C2.6602 5.723 1.8965 5.723 1.8965 5.723 Z" />
 </g>
 <g transform="translate(53.9961, 120.267)" style="fill:#ff0101; fill-rule:evenodd; stroke:none; stroke-width:0.028315; stroke-linecap:butt; stroke-linejoin:miter; stroke-dasharray:none;" >
  <path d="M1.2168 3.343 C1.2168 3.343 0.793 3.343 0.793 3.343 C0.793 3.343 0.793 0.737 0.793 0.737 C0.708 0.822 0.5664 0.935 0.4248 1.02 C0.2549 1.105 0.1133 1.19 0 1.218 C0 1.218 0 0.822 0 0.822 C0.2266 0.737 0.4248 0.595 0.5947 0.454 C0.7646 0.283 0.8779 0.141 0.9346 0 C0.9346 0 1.2168 0 1.2168 0 C1.2168 0 1.2168 3.343 1.2168 3.343 Z" />
 </g>
 <g transform="translate(33.7617, 110.295)" style="fill:none; stroke:#ff0101; stroke-width:0.1; stroke-linecap:butt; stroke-linejoin:miter; stroke-dasharray:none;" >
  <path d="M73.6083 0.057 C73.6083 0.057 0 0 0 0 " />
 </g>
 <g transform="translate(106.606, 109.615)" style="fill:#ff0101; fill-rule:evenodd; stroke:none; stroke-width:0.028315; stroke-linecap:butt; stroke-linejoin:miter; stroke-dasharray:none;" >
  <path d="M0 1.445 C0 1.445 0 0 0 0 C0 0 3.821 0.793 3.821 0.793 C3.821 0.793 0 1.445 0 1.445 Z" />
 </g>
 <g transform="translate(30.7051, 109.587)" style="fill:#ff0101; fill-rule:evenodd; stroke:none; stroke-width:0.028315; stroke-linecap:butt; stroke-linejoin:miter; stroke-dasharray:none;" >
  <path d="M3.8213 0 C3.8213 0 3.8213 1.444 3.8213 1.444 C3.8213 1.444 0 0.651 0 0.651 C0 0.651 3.8213 0 3.8213 0 Z" />
 </g>
 <g transform="translate(59.373, 100.805)" style="fill:#ff0101; fill-rule:evenodd; stroke:none; stroke-width:0.028315; stroke-linecap:butt; stroke-linejoin:miter; stroke-dasharray:none;" >
  <path d="M1.8965 5.722 C1.8965 5.722 1.8965 0.679 1.8965 0.679 C1.8965 0.679 0 0.679 0 0.679 C0 0.679 0 0 0 0 C0 0 4.5567 0 4.5567 0 C4.5567 0 4.5567 0.679 4.5567 0.679 C4.5567 0.679 2.6602 0.679 2.6602 0.679 C2.6602 0.679 2.6602 5.722 2.6602 5.722 C2.6602 5.722 1.8965 5.722 1.8965 5.722 Z" />
 </g>
 <g transform="translate(64.5527, 102.532)" style="fill:#ff0101; fill-rule:evenodd; stroke:none; stroke-width:0.028315; stroke-linecap:butt; stroke-linejoin:miter; stroke-dasharray:none;" >
  <path d="M3.792 0.652 C3.792 0.652 0 0.652 0 0.652 C0 0.652 0 0 0 0 C0 0 3.792 0 3.792 0 C3.792 0 3.792 0.652 3.792 0.652 Z M3.792 2.38 C3.792 2.38 0 2.38 0 2.38 C0 2.38 0 1.729 0 1.729 C0 1.729 3.792 1.729 3.792 1.729 C3.792 1.729 3.792 2.38 3.792 2.38 Z" />
 </g>
 <g transform="translate(68.8818, 100.805)" style="fill:#ff0101; fill-rule:evenodd; stroke:none; stroke-width:0.028315; stroke-linecap:butt; stroke-linejoin:miter; stroke-dasharray:none;" >
  <path d="M2.5196 5.722 C2.5196 5.722 2.5196 4.362 2.5196 4.362 C2.5196 4.362 0 4.362 0 4.362 C0 4.362 0 3.711 0 3.711 C0 3.711 2.6602 0 2.6602 0 C2.6602 0 3.2266 0 3.2266 0 C3.2266 0 3.2266 3.711 3.2266 3.711 C3.2266 3.711 3.9903 3.711 3.9903 3.711 C3.9903 3.711 3.9903 4.362 3.9903 4.362 C3.9903 4.362 3.2266 4.362 3.2266 4.362 C3.2266 4.362 3.2266 5.722 3.2266 5.722 C3.2266 5.722 2.5196 5.722 2.5196 5.722 Z M2.5196 3.711 C2.5196 3.711 2.5196 1.161 2.5196 1.161 C2.5196 1.161 0.708 3.711 0.708 3.711 C0.708 3.711 2.5196 3.711 2.5196 3.711 Z" />
 </g>
 <g transform="translate(73.3818, 100.805)" style="fill:#ff0101; fill-rule:evenodd; stroke:none; stroke-width:0.028315; stroke-linecap:butt; stroke-linejoin:miter; stroke-dasharray:none;" >
  <path d="M1.8965 5.722 C1.8965 5.722 1.8965 0.679 1.8965 0.679 C1.8965 0.679 0 0.679 0 0.679 C0 0.679 0 0 0 0 C0 0 4.5567 0 4.5567 0 C4.5567 0 4.5567 0.679 4.5567 0.679 C4.5567 0.679 2.6602 0.679 2.6602 0.679 C2.6602 0.679 2.6602 5.722 2.6602 5.722 C2.6602 5.722 1.8965 5.722 1.8965 5.722 Z" />
 </g>
 <g transform="translate(78.6455, 106.527)" style="fill:#ff0101; fill-rule:evenodd; stroke:none; stroke-width:0.028315; stroke-linecap:butt; stroke-linejoin:miter; stroke-dasharray:none;" >
  <path d="M1.2168 3.343 C1.2168 3.343 0.793 3.343 0.793 3.343 C0.793 3.343 0.793 0.737 0.793 0.737 C0.708 0.822 0.5664 0.935 0.4248 1.02 C0.2549 1.105 0.1133 1.19 0 1.218 C0 1.218 0 0.822 0 0.822 C0.2266 0.737 0.4248 0.595 0.5947 0.453 C0.7647 0.284 0.8779 0.142 0.9346 0 C0.9346 0 1.2168 0 1.2168 0 C1.2168 0 1.2168 3.343 1.2168 3.343 Z" />
 </g>
 <g transform="translate(134.085, 185.822)" style="fill:#010101; fill-rule:evenodd; stroke:none; stroke-width:0.028315; stroke-linecap:butt; stroke-linejoin:miter; stroke-dasharray:none;" >
  <path d="M0 5.723 C0 5.723 0 0 0 0 C0 0 0.765 0 0.765 0 C0.765 0 0.765 5.723 0.765 5.723 C0.765 5.723 0 5.723 0 5.723 Z" />
 </g>
 <g transform="translate(136.18, 187.296)" style="fill:#010101; fill-rule:evenodd; stroke:none; stroke-width:0.028315; stroke-linecap:butt; stroke-linejoin:miter; stroke-dasharray:none;" >
  <path d="M0 4.249 C0 4.249 0 0.085 0 0.085 C0 0.085 0.65 0.085 0.65 0.085 C0.65 0.085 0.65 0.68 0.65 0.68 C0.962 0.226 1.386 0 1.952 0 C2.207 0 2.433 0.057 2.632 0.142 C2.858 0.226 3 0.34 3.113 0.481 C3.226 0.623 3.283 0.821 3.339 1.019 C3.367 1.133 3.367 1.359 3.367 1.699 C3.367 1.699 3.367 4.249 3.367 4.249 C3.367 4.249 2.66 4.249 2.66 4.249 C2.66 4.249 2.66 1.699 2.66 1.699 C2.66 1.416 2.632 1.218 2.575 1.076 C2.518 0.934 2.433 0.821 2.292 0.736 C2.15 0.651 1.98 0.595 1.811 0.595 C1.5 0.595 1.245 0.68 1.018 0.878 C0.82 1.076 0.707 1.444 0.707 1.983 C0.707 1.983 0.707 4.249 0.707 4.249 C0.707 4.249 0 4.249 0 4.249 Z" />
 </g>
 <g transform="translate(140.595, 187.296)" style="fill:#010101; fill-rule:evenodd; stroke:none; stroke-width:0.028315; stroke-linecap:butt; stroke-linejoin:miter; stroke-dasharray:none;" >
  <path d="M0 5.836 C0 5.836 0 0.085 0 0.085 C0 0.085 0.65 0.085 0.65 0.085 C0.65 0.085 0.65 0.623 0.65 0.623 C0.792 0.425 0.962 0.255 1.16 0.142 C1.358 0.057 1.585 0 1.839 0 C2.207 0 2.518 0.085 2.773 0.283 C3.055 0.453 3.254 0.708 3.395 1.048 C3.537 1.388 3.593 1.727 3.593 2.125 C3.593 2.55 3.509 2.946 3.367 3.286 C3.225 3.626 2.999 3.881 2.717 4.051 C2.405 4.249 2.122 4.334 1.782 4.334 C1.556 4.334 1.358 4.277 1.16 4.192 C0.99 4.079 0.82 3.966 0.707 3.824 C0.707 3.824 0.707 5.836 0.707 5.836 C0.707 5.836 0 5.836 0 5.836 Z M0.622 2.182 C0.622 2.72 0.735 3.116 0.962 3.371 C1.16 3.626 1.443 3.767 1.754 3.767 C2.065 3.767 2.32 3.626 2.547 3.371 C2.773 3.116 2.886 2.691 2.886 2.125 C2.886 1.586 2.773 1.189 2.547 0.934 C2.348 0.68 2.065 0.538 1.782 0.538 C1.471 0.538 1.217 0.68 0.962 0.963 C0.735 1.246 0.622 1.642 0.622 2.182 Z" />
 </g>
 <g transform="translate(145.037, 187.381)" style="fill:#010101; fill-rule:evenodd; stroke:none; stroke-width:0.028315; stroke-linecap:butt; stroke-linejoin:miter; stroke-dasharray:none;" >
  <path d="M2.774 4.164 C2.774 4.164 2.774 3.569 2.774 3.569 C2.435 4.022 2.01 4.249 1.443 4.249 C1.19 4.249 0.963 4.192 0.736 4.107 C0.538 4.022 0.368 3.909 0.255 3.767 C0.17 3.626 0.085 3.428 0.057 3.229 C0.028 3.088 0 2.861 0 2.578 C0 2.578 0 0 0 0 C0 0 0.708 0 0.708 0 C0.708 0 0.708 2.323 0.708 2.323 C0.708 2.691 0.736 2.918 0.765 3.059 C0.793 3.229 0.878 3.399 1.048 3.484 C1.19 3.598 1.359 3.654 1.585 3.654 C1.783 3.654 1.982 3.598 2.18 3.484 C2.35 3.371 2.491 3.229 2.576 3.059 C2.66 2.861 2.689 2.578 2.689 2.238 C2.689 2.238 2.689 0 2.689 0 C2.689 0 3.397 0 3.397 0 C3.397 0 3.397 4.164 3.397 4.164 C3.397 4.164 2.774 4.164 2.774 4.164 Z" />
 </g>
 <g transform="translate(149.084, 185.936)" style="fill:#010101; fill-rule:evenodd; stroke:none; stroke-width:0.028315; stroke-linecap:butt; stroke-linejoin:miter; stroke-dasharray:none;" >
  <path d="M1.925 5.014 C1.925 5.014 2.01 5.637 2.01 5.637 C1.812 5.666 1.642 5.694 1.472 5.694 C1.218 5.694 1.02 5.666 0.878 5.581 C0.765 5.496 0.651 5.382 0.595 5.241 C0.538 5.127 0.51 4.844 0.51 4.419 C0.51 4.419 0.51 1.983 0.51 1.983 C0.51 1.983 0 1.983 0 1.983 C0 1.983 0 1.445 0 1.445 C0 1.445 0.51 1.445 0.51 1.445 C0.51 1.445 0.51 0.425 0.51 0.425 C0.51 0.425 1.218 0 1.218 0 C1.218 0 1.218 1.445 1.218 1.445 C1.218 1.445 1.925 1.445 1.925 1.445 C1.925 1.445 1.925 1.983 1.925 1.983 C1.925 1.983 1.218 1.983 1.218 1.983 C1.218 1.983 1.218 4.448 1.218 4.448 C1.218 4.646 1.218 4.759 1.246 4.816 C1.274 4.873 1.33 4.929 1.387 4.958 C1.443 4.986 1.5 5.014 1.613 5.014 C1.698 5.014 1.783 5.014 1.925 5.014 Z" />
 </g>
 <g transform="translate(8.06543, 98.1416)" style="fill:#010101; fill-rule:evenodd; stroke:none; stroke-width:0.028315; stroke-linecap:butt; stroke-linejoin:miter; stroke-dasharray:none;" >
  <path d="M3.02837 5.4674 C2.06637 5.4674 1.33008 5.2124 0.79199 4.7024 C0.25488 4.1924 0 3.5414 0 2.7194 C0 2.2094 0.11328 1.7275 0.36816 1.3027 C0.62305 0.8779 0.99023 0.5664 1.41504 0.3398 C1.86816 0.1133 2.37697 0 2.94337 0 C3.53707 0 4.04687 0.1133 4.49997 0.3398 C4.95217 0.5947 5.29197 0.9063 5.54687 1.3311 C5.77347 1.7842 5.88667 2.2374 5.88667 2.7194 C5.88667 3.2574 5.74507 3.7394 5.49027 4.1644 C5.23537 4.5884 4.89547 4.9284 4.44337 5.1274 C3.99027 5.3544 3.50877 5.4674 3.02837 5.4674 Z M3.02837 4.7024 C3.70707 4.7024 4.24507 4.5044 4.61327 4.1354 C5.00877 3.7674 5.20707 3.3144 5.20707 2.7484 C5.20707 2.1524 5.00877 1.6992 4.61327 1.3311 C4.21677 0.9629 3.67867 0.7647 2.94337 0.7647 C2.49027 0.7647 2.09477 0.8496 1.75488 0.9912 C1.41504 1.1611 1.16016 1.3877 0.96191 1.6992 C0.76465 2.0104 0.67969 2.3504 0.67969 2.7194 C0.67969 3.2574 0.84863 3.7394 1.2168 4.1074 C1.58496 4.5044 2.17867 4.7024 3.02837 4.7024 Z" />
 </g>
 <g transform="translate(9.70703, 93.835)" style="fill:#010101; fill-rule:evenodd; stroke:none; stroke-width:0.028315; stroke-linecap:butt; stroke-linejoin:miter; stroke-dasharray:none;" >
  <path d="M4.16017 0.623 C4.16017 0.623 3.56547 0.623 3.56547 0.623 C4.01857 0.9629 4.24507 1.3886 4.24507 1.955 C4.24507 2.2099 4.18847 2.4365 4.10347 2.663 C4.01857 2.8613 3.90527 3.0312 3.76367 3.1445 C3.62207 3.2295 3.42387 3.3144 3.22557 3.3427 C3.08497 3.3711 2.85837 3.3994 2.57517 3.3994 C2.57517 3.3994 0 3.3994 0 3.3994 C0 3.3994 0 2.6914 0 2.6914 C0 2.6914 2.32027 2.6914 2.32027 2.6914 C2.68847 2.6914 2.91507 2.663 3.05667 2.6347 C3.22557 2.6064 3.39547 2.5214 3.48047 2.3515 C3.59377 2.2099 3.65037 2.04 3.65037 1.8134 C3.65037 1.6152 3.59377 1.417 3.48047 1.2187 C3.36717 1.0478 3.22557 0.9062 3.05667 0.8213 C2.85837 0.7363 2.57517 0.708 2.23537 0.708 C2.23537 0.708 0 0.708 0 0.708 C0 0.708 0 0 0 0 C0 0 4.16017 0 4.16017 0 C4.16017 0 4.16017 0.623 4.16017 0.623 Z" />
 </g>
 <g transform="translate(8.26367, 91.1436)" style="fill:#010101; fill-rule:evenodd; stroke:none; stroke-width:0.028315; stroke-linecap:butt; stroke-linejoin:miter; stroke-dasharray:none;" >
  <path d="M5.00883 0.0849 C5.00883 0.0849 5.63183 0 5.63183 0 C5.66013 0.1982 5.68843 0.3681 5.68843 0.538 C5.68843 0.7929 5.66013 0.9921 5.57523 1.1337 C5.49023 1.247 5.37693 1.3603 5.23533 1.4169 C5.12203 1.4736 4.83883 1.5019 4.41503 1.5019 C4.41503 1.5019 1.98043 1.5019 1.98043 1.5019 C1.98043 1.5019 1.98043 2.0117 1.98043 2.0117 C1.98043 2.0117 1.44336 2.0117 1.44336 2.0117 C1.44336 2.0117 1.44336 1.5019 1.44336 1.5019 C1.44336 1.5019 0.42481 1.5019 0.42481 1.5019 C0.42481 1.5019 0 0.7929 0 0.7929 C0 0.7929 1.44336 0.7929 1.44336 0.7929 C1.44336 0.7929 1.44336 0.0849 1.44336 0.0849 C1.44336 0.0849 1.98043 0.0849 1.98043 0.0849 C1.98043 0.0849 1.98043 0.7929 1.98043 0.7929 C1.98043 0.7929 4.44333 0.7929 4.44333 0.7929 C4.64163 0.7929 4.75393 0.7929 4.81053 0.7646 C4.86723 0.7363 4.92383 0.6796 4.95213 0.623 C4.98043 0.5664 5.00883 0.5097 5.00883 0.3964 C5.00883 0.3115 5.00883 0.2265 5.00883 0.0849 Z" />
 </g>
 <g transform="translate(9.62207, 86.9229)" style="fill:#010101; fill-rule:evenodd; stroke:none; stroke-width:0.028315; stroke-linecap:butt; stroke-linejoin:miter; stroke-dasharray:none;" >
  <path d="M5.83003 3.5976 C5.83003 3.5976 0.08496 3.5976 0.08496 3.5976 C0.08496 3.5976 0.08496 2.9462 0.08496 2.9462 C0.08496 2.9462 0.62203 2.9462 0.62203 2.9462 C0.42483 2.8046 0.25488 2.6347 0.1416 2.4365 C0.05664 2.2373 0 2.0107 0 1.7558 C0 1.3876 0.08496 1.0761 0.2832 0.8212 C0.45313 0.538 0.70703 0.3398 1.04683 0.1982 C1.38673 0.0566 1.72653 0 2.12203 0 C2.54683 0 2.94333 0.0849 3.28323 0.2265 C3.62203 0.3681 3.87693 0.5947 4.04683 0.8779 C4.24513 1.1894 4.33003 1.4726 4.33003 1.8125 C4.33003 2.039 4.27343 2.2373 4.18843 2.4365 C4.07523 2.6064 3.96193 2.7763 3.82033 2.8896 C3.82033 2.8896 5.83003 2.8896 5.83003 2.8896 C5.83003 2.8896 5.83003 3.5976 5.83003 3.5976 Z M2.17873 2.9746 C2.71683 2.9746 3.11333 2.8613 3.36723 2.6347 C3.62203 2.4365 3.76363 2.1523 3.76363 1.8408 C3.76363 1.5292 3.62203 1.2744 3.36723 1.0478 C3.11333 0.8212 2.68843 0.708 2.12203 0.708 C1.58493 0.708 1.18843 0.8212 0.93363 1.0478 C0.67873 1.246 0.53813 1.5292 0.53813 1.8125 C0.53813 2.124 0.67873 2.3798 0.96193 2.6347 C1.24513 2.8613 1.64163 2.9746 2.17873 2.9746 Z" />
 </g>
 <g transform="translate(9.70703, 82.6729)" style="fill:#010101; fill-rule:evenodd; stroke:none; stroke-width:0.028315; stroke-linecap:butt; stroke-linejoin:miter; stroke-dasharray:none;" >
  <path d="M4.16017 0.623 C4.16017 0.623 3.56547 0.623 3.56547 0.623 C4.01857 0.9638 4.24507 1.3886 4.24507 1.955 C4.24507 2.2099 4.18847 2.4365 4.10347 2.663 C4.01857 2.8613 3.90527 3.0312 3.76367 3.1445 C3.62207 3.2294 3.42387 3.3144 3.22557 3.3427 C3.08497 3.371 2.85837 3.3994 2.57517 3.3994 C2.57517 3.3994 0 3.3994 0 3.3994 C0 3.3994 0 2.6914 0 2.6914 C0 2.6914 2.32027 2.6914 2.32027 2.6914 C2.68847 2.6914 2.91507 2.663 3.05667 2.6347 C3.22557 2.6064 3.39547 2.5214 3.48047 2.3515 C3.59377 2.2099 3.65037 2.04 3.65037 1.8134 C3.65037 1.6152 3.59377 1.4169 3.48047 1.2187 C3.36717 1.0488 3.22557 0.9072 3.05667 0.8222 C2.85837 0.7363 2.57517 0.708 2.23537 0.708 C2.23537 0.708 0 0.708 0 0.708 C0 0.708 0 0 0 0 C0 0 4.16017 0 4.16017 0 C4.16017 0 4.16017 0.623 4.16017 0.623 Z" />
 </g>
 <g transform="translate(8.26367, 80.0098)" style="fill:#010101; fill-rule:evenodd; stroke:none; stroke-width:0.028315; stroke-linecap:butt; stroke-linejoin:miter; stroke-dasharray:none;" >
  <path d="M5.00883 0.0849 C5.00883 0.0849 5.63183 0 5.63183 0 C5.66013 0.1982 5.68843 0.3681 5.68843 0.5381 C5.68843 0.7939 5.66013 0.9922 5.57523 1.1338 C5.49023 1.247 5.37693 1.3603 5.23533 1.417 C5.12203 1.4736 4.83883 1.5019 4.41503 1.5019 C4.41503 1.5019 1.98043 1.5019 1.98043 1.5019 C1.98043 1.5019 1.98043 2.0117 1.98043 2.0117 C1.98043 2.0117 1.44336 2.0117 1.44336 2.0117 C1.44336 2.0117 1.44336 1.5019 1.44336 1.5019 C1.44336 1.5019 0.42481 1.5019 0.42481 1.5019 C0.42481 1.5019 0 0.7939 0 0.7939 C0 0.7939 1.44336 0.7939 1.44336 0.7939 C1.44336 0.7939 1.44336 0.0849 1.44336 0.0849 C1.44336 0.0849 1.98043 0.0849 1.98043 0.0849 C1.98043 0.0849 1.98043 0.7939 1.98043 0.7939 C1.98043 0.7939 4.44333 0.7939 4.44333 0.7939 C4.64163 0.7939 4.75393 0.7939 4.81053 0.7656 C4.86723 0.7373 4.92383 0.6806 4.95213 0.623 C4.98043 0.5664 5.00883 0.5097 5.00883 0.3965 C5.00883 0.3115 5.00883 0.2265 5.00883 0.0849 Z" />
 </g>
 <g transform="translate(283.707, 165.566)" style="fill:#010101; fill-rule:evenodd; stroke:none; stroke-width:0.028315; stroke-linecap:butt; stroke-linejoin:miter; stroke-dasharray:none;" >
  <path d="M0 4.165 C0 4.165 1.472 2.012 1.472 2.012 C1.472 2.012 0.085 0 0.085 0 C0.085 0 0.935 0 0.935 0 C0.935 0 1.613 0.993 1.613 0.993 C1.727 1.191 1.812 1.332 1.897 1.446 C2.01 1.276 2.123 1.106 2.208 0.993 C2.208 0.993 2.887 0 2.887 0 C2.887 0 3.736 0 3.736 0 C3.736 0 2.35 2.012 2.35 2.012 C2.35 2.012 3.821 4.165 3.821 4.165 C3.821 4.165 2.972 4.165 2.972 4.165 C2.972 4.165 2.123 2.89 2.123 2.89 C2.123 2.89 1.925 2.607 1.925 2.607 C1.925 2.607 0.85 4.165 0.85 4.165 C0.85 4.165 0 4.165 0 4.165 Z" />
 </g>
 <g transform="translate(27.1396, 3.12207)" style="fill:#010101; fill-rule:evenodd; stroke:none; stroke-width:0.028315; stroke-linecap:butt; stroke-linejoin:miter; stroke-dasharray:none;" >
  <path d="M0.3965 5.75098 C0.3965 5.75098 0.3116 5.09961 0.3116 5.09961 C0.4815 5.12793 0.5948 5.15625 0.7081 5.15625 C0.877 5.15625 0.9903 5.12793 1.1036 5.07129 C1.1885 5.01465 1.2735 4.95801 1.3301 4.87305 C1.3868 4.78809 1.4434 4.61816 1.5567 4.33496 C1.5567 4.30664 1.585 4.25 1.6133 4.16504 C1.6133 4.16504 0 0 0 0 C0 0 0.7637 0 0.7637 0 C0.7637 0 1.6417 2.37988 1.6417 2.37988 C1.7549 2.66309 1.8682 3.00293 1.9532 3.31543 C2.0381 3.03125 2.1221 2.74805 2.2354 2.43652 C2.2354 2.43652 3.1133 0 3.1133 0 C3.1133 0 3.8204 0 3.8204 0 C3.8204 0 2.292 4.25 2.292 4.25 C2.1221 4.70313 1.9815 5.01465 1.8965 5.18457 C1.7549 5.41113 1.6133 5.58106 1.4434 5.66602 C1.2735 5.7793 1.0752 5.83594 0.8487 5.83594 C0.7081 5.83594 0.5665 5.80762 0.3965 5.75098 Z" />
 </g>
</svg>
